<?xml version="1.0" standalone="no"?>
<!DOCTYPE svg PUBLIC "-//W3C//DTD SVG 20010904//EN"
 "http://www.w3.org/TR/2001/REC-SVG-20010904/DTD/svg10.dtd">
<svg version="1.0" xmlns="http://www.w3.org/2000/svg"
 width="512.000000pt" height="512.000000pt" viewBox="0 0 512.000000 512.000000"
 preserveAspectRatio="xMidYMid meet">

<g transform="translate(0.000000,512.000000) scale(0.100000,-0.100000)"
fill="#000000" stroke="none">
<path d="M2577 5106 c-61 -22 -106 -64 -162 -151 -154 -238 -348 -418 -560
-520 -125 -60 -192 -114 -247 -199 -56 -86 -80 -172 -79 -281 0 -150 50 -285
142 -388 l47 -53 -53 -28 c-90 -47 -172 -145 -199 -237 -2 -9 -38 -42 -78 -72
-41 -31 -110 -94 -155 -140 -289 -301 -413 -679 -374 -1136 27 -308 96 -520
238 -736 77 -116 242 -286 346 -355 47 -32 65 -49 60 -60 -70 -169 -121 -394
-130 -571 l-6 -127 26 -26 26 -26 1308 0 c1435 0 1341 -4 1364 57 18 49 -116
648 -230 1025 -84 277 -140 425 -296 775 -50 114 -94 294 -102 420 -4 73 -3
103 5 103 6 0 75 -11 154 -25 79 -13 199 -31 268 -39 183 -20 193 -14 224 144
79 394 100 868 76 1700 -14 494 -18 527 -85 659 -45 91 -154 207 -228 245
-110 55 -116 56 -712 55 -433 0 -558 -3 -588 -13z m483 -187 c0 -54 -41 -192
-77 -262 -46 -88 -108 -151 -181 -185 -54 -26 -65 -27 -212 -27 -146 0 -350
20 -350 34 0 4 30 36 66 71 83 82 172 192 241 297 30 46 62 87 71 92 10 6 108
11 230 11 l212 0 0 -31z m325 4 c-39 -157 -85 -444 -106 -663 -24 -254 -9
-817 27 -999 7 -32 6 -34 -17 -28 -52 13 -239 36 -334 42 -259 16 -327 31
-555 122 -101 41 -238 90 -305 109 -142 42 -209 79 -278 154 -75 82 -109 164
-115 275 -8 175 53 264 242 354 l106 51 122 -24 c223 -45 481 -60 600 -35 229
48 396 259 454 577 l17 92 74 0 75 0 -7 -27z m401 -6 c94 -47 179 -164 208
-285 37 -149 45 -1402 12 -1733 -17 -165 -53 -400 -64 -411 -7 -7 -255 28
-412 57 -262 50 -589 135 -824 215 -306 104 -624 247 -729 326 -70 53 -197
115 -274 135 -29 7 -53 18 -53 25 0 20 85 91 126 105 23 8 76 14 129 13 80 0
104 -5 220 -46 72 -25 191 -71 265 -101 165 -68 277 -91 535 -112 317 -25 499
-67 623 -143 92 -56 111 -64 138 -58 40 11 64 42 64 85 0 33 -6 44 -37 71 -21
17 -79 51 -130 76 -104 52 -93 30 -118 234 -51 428 -35 904 46 1329 19 100 44
209 55 240 8 24 159 9 220 -22z m-2131 -1862 c84 -22 150 -54 221 -108 95 -72
412 -218 709 -327 153 -56 454 -145 606 -179 l96 -22 6 -132 c9 -208 46 -346
157 -592 176 -390 309 -818 425 -1364 14 -64 27 -126 30 -138 l5 -23 -1186 0
-1185 0 6 58 c16 140 87 418 114 445 4 4 32 -3 62 -17 159 -70 379 -126 579
-147 127 -13 419 -7 462 10 33 13 62 64 52 94 -3 12 -16 32 -27 44 -20 22 -23
23 -196 16 -264 -9 -457 18 -688 98 -397 137 -665 391 -796 754 -83 231 -104
575 -52 830 46 223 168 442 331 594 135 127 156 135 269 106z"/>
<path d="M1558 2371 c-31 -10 -72 -28 -91 -40 -54 -33 -126 -116 -155 -179
-23 -50 -27 -70 -27 -157 0 -164 48 -262 209 -420 116 -115 419 -368 449 -376
38 -10 68 9 250 163 324 274 424 401 447 564 36 265 -168 486 -424 460 -69 -7
-187 -59 -225 -100 l-23 -25 -49 39 c-99 78 -250 108 -361 71z m224 -188 c32
-17 65 -47 90 -81 22 -29 51 -57 64 -62 35 -14 89 11 108 48 39 76 163 141
244 127 56 -9 113 -45 147 -93 28 -41 30 -50 30 -130 0 -72 -4 -96 -25 -137
-32 -66 -150 -188 -330 -339 l-147 -124 -79 66 c-184 153 -307 268 -354 330
-101 134 -107 264 -17 359 75 78 168 91 269 36z"/>
</g>
</svg>
