<?xml version="1.0" standalone="no"?>
<!DOCTYPE svg PUBLIC "-//W3C//DTD SVG 20010904//EN"
 "http://www.w3.org/TR/2001/REC-SVG-20010904/DTD/svg10.dtd">
<svg version="1.0" xmlns="http://www.w3.org/2000/svg"
 width="512.000000pt" height="512.000000pt" viewBox="0 0 512.000000 512.000000"
 preserveAspectRatio="xMidYMid meet">

<g transform="translate(0.000000,512.000000) scale(0.100000,-0.100000)"
fill="#000000" stroke="none">
<path d="M1881 4917 c-15 -7 -56 -68 -108 -162 -47 -82 -190 -337 -318 -565
-282 -504 -483 -861 -944 -1682 -308 -547 -352 -631 -346 -657 3 -16 12 -34
18 -40 20 -16 250 -114 399 -170 149 -56 188 -61 218 -31 23 23 27 77 7 102
-6 9 -85 44 -174 77 -89 34 -189 74 -222 89 l-61 27 414 735 c227 404 582
1037 789 1405 207 369 380 676 384 684 7 11 25 7 98 -22 181 -72 320 -98 520
-99 205 0 393 37 558 110 49 21 60 23 68 11 5 -8 138 -243 296 -524 634 -1128
1270 -2261 1281 -2281 11 -21 5 -24 -126 -79 -397 -164 -882 -295 -1312 -354
-284 -39 -407 -46 -770 -46 -358 1 -551 13 -779 50 -115 19 -133 19 -159 -5
-28 -26 -30 -90 -4 -113 22 -20 211 -50 467 -73 220 -21 704 -23 920 -5 593
49 1107 169 1645 383 257 102 303 126 314 165 8 29 -1 48 -91 210 -55 98 -327
581 -603 1073 -276 492 -606 1080 -732 1305 -127 226 -241 426 -253 446 -36
56 -62 57 -162 9 -191 -92 -336 -124 -553 -124 -214 0 -366 34 -555 125 -89
43 -90 44 -124 26z"/>
<path d="M195 4615 c-31 -30 -32 -66 -2 -99 52 -60 137 -32 137 44 0 72 -84
106 -135 55z"/>
<path d="M515 4615 c-31 -30 -32 -66 -2 -99 52 -60 137 -32 137 44 0 72 -84
106 -135 55z"/>
<path d="M835 4615 c-31 -30 -32 -66 -2 -99 52 -60 137 -32 137 44 0 72 -84
106 -135 55z"/>
<path d="M4176 4619 c-57 -45 -19 -139 56 -139 35 0 88 48 88 80 0 12 -13 35
-29 51 -35 35 -77 38 -115 8z"/>
<path d="M4496 4619 c-57 -45 -19 -139 56 -139 35 0 88 48 88 80 0 12 -13 35
-29 51 -35 35 -77 38 -115 8z"/>
<path d="M4816 4619 c-57 -45 -19 -139 56 -139 35 0 88 48 88 80 0 12 -13 35
-29 51 -35 35 -77 38 -115 8z"/>
<path d="M2030 4054 c-228 -59 -422 -253 -480 -480 -76 -296 57 -583 393 -848
l87 -69 31 -101 c93 -311 174 -463 316 -596 160 -150 410 -225 633 -191 183
28 347 155 420 327 27 62 60 198 60 247 0 20 1 37 3 37 2 0 25 -7 51 -16 129
-44 316 24 362 133 18 41 18 134 0 176 -18 44 -76 92 -135 114 -44 15 -50 22
-61 57 -36 121 -117 221 -220 270 -58 27 -75 30 -155 30 l-90 0 -1 61 c0 49
-6 72 -27 108 -51 86 -173 130 -260 93 l-37 -15 -45 44 c-24 25 -48 45 -53 45
-5 0 -12 25 -16 55 -28 237 -227 458 -471 520 -74 19 -231 19 -305 -1z m259
-149 c173 -41 312 -174 356 -340 8 -33 15 -82 15 -110 1 -58 10 -73 68 -105
64 -36 85 -77 80 -153 -4 -75 -24 -105 -90 -142 -72 -39 -88 -87 -46 -132 40
-43 114 -24 193 48 57 53 94 123 102 192 7 69 26 97 63 97 57 0 70 -35 50
-141 -24 -128 -115 -246 -233 -304 -91 -44 -157 -57 -262 -49 -77 6 -83 5
-103 -17 -43 -45 -20 -110 46 -129 90 -25 275 -4 362 40 49 25 53 25 45 -1 -4
-11 -4 -48 0 -81 12 -99 75 -139 130 -83 23 22 25 32 25 107 1 231 100 387
248 388 116 0 203 -88 232 -237 15 -77 37 -98 109 -106 62 -7 93 -30 89 -65
-6 -49 -94 -88 -164 -72 -66 15 -99 64 -129 190 -19 82 -34 105 -71 114 -33 9
-82 -19 -90 -50 -4 -14 1 -69 10 -122 61 -366 -48 -636 -283 -706 -122 -36
-317 -11 -443 56 -172 91 -269 238 -373 563 -30 94 -62 180 -70 193 -9 12 -59
56 -112 98 -221 177 -326 326 -354 506 -38 244 144 499 395 553 81 18 128 18
205 0z"/>
<path d="M1163 2068 c-12 -6 -26 -22 -32 -37 -9 -21 -145 -734 -183 -959 -6
-35 -14 -59 -19 -55 -4 4 -21 42 -38 84 -23 54 -39 79 -57 88 -63 28 -95 -2
-134 -130 l-31 -99 -225 0 -226 0 -29 -29 c-37 -37 -37 -65 0 -102 l29 -29
259 0 c274 0 299 4 318 48 5 12 12 22 16 22 3 0 23 -43 43 -95 52 -130 94
-162 152 -112 25 21 31 46 100 412 40 215 74 396 74 404 1 64 24 -84 99 -635
87 -635 88 -637 115 -661 34 -29 58 -29 91 0 22 19 38 67 112 337 47 173 87
317 90 320 2 2 7 0 11 -6 21 -33 48 -34 907 -34 l857 0 29 29 c37 37 37 65 0
102 l-29 29 -824 0 -824 0 -32 100 c-42 127 -74 157 -136 129 -32 -15 -34 -21
-106 -289 -67 -248 -71 -259 -76 -245 -4 10 -61 429 -144 1045 -23 168 -46
317 -51 331 -10 25 -46 50 -72 48 -7 0 -22 -5 -34 -11z"/>
<path d="M3709 931 c-16 -16 -29 -39 -29 -51 0 -27 52 -80 79 -80 57 0 92 42
83 98 -4 25 -55 62 -85 62 -10 0 -32 -13 -48 -29z"/>
</g>
</svg>
