<?xml version="1.0" standalone="no"?>
<!DOCTYPE svg PUBLIC "-//W3C//DTD SVG 20010904//EN"
 "http://www.w3.org/TR/2001/REC-SVG-20010904/DTD/svg10.dtd">
<svg version="1.0" xmlns="http://www.w3.org/2000/svg"
 width="512.000000pt" height="512.000000pt" viewBox="0 0 512.000000 512.000000"
 preserveAspectRatio="xMidYMid meet">

<g transform="translate(0.000000,512.000000) scale(0.100000,-0.100000)"
fill="#000000" stroke="none">
<path d="M170 4940 l0 -70 324 0 324 0 136 -236 c75 -130 136 -237 136 -239 0
-1 -39 -32 -87 -68 -110 -81 -248 -223 -312 -321 -57 -88 -109 -206 -117 -270
-6 -41 -11 -48 -53 -72 -143 -83 -178 -192 -105 -331 20 -37 47 -83 61 -101
59 -79 186 -102 275 -49 l47 27 29 -25 c117 -98 296 -92 405 13 67 64 91 123
93 227 2 50 3 92 3 94 1 3 13 -7 29 -22 79 -76 228 -96 334 -44 119 58 188
191 168 322 -4 25 -3 45 1 45 4 0 30 -16 59 -35 123 -83 266 -73 375 27 73 66
99 129 100 235 l0 81 49 34 c65 43 96 101 96 177 0 46 -7 69 -41 131 -69 127
-125 170 -223 170 -43 0 -68 -7 -121 -35 l-66 -35 -72 22 c-61 19 -94 23 -212
23 -185 0 -333 -35 -520 -120 l-71 -32 -149 259 c-82 143 -158 266 -169 274
-17 11 -83 14 -373 14 l-353 0 0 -70z m2146 -448 c22 -14 84 -127 84 -153 0
-14 -6 -33 -12 -42 -12 -15 -1608 -942 -1705 -990 -57 -28 -81 -16 -127 63
-42 71 -45 108 -13 137 12 11 290 175 617 363 890 513 908 524 1000 578 80 48
130 62 156 44z m-412 -20 c2 -4 -257 -159 -577 -344 -320 -185 -583 -332 -585
-328 -5 14 43 101 90 165 64 86 176 193 276 266 153 109 388 210 557 238 66
11 232 13 239 3z m336 -507 c-26 -53 -88 -95 -142 -95 -37 0 -98 18 -98 28 0
4 58 40 128 79 114 65 127 71 130 53 2 -12 -6 -41 -18 -65z m-537 -318 c-23
-39 -74 -74 -120 -83 -38 -7 -116 12 -111 27 2 5 57 40 123 78 l120 69 3 -30
c2 -16 -5 -43 -15 -61z m-513 -239 c0 -39 -40 -106 -78 -130 -42 -26 -122 -30
-161 -9 -23 13 -20 15 85 77 60 34 116 67 124 73 23 15 30 13 30 -11z"/>
<path d="M2641 4504 c-21 -26 -21 -34 -21 -659 0 -625 0 -633 21 -659 l20 -26
1210 0 c1196 0 1209 0 1229 20 20 20 20 33 20 663 l0 644 -23 21 -23 22 -1206
0 -1207 0 -20 -26z m1747 -401 l-3 -288 -46 -3 -46 -3 -57 228 c-32 125 -64
236 -73 245 -22 24 -75 23 -98 -2 -13 -14 -28 -83 -56 -262 -22 -134 -41 -247
-42 -253 -2 -5 -18 34 -37 89 -34 103 -56 136 -91 136 -37 0 -54 -17 -94 -99
l-39 -81 -138 0 -137 0 -10 38 c-6 20 -31 122 -57 226 -50 200 -63 226 -111
226 -60 0 -64 -11 -109 -297 -21 -133 -41 -240 -44 -237 -3 3 -19 46 -36 97
-35 106 -65 138 -111 121 -22 -7 -37 -28 -68 -92 l-40 -83 -40 3 -40 3 -3 288
-2 287 815 0 815 0 -2 -287z m592 -258 l0 -545 -225 0 -225 0 0 545 0 545 225
0 225 0 0 -545z m-1690 -55 c17 -74 35 -106 62 -114 13 -3 110 -6 216 -6 194
0 223 4 248 38 9 12 21 -14 59 -129 60 -181 64 -189 115 -189 30 0 43 5 54 23
8 12 29 118 47 235 18 116 36 212 39 212 4 0 14 -34 24 -75 24 -102 41 -115
152 -115 l84 0 0 -185 0 -185 -815 0 -815 0 0 185 0 185 74 0 c64 0 78 3 103
24 l29 24 48 -146 c27 -81 55 -155 64 -164 15 -18 68 -24 88 -10 23 15 32 53
65 260 18 116 36 206 40 200 3 -7 12 -38 19 -68z"/>
<path d="M4610 4140 l0 -70 145 0 145 0 0 70 0 70 -145 0 -145 0 0 -70z"/>
<path d="M4610 3840 l0 -70 145 0 145 0 0 70 0 70 -145 0 -145 0 0 -70z"/>
<path d="M4610 3550 l0 -70 145 0 145 0 0 70 0 70 -145 0 -145 0 0 -70z"/>
<path d="M245 3041 c-86 -22 -168 -91 -213 -176 -37 -69 -38 -188 -3 -255 15
-29 124 -146 299 -322 l277 -278 -136 0 c-177 0 -169 8 -169 -172 0 -151 12
-201 60 -260 48 -59 119 -87 233 -95 l97 -6 0 -398 0 -398 -56 -28 c-94 -46
-153 -133 -161 -238 -12 -153 103 -288 256 -302 115 -11 219 44 279 145 24 42
27 57 27 137 0 73 -4 98 -22 131 -27 50 -102 119 -149 136 l-34 12 0 243 0
243 1880 0 1880 0 0 -244 0 -244 -23 -6 c-39 -9 -105 -59 -137 -102 -87 -119
-68 -283 45 -382 116 -102 284 -94 388 17 61 65 80 110 81 196 0 54 -5 81 -24
119 -30 62 -88 119 -145 143 l-45 18 0 401 0 401 95 6 c52 4 111 14 132 22 47
20 108 78 136 130 22 40 22 45 22 585 0 540 0 545 -22 585 -87 161 -295 194
-426 67 -61 -60 -77 -118 -77 -287 l0 -144 -47 22 -48 22 -1577 3 -1576 2 -30
53 c-38 65 -420 430 -489 467 -37 19 -66 26 -130 29 -72 3 -89 0 -140 -23
l-58 -27 -52 26 c-55 29 -145 40 -198 26z m130 -150 c26 -12 134 -113 300
-280 l260 -261 1745 0 c1226 0 1757 -3 1785 -11 47 -13 92 -52 111 -96 9 -20
14 -70 14 -133 l0 -100 -1893 0 -1892 0 -327 328 c-283 284 -327 332 -333 364
-14 74 27 152 97 187 53 26 81 26 133 2z m402 -18 c22 -16 123 -108 224 -205
l184 -178 -95 0 -95 0 -199 199 c-215 215 -211 208 -110 210 40 1 59 -5 91
-26z m4161 -97 l37 -34 3 -366 3 -366 -126 0 -126 0 3 366 3 366 37 34 c31 28
45 34 83 34 38 0 52 -6 83 -34z m42 -977 c0 -85 -20 -133 -64 -157 -29 -16
-175 -17 -2211 -17 -1782 0 -2184 2 -2203 13 -44 25 -62 70 -62 155 l0 77
2270 0 2270 0 0 -71z m-390 -409 l0 -90 -1880 0 -1880 0 0 90 0 90 1880 0
1880 0 0 -90z m-3772 -864 c69 -36 100 -118 72 -186 -57 -137 -262 -105 -277
43 -11 109 109 193 205 143z m3907 0 c38 -16 72 -63 81 -113 9 -49 -28 -119
-77 -143 -49 -26 -92 -25 -139 1 -47 27 -72 68 -72 123 -2 108 103 175 207
132z"/>
</g>
</svg>
