<?xml version="1.0" standalone="no"?>
<!DOCTYPE svg PUBLIC "-//W3C//DTD SVG 20010904//EN"
 "http://www.w3.org/TR/2001/REC-SVG-20010904/DTD/svg10.dtd">
<svg version="1.0" xmlns="http://www.w3.org/2000/svg"
 width="512.000000pt" height="512.000000pt" viewBox="0 0 512.000000 512.000000"
 preserveAspectRatio="xMidYMid meet">

<g transform="translate(0.000000,512.000000) scale(0.100000,-0.100000)"
fill="#000000" stroke="none">
<path d="M2360 4900 c-262 -27 -518 -93 -761 -196 l-107 -45 -72 47 c-167 108
-326 162 -500 171 -411 20 -736 -282 -707 -657 11 -142 90 -328 203 -475 59
-78 61 -83 67 -155 10 -132 61 -235 171 -341 101 -99 241 -159 367 -159 214 0
363 180 329 397 -21 132 -73 225 -178 325 -116 109 -259 166 -387 155 l-61 -6
-31 47 c-49 71 -94 179 -100 238 -7 64 28 149 75 183 182 129 437 76 665 -139
174 -163 247 -332 247 -566 0 -150 -10 -215 -65 -444 -64 -267 -69 -299 -68
-460 0 -228 37 -362 175 -625 254 -485 326 -663 393 -970 51 -233 85 -534 86
-759 1 -208 15 -256 75 -256 12 0 32 9 45 19 24 19 24 21 21 198 -11 629 -120
1107 -358 1565 -276 533 -296 589 -297 823 -1 153 11 229 69 450 70 270 84
512 40 688 -81 320 -373 607 -684 672 -128 28 -233 16 -349 -39 -84 -40 -142
-96 -180 -174 -25 -50 -28 -68 -27 -147 1 -104 27 -185 94 -293 22 -35 40 -66
40 -70 0 -4 -15 -22 -32 -41 -30 -33 -31 -34 -45 -15 -78 104 -151 280 -160
384 -25 294 240 527 574 506 155 -9 349 -88 483 -195 58 -46 67 -46 187 8 323
146 633 215 963 215 330 0 634 -68 966 -216 129 -57 104 -61 252 39 246 165
511 197 730 87 173 -88 274 -261 259 -444 -9 -105 -85 -286 -161 -383 -14 -18
-16 -17 -45 15 -17 18 -31 36 -31 40 0 4 18 35 40 70 67 108 93 189 94 293 1
79 -2 97 -27 147 -36 74 -92 130 -168 168 -224 113 -491 59 -735 -148 -156
-133 -264 -299 -310 -479 -44 -176 -30 -418 41 -688 57 -219 69 -297 68 -450
-1 -234 -21 -292 -297 -823 -184 -354 -279 -674 -331 -1117 -20 -171 -37 -589
-25 -621 19 -48 97 -57 120 -13 7 11 15 121 20 252 12 305 34 497 85 732 67
307 139 485 393 970 138 263 175 396 175 625 1 157 -10 227 -68 461 -48 190
-65 306 -65 443 0 234 73 403 247 566 228 215 483 268 665 139 47 -34 82 -119
75 -183 -6 -59 -51 -167 -100 -238 l-31 -47 -61 6 c-76 7 -178 -17 -259 -60
-72 -38 -182 -139 -226 -207 -67 -104 -98 -235 -79 -336 41 -220 244 -326 476
-249 216 73 375 265 391 475 5 72 7 77 66 155 113 147 192 333 203 475 17 218
-95 436 -281 549 -136 82 -269 116 -426 108 -174 -9 -333 -63 -500 -172 l-73
-46 -85 36 c-206 89 -449 159 -662 190 -129 19 -405 27 -520 15z m-1448 -1090
c146 -45 269 -182 296 -330 17 -92 -2 -155 -62 -208 -123 -108 -378 -4 -485
197 -54 103 -56 230 -4 292 57 67 143 84 255 49z m3483 1 c51 -23 92 -71 101
-117 30 -159 -75 -343 -242 -425 -61 -30 -78 -34 -149 -34 -70 0 -86 3 -118
25 -89 61 -107 182 -45 312 90 190 308 305 453 239z"/>
<path d="M2393 4391 c-40 -11 -80 -24 -90 -29 -46 -24 -126 -44 -206 -52 -108
-10 -154 -36 -187 -104 -27 -56 -24 -100 13 -240 60 -220 58 -465 -6 -776 -29
-143 -31 -170 -31 -345 0 -225 6 -251 130 -549 92 -220 135 -344 175 -496 87
-336 134 -738 146 -1260 6 -279 7 -285 29 -307 29 -29 63 -29 94 -1 l23 22 -6
290 c-14 626 -77 1085 -201 1468 -19 59 -76 206 -126 327 -119 289 -134 352
-127 541 3 107 13 187 36 305 63 316 64 578 5 802 -38 141 -40 159 -17 171 10
5 50 12 90 15 42 3 109 19 160 37 141 50 183 60 263 60 80 0 122 -10 263 -60
51 -18 118 -34 160 -37 40 -3 80 -10 90 -15 23 -12 21 -30 -17 -171 -59 -224
-58 -486 5 -802 23 -118 33 -198 36 -305 7 -188 -9 -254 -123 -529 -140 -337
-195 -522 -248 -826 -50 -295 -74 -573 -83 -976 -6 -294 -6 -296 15 -317 28
-28 67 -28 96 1 22 22 23 28 29 312 17 760 100 1228 298 1697 144 339 164 420
156 642 -3 113 -12 191 -36 311 -62 315 -64 549 -5 770 38 141 41 185 15 239
-34 69 -82 96 -188 106 -48 4 -115 18 -148 30 -157 58 -180 63 -295 66 -91 3
-130 0 -187 -15z"/>
</g>
</svg>
