<svg width="51" height="35" viewBox="0 0 51 35" fill="none" xmlns="http://www.w3.org/2000/svg">
<path d="M24.9648 2.16688C24.7914 2.16688 24.6181 1.99353 24.6181 1.82018C24.6181 1.12678 24.098 0.606737 23.4045 0.606737C22.7111 0.606737 22.191 1.12678 22.191 1.82018C22.191 1.99353 22.0177 2.16688 21.8443 2.16688C21.6709 2.16688 21.4976 1.99353 21.4976 1.82018C21.4976 0.780082 22.3644 0 23.3179 0C24.358 0 25.1381 0.866757 25.1381 1.82018C25.2248 1.99353 25.1381 2.16688 24.9648 2.16688Z" fill="#00A3C8"/>
<path d="M25.6558 2.86032C25.4825 2.86032 25.3091 2.68695 25.3091 2.5136V2.08022H21.4952V2.5136C21.4952 2.68695 21.3219 2.86032 21.1485 2.86032C20.9751 2.86032 20.8018 2.68695 20.8018 2.5136V1.82021C20.8018 1.64686 20.9751 1.47351 21.1485 1.47351H25.6558C25.8292 1.47351 26.0026 1.64686 26.0026 1.82021V2.5136C26.0026 2.68695 25.8292 2.86032 25.6558 2.86032Z" fill="#00A3C8"/>
<path d="M10.0541 34.1499C6.84695 34.1499 4.24658 31.5497 4.24658 28.3427C4.24658 25.1357 6.84695 22.5355 10.0541 22.5355C13.2613 22.5355 15.8617 25.1357 15.8617 28.3427C15.9484 31.5497 13.2613 34.1499 10.0541 34.1499ZM10.0541 23.1422C7.19367 23.1422 4.8533 25.4824 4.8533 28.3427C4.8533 31.203 7.19367 33.5432 10.0541 33.5432C12.9146 33.5432 15.2549 31.203 15.2549 28.3427C15.2549 25.4824 12.9146 23.1422 10.0541 23.1422Z" fill="#00A3C8"/>
<path d="M10.0548 31.3764C8.40788 31.3764 7.021 29.9896 7.021 28.3428C7.021 26.6959 8.40788 25.3091 10.0548 25.3091C11.7017 25.3091 13.0886 26.6959 13.0886 28.3428C13.0886 28.5161 12.9153 28.6895 12.7419 28.6895C12.5686 28.6895 12.3952 28.5161 12.3952 28.3428C12.3952 27.0426 11.355 26.0025 10.0548 26.0025C8.7546 26.0025 7.71448 27.0426 7.71448 28.3428C7.71448 29.6429 8.7546 30.683 10.0548 30.683C10.2282 30.683 10.4015 30.8564 10.4015 31.0297C10.4015 31.2031 10.2282 31.3764 10.0548 31.3764Z" fill="#00A3C8"/>
<path d="M39.1801 34.1499C35.973 34.1499 33.3726 31.5497 33.3726 28.3427C33.3726 25.1357 35.973 22.5355 39.1801 22.5355C42.3873 22.5355 44.9877 25.1357 44.9877 28.3427C45.0744 31.5497 42.3873 34.1499 39.1801 34.1499ZM39.1801 23.1422C36.3197 23.1422 33.9793 25.4824 33.9793 28.3427C33.9793 31.203 36.3197 33.5432 39.1801 33.5432C42.0406 33.5432 44.381 31.203 44.381 28.3427C44.381 25.4824 42.0406 23.1422 39.1801 23.1422Z" fill="#00A3C8"/>
<path d="M39.1783 31.3764C37.5314 31.3764 36.1445 29.9896 36.1445 28.3428C36.1445 26.6959 37.5314 25.3091 39.1783 25.3091C40.8253 25.3091 42.2121 26.6959 42.2121 28.3428C42.2121 28.5161 42.0388 28.6895 41.8654 28.6895C41.692 28.6895 41.5187 28.5161 41.5187 28.3428C41.5187 27.0426 40.4785 26.0025 39.1783 26.0025C37.8781 26.0025 36.838 27.0426 36.838 28.3428C36.838 29.6429 37.8781 30.683 39.1783 30.683C39.3517 30.683 39.525 30.8564 39.525 31.0297C39.525 31.2031 39.3517 31.3764 39.1783 31.3764Z" fill="#00A3C8"/>
<path d="M14.129 16.8149C14.0423 16.8149 13.9557 16.8149 13.869 16.7282L11.7886 14.0413C11.702 13.9546 11.702 13.7813 11.7886 13.6946L17.5096 5.20043C17.5962 5.11376 17.6829 5.0271 17.7696 5.0271H24.3573C24.5306 5.0271 24.704 5.20044 24.704 5.37379V16.4682C24.704 16.6416 24.5306 16.8149 24.3573 16.8149C24.1839 16.8149 24.0106 16.6416 24.0106 16.4682V5.63381H17.943L12.4821 13.7813L14.389 16.2949C14.4757 16.4682 14.4757 16.6416 14.3024 16.7282C14.3024 16.8149 14.2157 16.8149 14.129 16.8149Z" fill="#00A3C8"/>
<path d="M43.687 16.8149C43.5136 16.8149 43.3402 16.6416 43.3402 16.4682V5.63381H26.2642V16.4682C26.2642 16.6416 26.0909 16.8149 25.9175 16.8149C25.7442 16.8149 25.5708 16.6416 25.5708 16.4682V5.37379C25.5708 5.20044 25.7442 5.0271 25.9175 5.0271H43.687C43.8603 5.0271 44.0337 5.20044 44.0337 5.37379V16.4682C43.947 16.6416 43.8603 16.8149 43.687 16.8149Z" fill="#00A3C8"/>
<path d="M2.94715 28.0829H0.346742C0.173381 28.0829 0 27.9095 0 27.7362V22.7957C0 22.6223 0.173381 22.449 0.346742 22.449H2.94715C3.12051 22.449 3.29384 22.6223 3.29384 22.7957C3.29384 22.969 3.12051 23.1424 2.94715 23.1424H0.606772V27.3895H2.94715C3.12051 27.3895 3.29384 27.5628 3.29384 27.7362C3.29384 27.9095 3.12051 28.0829 2.94715 28.0829Z" fill="#00A3C8"/>
<path d="M50.2742 28.0829H46.2002C46.0268 28.0829 45.8535 27.9095 45.8535 27.7362C45.8535 27.5628 46.0268 27.3895 46.2002 27.3895H49.9274V23.1424H46.2002C46.0268 23.1424 45.8535 22.969 45.8535 22.7957C45.8535 22.6223 46.0268 22.449 46.2002 22.449H50.2742C50.4475 22.449 50.6209 22.6223 50.6209 22.7957V27.7362C50.6209 27.9095 50.4475 28.0829 50.2742 28.0829Z" fill="#00A3C8"/>
<path d="M46.2007 28.0828H46.0274C45.854 28.0828 45.6807 27.9094 45.6807 27.7361C45.6807 27.5627 45.854 27.3894 46.0274 27.3894H46.2007C46.3741 27.3894 46.5475 27.5627 46.5475 27.7361C46.5475 27.9094 46.3741 28.0828 46.2007 28.0828Z" fill="#00A3C8"/>
<path d="M32.331 28.0828H16.9019C16.7286 28.0828 16.5552 27.9094 16.5552 27.7361C16.5552 27.5627 16.7286 27.3894 16.9019 27.3894H32.331C32.5043 27.3894 32.6777 27.5627 32.6777 27.7361C32.6777 27.9094 32.5043 28.0828 32.331 28.0828Z" fill="#00A3C8"/>
<path d="M3.20736 28.0828H2.94733C2.77397 28.0828 2.60059 27.9094 2.60059 27.7361C2.60059 27.5627 2.77397 27.3894 2.94733 27.3894H3.20736C3.38072 27.3894 3.55405 27.5627 3.55405 27.7361C3.55405 27.9094 3.38072 28.0828 3.20736 28.0828Z" fill="#00A3C8"/>
<path d="M3.63962 23.1422H2.33942C2.16606 23.1422 1.99268 22.9689 1.99268 22.7955V18.9818C1.99268 16.9016 3.63959 14.7347 5.71991 14.128L10.0539 12.9145L15.2547 4.94042C16.6416 2.6002 19.5021 2.16681 21.149 2.16681C21.3224 2.16681 21.4957 2.34015 21.4957 2.5135C21.4957 2.68685 21.3224 2.86023 21.149 2.86023C19.6755 2.9469 16.9884 3.2936 15.7748 5.3738L10.4873 13.5213C10.4873 13.6079 10.4007 13.6079 10.314 13.6946L5.89328 14.9081C4.15968 15.4281 2.68611 17.2483 2.68611 19.1551V22.6222H3.72628C3.89964 22.6222 4.07302 22.7955 4.07302 22.9688C4.07302 23.1422 3.81298 23.1422 3.63962 23.1422Z" fill="#00A3C8"/>
<path d="M48.3675 23.1422H46.2872C46.1138 23.1422 45.9404 22.9689 45.9404 22.7955C45.9404 22.6222 46.1138 22.4488 46.2872 22.4488H48.1074V9.62089C48.1074 5.72051 45.3337 2.77356 41.6064 2.77356H25.6572C25.4839 2.77356 25.3105 2.60021 25.3105 2.42686C25.3105 2.25351 25.4839 2.08014 25.6572 2.08014H41.6064C45.6804 2.08014 48.7142 5.28713 48.7142 9.53421V22.6222C48.7142 22.9689 48.5408 23.1422 48.3675 23.1422Z" fill="#00A3C8"/>
<path d="M36.5801 15.4283H33.2862C33.1129 15.4283 32.9395 15.2549 32.9395 15.0816V12.7414H30.5991C30.4258 12.7414 30.2524 12.568 30.2524 12.3947V9.18768C30.2524 9.01433 30.4258 8.84099 30.5991 8.84099H32.9395V6.50075C32.9395 6.3274 33.1129 6.15405 33.2862 6.15405H36.5801C36.7534 6.15405 36.9268 6.3274 36.9268 6.50075V8.84099H39.2671C39.4405 8.84099 39.6139 9.01433 39.6139 9.18768V12.4813C39.6139 12.6547 39.4405 12.8281 39.2671 12.8281H36.8401V15.1683C36.8401 15.3416 36.7534 15.4283 36.5801 15.4283ZM33.6329 14.8216H36.2333V12.4813C36.2333 12.308 36.4067 12.1346 36.5801 12.1346H38.9205V9.53438H36.5801C36.4067 9.53438 36.2333 9.36103 36.2333 9.18768V6.84744H33.6329V9.18768C33.6329 9.36103 33.4596 9.53438 33.2862 9.53438H30.9459V12.1346H33.2862C33.4596 12.1346 33.6329 12.308 33.6329 12.4813V14.8216Z" fill="#00A3C8"/>
<path d="M47.0668 17.8549H4.5069C4.33354 17.8549 4.16016 17.6815 4.16016 17.5082C4.16016 17.3348 4.33354 17.1615 4.5069 17.1615H47.0668C47.2402 17.1615 47.4136 17.3348 47.4136 17.5082C47.4136 17.6815 47.2402 17.8549 47.0668 17.8549Z" fill="#00A3C8"/>
<path d="M47.0677 19.8486H3.90094C3.72758 19.8486 3.5542 19.6753 3.5542 19.5019C3.5542 19.3286 3.72758 19.1552 3.90094 19.1552H47.0677C47.241 19.1552 47.4144 19.3286 47.4144 19.5019C47.4144 19.6753 47.241 19.8486 47.0677 19.8486Z" fill="#00A3C8"/>
</svg>
