<svg width="52" height="32" viewBox="0 0 52 32" fill="none" xmlns="http://www.w3.org/2000/svg">
<path d="M16.7201 4.09868C16.7306 3.62254 16.8428 3.17145 17.0371 2.76703C17.0024 2.76488 16.9679 2.76172 16.9326 2.76172H15.255H12.3402H11.8819C11.0737 2.76172 10.3996 3.33552 10.2446 4.09792C10.2545 4.0983 10.2615 4.09855 10.2615 4.09855H16.7201V4.09868Z" fill="#2B3237"/>
<path d="M16.7183 4.17119C16.7183 4.14665 16.7195 4.12236 16.7202 4.09794H10.2615C10.2615 4.09794 10.2546 4.09769 10.2447 4.09731C10.0051 4.08782 6.97233 4.01193 5.63259 6.12331C4.23718 8.32223 3.86389 10.0682 1.77338 13.2949C0.201765 15.6567 0.0470573 16.7511 0.0470573 18.1635C0.0470573 19.5761 0 20.557 0 23.1224C0 25.6878 1.60286 26.7134 3.88565 26.7134C4.28032 26.7134 5.03349 26.7134 6.00867 26.7134C6.07647 24.0342 8.26767 21.8828 10.9632 21.8828C13.6588 21.8828 15.8501 24.0342 15.9179 26.7134C16.1922 26.7134 16.4598 26.7134 16.7183 26.7134V4.17119ZM14.8591 16.5504C14.8591 16.5504 6.68252 16.524 5.94276 16.5216C5.203 16.5192 4.31865 15.6568 4.99073 14.1768C5.8933 12.3508 6.94146 10.3673 7.39268 9.65615C8.18747 8.40369 10.0297 8.50249 10.0297 8.50249H14.89L14.8591 16.5504Z" fill="#D43D21"/>
<path d="M10.963 21.8447C8.24631 21.8447 6.03778 24.0129 5.9696 26.7131C5.96859 26.7559 5.96631 26.7984 5.96631 26.8414C5.96631 29.6011 8.2033 31.8381 10.963 31.8381C13.7227 31.8381 15.9597 29.6011 15.9597 26.8414C15.9597 26.7984 15.9575 26.7559 15.9565 26.7131C15.8881 24.0129 13.6797 21.8447 10.963 21.8447ZM13.6191 26.8414C13.6191 28.3083 12.43 29.4974 10.963 29.4974C9.49611 29.4974 8.3069 28.3083 8.3069 26.8414C8.3069 25.3745 9.49611 24.1853 10.963 24.1853C12.43 24.1853 13.6191 25.3745 13.6191 26.8414Z" fill="#1B2327"/>
<path d="M10.9634 29.5605C12.4654 29.5605 13.6831 28.3429 13.6831 26.8408C13.6831 25.3388 12.4654 24.1211 10.9634 24.1211C9.46131 24.1211 8.24365 25.3388 8.24365 26.8408C8.24365 28.3429 9.46131 29.5605 10.9634 29.5605Z" fill="#2B3237"/>
<path d="M7.39269 9.65647C6.94148 10.3676 5.89318 12.3511 4.99075 14.1771C4.31866 15.6572 5.20314 16.5196 5.94277 16.5219C6.68253 16.5243 14.8591 16.5508 14.8591 16.5508L14.89 8.50281H10.0295C10.0295 8.50281 8.18748 8.40402 7.39269 9.65647Z" fill="white"/>
<path d="M48.753 0.924805H19.9655C18.6753 0.924805 17.561 1.67722 17.0372 2.76712C16.8429 3.17154 16.5918 3.9256 16.5918 4.17201V26.7142L34.6513 26.7287C34.6513 26.7237 34.6509 26.7191 34.6509 26.7141C34.6509 23.9759 36.8705 21.7563 39.6088 21.7563C42.347 21.7563 44.5666 23.9758 44.5666 26.7141C44.5666 26.7217 44.5661 26.729 44.566 26.7366L48.753 26.7401C50.5462 26.7401 52 25.2863 52 23.493V4.17201C52 2.37865 50.5462 0.924805 48.753 0.924805ZM38.544 12.942C38.544 13.6288 37.9874 14.1854 37.3006 14.1854H35.3266V16.1594C35.3266 16.8463 34.77 17.403 34.0831 17.403H33.2517C32.565 17.403 32.0081 16.8463 32.0081 16.1594V14.1854H30.034C29.3476 14.1854 28.7907 13.6288 28.7907 12.942V12.1104C28.7907 11.4238 29.3476 10.8671 30.034 10.8671H32.008V8.89318C32.008 8.2063 32.5649 7.6497 33.2516 7.6497H34.083C34.7698 7.6497 35.3264 8.2063 35.3264 8.89318V10.8671H37.3004C37.9873 10.8671 38.5439 11.4238 38.5439 12.1104V12.942H38.544Z" fill="#E74424"/>
<path d="M39.609 21.7168C36.8493 21.7168 34.6123 23.9538 34.6123 26.7135C34.6123 26.7184 34.6127 26.7232 34.6127 26.7281C34.6207 29.481 36.8542 31.7102 39.609 31.7102C42.361 31.7102 44.5928 29.4854 44.605 26.7361C44.6052 26.7285 44.6057 26.7211 44.6057 26.7135C44.6057 23.9538 42.3685 21.7168 39.609 21.7168ZM39.609 29.3694C38.1421 29.3694 36.9529 28.1803 36.9529 26.7135C36.9529 25.2466 38.1421 24.0574 39.609 24.0574C41.0759 24.0574 42.2651 25.2466 42.2651 26.7135C42.2651 28.1803 41.0759 29.3694 39.609 29.3694Z" fill="#1B2327"/>
<path d="M39.6089 29.4336C41.1109 29.4336 42.3286 28.2159 42.3286 26.7139C42.3286 25.2118 41.1109 23.9941 39.6089 23.9941C38.1068 23.9941 36.8892 25.2118 36.8892 26.7139C36.8892 28.2159 38.1068 29.4336 39.6089 29.4336Z" fill="#2B3237"/>
<path d="M15.2551 1.30979C15.2551 0.676416 14.6026 0.163086 13.7977 0.163086C12.9928 0.163086 12.3403 0.676542 12.3403 1.30979V2.76149H15.2551V1.30979Z" fill="#E74424"/>
<path d="M37.3004 10.8668H35.3264V8.89289C35.3264 8.20601 34.7698 7.64941 34.083 7.64941H33.2516C32.5649 7.64941 32.008 8.20601 32.008 8.89289V10.8668H30.0339C29.3475 10.8668 28.7905 11.4235 28.7905 12.1101V12.9417C28.7905 13.6285 29.3475 14.1851 30.0339 14.1851H32.0079V16.1591C32.0079 16.846 32.5647 17.4027 33.2515 17.4027H34.0828C34.7697 17.4027 35.3263 16.846 35.3263 16.1591V14.1851H37.3003C37.9872 14.1851 38.5438 13.6285 38.5438 12.9417V12.1101C38.5439 11.4236 37.9873 10.8668 37.3004 10.8668Z" fill="#F7F1E6"/>
</svg>
