<svg width="52" height="52" viewBox="0 0 52 52" fill="none" xmlns="http://www.w3.org/2000/svg">
<g clip-path="url(#clip0_108_939)">
<path d="M42.7529 23.6364C42.7529 37.9841 35.2888 52 26.0001 52C16.7944 52 9.24731 37.1547 9.24731 22.807C9.24731 8.45933 16.7114 0 26.0001 0C35.2058 0.0829346 42.7529 9.28868 42.7529 23.6364Z" fill="#F75959"/>
<path d="M26 0.0830078C35.2057 0.0830078 42.7528 9.28875 42.7528 23.6364C42.7528 37.9841 35.2887 52.0001 26 52.0001" fill="#E23939"/>
<path d="M36.9475 14.2648C36.9475 20.319 32.0543 27.2026 26.0001 27.2026C19.9459 27.2026 15.0527 20.319 15.0527 14.2648C15.0527 8.21053 19.9459 3.31738 26.0001 3.31738C32.0543 3.31738 36.9475 8.21053 36.9475 14.2648Z" fill="#CE2828"/>
<path d="M36.9475 14.2648C36.9475 20.319 32.0543 22.7241 26.0001 22.7241C19.9459 22.7241 15.0527 20.319 15.0527 14.2648C15.0527 8.21053 19.9459 3.31738 26.0001 3.31738C32.0543 3.31738 36.9475 8.21053 36.9475 14.2648Z" fill="#FFC3A9"/>
<path d="M26.083 3.23438C32.1372 3.23438 37.0304 8.12752 37.0304 14.1817C37.0304 20.236 32.1372 22.6411 26.083 22.6411" fill="#F2AF97"/>
<path d="M21.6875 6.88379C20.9411 6.96672 20.3605 7.21553 20.4434 7.6302L23.0974 7.46433C23.0144 7.13259 22.4339 6.88379 21.6875 6.88379Z" fill="#00233F"/>
<path d="M30.3127 6.88379C31.0591 6.96672 31.6397 7.21553 31.5567 7.6302L28.9028 7.46433C28.9858 7.13259 29.5663 6.88379 30.3127 6.88379Z" fill="#00233F"/>
<path d="M21.1898 12.6895C19.4482 12.6895 18.0383 13.1041 18.0383 13.6017C18.0383 14.0993 19.4482 13.8505 21.1898 13.8505C22.9315 13.8505 24.3414 14.0993 24.3414 13.6017C24.3414 13.1041 22.9315 12.6895 21.1898 12.6895Z" fill="#FCD4C5"/>
<path d="M30.8102 12.6895C29.0686 12.6895 27.6587 13.1041 27.6587 13.6017C27.6587 14.0993 29.0686 13.8505 30.8102 13.8505C32.5518 13.8505 33.9617 14.0993 33.9617 13.6017C33.8788 13.1041 32.5518 12.6895 30.8102 12.6895Z" fill="#FCD4C5"/>
<path d="M23.1802 12.0253C23.1802 12.6887 22.5996 13.2693 21.9362 13.2693C21.2727 13.2693 20.6921 12.6887 20.6921 12.0253C20.6921 11.3618 21.2727 10.7812 21.9362 10.7812C22.5996 10.7812 23.1802 11.3618 23.1802 12.0253Z" fill="#E59177"/>
<path d="M31.4736 12.0253C31.4736 12.6887 30.8931 13.2693 30.2296 13.2693C29.5661 13.2693 28.9856 12.6887 28.9856 12.0253C28.9856 11.3618 29.5661 10.7812 30.2296 10.7812C30.976 10.7812 31.4736 11.3618 31.4736 12.0253Z" fill="#E59177"/>
<path d="M23.1802 11.6942C23.1802 12.3577 22.5996 12.9382 21.9362 12.9382C21.2727 12.9382 20.6921 12.3577 20.6921 11.6942C20.6921 11.0307 21.2727 10.4502 21.9362 10.4502C22.5996 10.4502 23.1802 10.9478 23.1802 11.6942Z" fill="#1E4784"/>
<path d="M21.9363 10.4502C22.6827 10.4502 23.1803 11.0307 23.1803 11.6942C23.1803 12.3577 22.5998 12.9382 21.9363 12.9382" fill="#00233F"/>
<path d="M31.4736 11.6942C31.4736 12.3577 30.8931 12.9382 30.2296 12.9382C29.5661 12.9382 28.9856 12.3577 28.9856 11.6942C28.9856 11.0307 29.5661 10.4502 30.2296 10.4502C30.976 10.4502 31.4736 10.9478 31.4736 11.6942Z" fill="#1E4784"/>
<path d="M30.2297 10.4502C30.9761 10.4502 31.4738 11.0307 31.4738 11.6942C31.4738 12.3577 30.8932 12.9382 30.2297 12.9382" fill="#00233F"/>
<path d="M27.0782 18.3282C27.0782 19.4893 26.5806 20.5674 26 20.5674C25.4195 20.5674 24.9219 19.5722 24.9219 18.3282C24.9219 17.0842 25.4195 16.1719 26 16.1719C26.5806 16.1719 27.0782 17.1671 27.0782 18.3282Z" fill="#DB917B"/>
<path d="M27.0782 18.3282C27.0782 19.4893 26.5806 19.6551 26 19.6551C25.4195 19.6551 24.9219 19.4893 24.9219 18.3282C24.9219 17.1671 25.4195 16.1719 26 16.1719C26.5806 16.1719 27.0782 17.1671 27.0782 18.3282Z" fill="#A51339"/>
<path d="M24.9219 18.3282C24.9219 17.1671 25.4195 16.1719 26 16.1719C26.5806 16.1719 27.0782 17.1671 27.0782 18.3282" fill="#820C30"/>
<path d="M25.9999 19.4065C26.8244 19.4065 27.4927 18.7382 27.4927 17.9137C27.4927 17.0893 26.8244 16.4209 25.9999 16.4209C25.1754 16.4209 24.5071 17.0893 24.5071 17.9137C24.5071 18.7382 25.1754 19.4065 25.9999 19.4065Z" fill="#12D6BF"/>
<path d="M26 16.3379C26.8293 16.3379 27.4928 17.0014 27.4928 17.8307C27.4928 18.6601 26.8293 19.4065 26 19.4065" fill="#02B5B0"/>
<path d="M26 18.7437C26.458 18.7437 26.8293 18.3723 26.8293 17.9143C26.8293 17.4563 26.458 17.085 26 17.085C25.542 17.085 25.1707 17.4563 25.1707 17.9143C25.1707 18.3723 25.542 18.7437 26 18.7437Z" fill="#12D6BF"/>
<path d="M25.1707 17.9143C25.1707 17.4996 25.5024 17.085 26 17.085C26.4147 17.085 26.8293 17.4167 26.8293 17.9143" fill="#02B5B0"/>
<path d="M27.9905 18.9096C28.4881 19.4901 28.1563 19.573 27.9075 19.8218C27.6587 20.0706 27.5758 20.4024 26.9952 19.8218C26.4976 19.2413 25.6683 17.9973 25.9171 17.7485C26.2488 17.4997 27.4929 18.329 27.9905 18.9096Z" fill="#1398D3"/>
<path d="M26 17.7485C26.2488 17.4997 27.4928 18.329 27.9904 18.9096C28.488 19.4901 28.1563 19.573 27.9075 19.8218" fill="#036E93"/>
<path d="M30.1467 4.14697C30.1467 5.05925 28.3222 4.97632 26 4.97632C23.6778 4.97632 21.8533 5.05925 21.8533 4.14697C21.8533 3.23469 23.6778 2.48828 26 2.48828C28.3222 2.48828 30.1467 3.31763 30.1467 4.14697Z" fill="#1E4784"/>
<path d="M30.1467 4.14648C30.1467 5.05877 28.3222 4.97583 26 4.97583C23.6778 4.97583 21.8533 5.05877 21.8533 4.14648" fill="#00233F"/>
<path d="M27.327 2.65405C26.083 2.48818 25.1707 1.5759 25.3366 0.580689C25.3366 0.414819 25.4196 0.331885 25.4196 0.166016C24.839 0.414819 24.5073 0.912427 24.4243 1.5759C24.2585 2.57112 25.0049 3.40047 25.9172 3.56633C26.6636 3.64927 27.327 3.31753 27.6588 2.73699C27.5758 2.65405 27.4929 2.65405 27.327 2.65405Z" fill="#1E4784"/>
<path d="M31.7225 35.9107C31.7225 42.3796 27.6587 49.7608 25.5853 49.7608C23.512 49.7608 22.6826 42.8772 22.6826 36.4083C22.6826 29.9394 23.6778 26.0415 25.7512 26.0415C27.8246 25.9586 31.7225 29.4418 31.7225 35.9107Z" fill="#F75959"/>
<path d="M26.4146 24.6313C25.5023 24.6313 21.6044 23.8849 20.9409 25.5436C22.5996 27.2023 25.9999 27.3682 29.1514 34.3347C31.6395 39.7254 27.4928 48.1848 25.5853 49.7605C25.7511 49.8435 25.3365 49.7605 25.5853 49.7605C27.6586 49.7605 32.3859 42.2964 32.3859 35.8275C32.303 29.2757 28.488 24.6313 26.4146 24.6313Z" fill="#CE2828"/>
<path d="M18.5176 35.8456C16.285 30.0298 13.331 25.7543 11.9198 26.296C10.5086 26.8378 11.1745 31.9916 13.4072 37.8074C15.6398 43.6232 18.5937 47.8987 20.0049 47.357C21.4161 46.8152 20.7502 41.6614 18.5176 35.8456Z" fill="#FC8D8D"/>
<path d="M12.2329 24.1342C13.0115 24.1342 13.6428 23.503 13.6428 22.7243C13.6428 21.9457 13.0115 21.3145 12.2329 21.3145C11.4542 21.3145 10.823 21.9457 10.823 22.7243C10.823 23.503 11.4542 24.1342 12.2329 24.1342Z" fill="#FC8D8D"/>
<path d="M11.9841 18.9095C12.4879 18.9095 12.8963 18.5011 12.8963 17.9972C12.8963 17.4934 12.4879 17.085 11.9841 17.085C11.4802 17.085 11.0718 17.4934 11.0718 17.9972C11.0718 18.5011 11.4802 18.9095 11.9841 18.9095Z" fill="#FC8D8D"/>
</g>
<defs>
<clipPath id="clip0_108_939">
<rect width="52" height="52" fill="white"/>
</clipPath>
</defs>
</svg>
