<svg width="30" height="30" viewBox="0 0 30 30" fill="none" xmlns="http://www.w3.org/2000/svg">
<path d="M21.8057 30C20.8379 30 19.991 29.6371 19.2652 28.9113L0.998042 10.6452C-0.33268 9.31452 -0.33268 7.01613 0.998042 5.68548L5.59507 1.08871C6.32091 0.362905 7.16778 0 8.13558 0C9.10338 0 9.95017 0.362905 10.676 1.08871L28.9432 19.3548C30.2739 20.6855 30.2739 22.9839 28.9432 24.3145L24.3462 28.9113C23.6203 29.6371 22.7735 30 21.8057 30ZM8.13558 0.604839C7.28876 0.604839 6.56285 0.967743 5.95798 1.45161L1.36095 6.04839C0.151204 7.25806 0.151204 9.07258 1.36095 10.2823L19.6282 28.5484C20.2331 29.1532 20.9589 29.3952 21.8057 29.3952C22.6525 29.3952 23.3784 29.0323 23.9832 28.5484L28.5803 23.9516C29.79 22.7419 29.79 20.9274 28.5803 19.7177L10.3131 1.45161C9.70824 0.846775 8.9824 0.604839 8.13558 0.604839Z" fill="white"/>
<path d="M9.3459 17.5403C9.22493 17.5403 9.22491 17.5403 9.10394 17.4194C8.37809 16.6936 8.01514 15.8468 8.01514 14.879C8.01514 13.9113 8.37809 13.0645 9.10394 12.3387L12.3703 9.07259C13.0961 8.34679 13.9429 7.98389 14.9107 7.98389C15.8785 7.98389 16.7253 8.34679 17.4512 9.07259C17.5721 9.19356 17.5721 9.31453 17.4512 9.4355C17.3302 9.55647 17.2092 9.55647 17.0882 9.4355C16.4834 8.83066 15.7575 8.58873 14.9107 8.58873C14.0639 8.58873 13.3381 8.95163 12.7332 9.4355L9.46685 12.7016C8.86197 13.3065 8.62001 14.0323 8.62001 14.879C8.62001 15.7258 8.98295 16.4516 9.46685 17.0565C9.58782 17.1774 9.58782 17.2984 9.46685 17.4194C9.46685 17.5403 9.46688 17.5403 9.3459 17.5403Z" fill="white"/>
<path d="M14.91 21.7742C13.9422 21.7742 13.0954 21.4113 12.3695 20.6855C12.2486 20.5645 12.2486 20.4436 12.3695 20.3226C12.4905 20.2016 12.6115 20.2016 12.7324 20.3226C13.3373 20.9274 14.0632 21.1694 14.91 21.1694C15.7568 21.1694 16.4826 20.8065 17.0875 20.3226L20.3538 17.0565C20.9587 16.4516 21.2007 15.7258 21.2007 14.879C21.2007 14.0323 20.8377 13.3065 20.3538 12.7016C20.2329 12.5806 20.2329 12.4597 20.3538 12.3387C20.4748 12.2177 20.5958 12.2177 20.7168 12.3387C21.4426 13.0645 21.8056 13.9113 21.8056 14.879C21.8056 15.8468 21.4426 16.6936 20.7168 17.4194L17.4504 20.6855C16.8455 21.4113 15.8778 21.7742 14.91 21.7742Z" fill="white"/>
<path d="M15.7562 10.7661C15.6352 10.7661 15.3933 10.6452 15.2723 10.5242C15.0303 10.2823 15.0303 9.91935 15.2723 9.55645C15.5142 9.31452 15.9981 9.31452 16.2401 9.55645C16.361 9.67742 16.482 9.79839 16.482 10.0403C16.482 10.1613 16.361 10.4032 16.2401 10.5242C15.9981 10.7661 15.8772 10.7661 15.7562 10.7661ZM15.7562 10.0403C15.6352 10.0403 15.6352 10.0403 15.7562 10.0403C15.6352 10.1613 15.6352 10.1613 15.6352 10.2823H15.7562C15.8772 10.1613 15.8772 10.0403 15.7562 10.0403Z" fill="white"/>
<path d="M17.8129 12.9436C17.6919 12.9436 17.4499 12.8226 17.3289 12.7016C17.087 12.4597 17.087 12.0968 17.3289 11.7339C17.5709 11.4919 18.0548 11.4919 18.2967 11.7339C18.4177 11.8548 18.5387 11.9758 18.5387 12.2178C18.5387 12.3387 18.4177 12.5807 18.2967 12.7016C18.1757 12.8226 18.0548 12.9436 17.8129 12.9436ZM17.8129 12.2178C17.6919 12.3387 17.6918 12.3387 17.6918 12.4597C17.6918 12.4597 17.8129 12.5807 17.8129 12.4597C17.9338 12.3387 17.9338 12.2178 17.8129 12.2178C17.9338 12.2178 17.9338 12.2178 17.8129 12.2178Z" fill="white"/>
<path d="M19.9906 15.121C19.8696 15.121 19.6276 15 19.5067 14.879C19.2647 14.6371 19.2647 14.1532 19.5067 13.9113C19.7486 13.6693 20.2325 13.6693 20.4744 13.9113C20.5954 14.0322 20.7164 14.1532 20.7164 14.3952C20.7164 14.5161 20.5954 14.7581 20.4744 14.879C20.3535 15 20.2325 15.121 19.9906 15.121ZM19.9906 14.3952C19.8696 14.5161 19.8696 14.5161 19.8696 14.6371H19.9906C20.1116 14.5161 20.1116 14.3952 19.9906 14.3952C20.1116 14.3952 19.9906 14.3952 19.9906 14.3952Z" fill="white"/>
<path d="M12.8528 13.3064C12.7318 13.3064 12.4899 13.1855 12.369 13.0645C12.127 12.8226 12.127 12.3387 12.369 12.0968C12.6109 11.8548 13.0948 11.8548 13.3367 12.0968C13.5787 12.3387 13.5787 12.8226 13.3367 13.0645C13.2158 13.3064 13.0948 13.3064 12.8528 13.3064ZM12.8528 12.5806C12.7318 12.7016 12.7319 12.7016 12.7319 12.8226H12.8528C12.9738 12.7016 12.9738 12.7016 12.8528 12.5806C12.9738 12.5806 12.8528 12.5806 12.8528 12.5806Z" fill="white"/>
<path d="M15.0305 15.4838C14.9095 15.4838 14.6676 15.3629 14.5467 15.2419C14.4257 15.1209 14.3047 15 14.3047 14.758C14.3047 14.6371 14.4257 14.3951 14.5467 14.2742C14.7886 14.0322 15.2725 14.0322 15.5144 14.2742C15.6354 14.3951 15.7564 14.5161 15.7564 14.758C15.7564 14.879 15.6354 15.1209 15.5144 15.2419C15.3935 15.4838 15.2725 15.4838 15.0305 15.4838ZM15.0305 14.758C14.9095 14.758 14.9095 14.879 15.0305 14.758C14.9095 14.879 14.9096 14.879 14.9096 15H15.0305C15.1515 14.879 15.1515 14.879 15.0305 14.758C15.1515 14.879 15.1515 14.758 15.0305 14.758C15.1515 14.758 15.0305 14.758 15.0305 14.758Z" fill="white"/>
<path d="M17.2084 17.6613C17.0874 17.6613 16.8454 17.5403 16.7244 17.4194C16.4825 17.1774 16.4825 16.8145 16.7244 16.4516C16.9664 16.2097 17.4503 16.2097 17.6922 16.4516C17.9342 16.6936 17.9342 17.1774 17.6922 17.4194C17.5712 17.5403 17.3293 17.6613 17.2084 17.6613ZM17.2084 16.9355C17.0874 17.0565 17.0873 17.0565 17.0873 17.1774H17.2084C17.3293 17.0565 17.3293 16.9355 17.2084 16.9355Z" fill="white"/>
<path d="M10.3128 16.0887C10.1918 16.0887 9.94985 15.9677 9.82888 15.8468C9.7079 15.7258 9.58691 15.6048 9.58691 15.3629C9.58691 15.121 9.7079 15 9.82888 14.879C10.0708 14.6371 10.5547 14.6371 10.7967 14.879C10.9176 15 11.0386 15.121 11.0386 15.3629C11.0386 15.6048 10.9176 15.7258 10.7967 15.8468C10.6757 16.0887 10.5548 16.0887 10.3128 16.0887ZM10.3128 15.3629C10.1918 15.4839 10.1918 15.4839 10.3128 15.3629C10.1918 15.4839 10.1918 15.4839 10.1918 15.6048H10.3128C10.4338 15.6048 10.4338 15.4839 10.3128 15.3629C10.4338 15.4839 10.4338 15.4839 10.3128 15.3629C10.4338 15.3629 10.3128 15.3629 10.3128 15.3629Z" fill="white"/>
<path d="M12.4906 18.2661C12.3696 18.2661 12.1276 18.1452 12.0067 18.0242C11.7647 17.7823 11.7647 17.2984 12.0067 17.0565C12.2486 16.8145 12.7326 16.8145 12.9745 17.0565C13.2165 17.2984 13.2165 17.7823 12.9745 18.0242C12.8535 18.2661 12.6116 18.2661 12.4906 18.2661ZM12.4906 17.5403C12.3696 17.6613 12.3696 17.6613 12.3696 17.7823H12.4906C12.6116 17.6613 12.6116 17.6613 12.4906 17.5403Z" fill="white"/>
<path d="M14.6687 20.4435C14.5478 20.4435 14.3059 20.3226 14.1849 20.2016C13.9429 19.9597 13.9429 19.4758 14.1849 19.2339C14.4268 18.9919 14.9107 18.9919 15.1527 19.2339C15.3946 19.4758 15.3946 19.9597 15.1527 20.2016C15.0317 20.4435 14.7897 20.4435 14.6687 20.4435ZM14.6687 19.7177C14.6687 19.7177 14.5478 19.7177 14.6687 19.7177C14.5478 19.8387 14.5478 19.8387 14.5478 19.9597H14.6687C14.7897 19.8387 14.7897 19.8387 14.6687 19.7177Z" fill="white"/>
<path d="M13.2161 11.0081C13.0951 11.0081 12.8532 10.8871 12.7322 10.7661C12.4903 10.5242 12.4903 10.0403 12.7322 9.79839C12.8532 9.67743 12.9741 9.55646 13.2161 9.55646C13.3371 9.55646 13.5791 9.67743 13.7 9.79839C13.942 10.0403 13.942 10.5242 13.7 10.7661C13.5791 10.8871 13.3371 11.0081 13.2161 11.0081ZM13.2161 10.1613C13.2161 10.1613 13.0951 10.1613 13.2161 10.1613C13.0951 10.2823 13.0952 10.2823 13.0952 10.4032H13.2161C13.3371 10.4032 13.3371 10.2823 13.2161 10.1613Z" fill="white"/>
<path d="M15.3934 13.0645C15.2724 13.0645 15.0305 12.9436 14.9095 12.8226C14.6675 12.5807 14.6675 12.0968 14.9095 11.8549C15.1514 11.6129 15.6353 11.6129 15.8773 11.8549C16.1192 12.0968 16.1192 12.5807 15.8773 12.8226C15.7563 13.0645 15.5144 13.0645 15.3934 13.0645ZM15.3934 12.3387C15.3934 12.3387 15.2724 12.3387 15.3934 12.3387C15.2724 12.4597 15.2724 12.4597 15.2724 12.5807H15.3934C15.5144 12.4597 15.5144 12.4597 15.3934 12.3387Z" fill="white"/>
<path d="M17.5711 15.2419C17.4501 15.2419 17.2082 15.1209 17.0872 15C16.9662 14.879 16.8452 14.758 16.8452 14.5161C16.8452 14.3951 16.9662 14.1532 17.0872 14.0322C17.3291 13.7903 17.813 13.7903 18.055 14.0322C18.1759 14.1532 18.2969 14.2742 18.2969 14.5161C18.2969 14.6371 18.1759 14.879 18.055 15C17.813 15.2419 17.6921 15.2419 17.5711 15.2419ZM17.5711 14.5161C17.4501 14.5161 17.4501 14.5161 17.5711 14.5161C17.4501 14.6371 17.4501 14.6371 17.5711 14.5161C17.4501 14.6371 17.4501 14.6371 17.4501 14.758H17.5711C17.5711 14.6371 17.6921 14.6371 17.5711 14.5161C17.6921 14.6371 17.5711 14.6371 17.5711 14.5161Z" fill="white"/>
<path d="M19.6278 17.4194C19.5068 17.4194 19.2648 17.2984 19.1439 17.1774C18.9019 16.9355 18.9019 16.4516 19.1439 16.2097C19.3858 15.9677 19.8697 15.9677 20.1116 16.2097C20.3536 16.4516 20.3536 16.9355 20.1116 17.1774C19.9907 17.4194 19.8697 17.4194 19.6278 17.4194ZM19.6278 16.6936C19.5068 16.8145 19.5068 16.8145 19.5068 16.9355H19.6278C19.7488 16.8145 19.7488 16.8145 19.6278 16.6936C19.7488 16.6936 19.7488 16.6936 19.6278 16.6936Z" fill="white"/>
<path d="M10.4343 13.5484C10.3133 13.5484 10.0714 13.4274 9.95046 13.3065C9.82949 13.1855 9.7085 13.0645 9.7085 12.8226C9.7085 12.7016 9.82949 12.4597 9.95046 12.3387C10.1924 12.0968 10.6763 12.0968 10.9182 12.3387C11.0392 12.4597 11.1602 12.5807 11.1602 12.8226C11.1602 12.9436 11.0392 13.1855 10.9182 13.3065C10.7973 13.5484 10.6763 13.5484 10.4343 13.5484ZM10.4343 12.8226C10.3133 12.9436 10.3133 12.9436 10.4343 12.8226C10.3133 12.9436 10.3134 12.9436 10.3134 13.0645C10.3134 13.1855 10.4343 13.0645 10.4343 13.0645C10.5553 13.0645 10.5553 12.9436 10.4343 12.8226C10.5553 12.9436 10.5553 12.9436 10.4343 12.8226C10.5553 12.8226 10.4343 12.8226 10.4343 12.8226Z" fill="white"/>
<path d="M12.6121 15.7258C12.4911 15.7258 12.2492 15.6049 12.1282 15.4839C11.8863 15.242 11.8863 14.8791 12.1282 14.5162C12.3702 14.2742 12.8541 14.2742 13.096 14.5162C13.338 14.7581 13.338 15.242 13.096 15.4839C12.975 15.7258 12.854 15.7258 12.6121 15.7258ZM12.6121 15C12.4911 15.121 12.4911 15.121 12.4911 15.242H12.6121C12.7331 15.121 12.7331 15.121 12.6121 15C12.7331 15 12.6121 15 12.6121 15Z" fill="white"/>
<path d="M14.7889 17.9033C14.6679 17.9033 14.4259 17.7823 14.305 17.6613C14.184 17.5404 14.063 17.4194 14.063 17.1775C14.063 17.0565 14.184 16.8146 14.305 16.6936C14.5469 16.4517 15.0308 16.4517 15.2727 16.6936C15.3937 16.8146 15.5147 16.9355 15.5147 17.1775C15.5147 17.2984 15.3937 17.5404 15.2727 17.6613C15.1518 17.9033 14.9099 17.9033 14.7889 17.9033ZM14.7889 17.1775C14.6679 17.1775 14.6679 17.2984 14.7889 17.1775C14.6679 17.2984 14.6679 17.2984 14.6679 17.4194H14.7889C14.9099 17.2984 14.9099 17.1775 14.7889 17.1775Z" fill="white"/>
<path d="M16.9671 20.0807C16.8461 20.0807 16.6041 19.9597 16.4832 19.8387C16.3622 19.7178 16.2412 19.5968 16.2412 19.3549C16.2412 19.2339 16.3622 18.992 16.4832 18.871C16.7251 18.6291 17.209 18.6291 17.451 18.871C17.5719 18.992 17.6929 19.1129 17.6929 19.3549C17.6929 19.4758 17.5719 19.7178 17.451 19.8387C17.33 19.9597 17.0881 20.0807 16.9671 20.0807ZM16.9671 19.3549C16.9671 19.3549 16.8461 19.3549 16.9671 19.3549C16.8461 19.3549 16.8461 19.4758 16.9671 19.3549C16.8461 19.4758 16.8461 19.4758 16.8461 19.5968C16.8461 19.7178 16.9671 19.5968 16.9671 19.5968C17.0881 19.4758 17.0881 19.4758 16.9671 19.3549C17.0881 19.4758 17.0881 19.3549 16.9671 19.3549Z" fill="white"/>
<path d="M8.13558 30C7.16778 30 6.32092 29.6371 5.59507 28.9113L0.998042 24.3145C-0.332681 22.9838 -0.332681 20.6855 0.998042 19.3548L5.11121 15.2419C5.23219 15.1209 5.35315 15.1209 5.47412 15.2419C5.5951 15.3629 5.5951 15.4838 5.47412 15.6048L1.36095 19.7177C0.151204 20.9274 0.151204 22.7419 1.36095 23.9516L5.95798 28.5484C7.16772 29.758 8.98234 29.758 10.1921 28.5484L14.3053 24.4355C14.4262 24.3145 14.5472 24.3145 14.6682 24.4355C14.7891 24.5564 14.7891 24.6774 14.6682 24.7984L10.676 28.9113C9.95017 29.6371 8.9824 30 8.13558 30Z" fill="white"/>
<path d="M24.5878 14.879C24.4668 14.879 24.4668 14.879 24.3458 14.7581C24.2248 14.6371 24.2248 14.5161 24.3458 14.3952L28.459 10.2823C29.6687 9.07258 29.6687 7.25806 28.459 6.04839L23.862 1.45161C22.6522 0.241938 20.8376 0.241938 19.6278 1.45161L15.5147 5.56452C15.3937 5.68549 15.2727 5.68549 15.1518 5.56452C15.0308 5.44355 15.0308 5.32258 15.1518 5.20162L19.2649 1.08871C20.5956 -0.241932 22.8941 -0.241932 24.2249 1.08871L28.8219 5.68548C30.1526 7.01613 30.1526 9.31452 28.8219 10.6452L24.7087 14.7581C24.7087 14.879 24.7088 14.879 24.5878 14.879Z" fill="white"/>
</svg>
