<svg width="28" height="22" viewBox="0 0 28 22" fill="none" xmlns="http://www.w3.org/2000/svg">
<path d="M27.0802 2.61333C26.0843 3.04291 25.0006 3.35208 23.8843 3.4725C25.0433 2.78397 25.9111 1.69622 26.3251 0.413327C25.2376 1.06027 24.0462 1.51392 22.8038 1.75415C22.2846 1.19903 21.6566 0.756799 20.9589 0.455008C20.2613 0.153216 19.5089 -0.00166557 18.7488 1.35072e-05C15.6734 1.35072e-05 13.2 2.49291 13.2 5.55208C13.2 5.98167 13.2521 6.41125 13.3367 6.82457C8.73165 6.58374 4.62455 4.38374 1.89408 1.0154C1.39656 1.86518 1.13584 2.83276 1.13905 3.81747C1.13905 5.74409 2.11864 7.44291 3.61242 8.44202C2.73211 8.40735 1.87242 8.16539 1.10325 7.73581V7.80415C1.10325 10.5021 3.01035 12.7379 5.55207 13.2521C5.07483 13.376 4.5839 13.4395 4.09083 13.4408C3.72958 13.4408 3.38787 13.405 3.0429 13.3562C3.74586 15.5562 5.7929 17.1541 8.23047 17.2062C6.32337 18.7 3.93461 19.5787 1.34083 19.5787C0.875444 19.5787 0.445858 19.5624 0 19.5104C2.46035 21.0888 5.37958 22 8.52337 22C18.7293 22 24.3139 13.545 24.3139 6.20622C24.3139 5.96539 24.3139 5.72457 24.2976 5.48374C25.3781 4.69291 26.3251 3.71333 27.0802 2.61333Z" fill="#F94BA4"/>
</svg>
