<svg width="34" height="34" viewBox="0 0 34 34" fill="none" xmlns="http://www.w3.org/2000/svg">
<g clip-path="url(#clip0_92_305)">
<path d="M24.4618 21.3615L17.6967 16.6307V8.50001C17.6967 8.11681 17.3831 7.80328 16.9999 7.80328C16.6167 7.80328 16.3032 8.11681 16.3032 8.50001V17C16.3032 17.2299 16.4147 17.4389 16.6028 17.5713L23.6676 22.5111C23.786 22.5947 23.9254 22.6365 24.0647 22.6365C24.2807 22.6365 24.4967 22.532 24.636 22.3299C24.852 22.0164 24.7754 21.5844 24.4618 21.3615Z" fill="#00A3C8"/>
<path d="M29.0115 4.98853C25.7926 1.76967 21.5287 0 17 0C12.4713 0 8.20738 1.76967 4.98852 4.98853C1.76967 8.20738 0 12.4713 0 17C0 21.5287 1.76967 25.7926 4.98852 29.0115C8.20738 32.2303 12.4713 34 17 34C21.5287 34 25.7926 32.2303 29.0115 29.0115C32.2303 25.7926 34 21.5287 34 17C34 12.4713 32.2303 8.20738 29.0115 4.98853ZM17.6967 32.5926V29.75C17.6967 29.3668 17.3832 29.0533 17 29.0533C16.6168 29.0533 16.3033 29.3668 16.3033 29.75V32.5926C8.24918 32.2373 1.7627 25.7508 1.40738 17.6967H4.25C4.6332 17.6967 4.94672 17.3832 4.94672 17C4.94672 16.6168 4.6332 16.3033 4.25 16.3033H1.40738C1.7627 8.24918 8.24918 1.76271 16.3033 1.40738V4.25C16.3033 4.6332 16.6168 4.94672 17 4.94672C17.3832 4.94672 17.6967 4.6332 17.6967 4.25V1.40738C25.7508 1.76271 32.2373 8.24918 32.5926 16.3033H29.75C29.3668 16.3033 29.0533 16.6168 29.0533 17C29.0533 17.3832 29.3668 17.6967 29.75 17.6967H32.5926C32.2373 25.7508 25.7508 32.2373 17.6967 32.5926Z" fill="#00A3C8"/>
</g>
<defs>
<clipPath id="clip0_92_305">
<rect width="34" height="34" fill="white"/>
</clipPath>
</defs>
</svg>
