<?xml version="1.0" standalone="no"?>
<!DOCTYPE svg PUBLIC "-//W3C//DTD SVG 20010904//EN"
 "http://www.w3.org/TR/2001/REC-SVG-20010904/DTD/svg10.dtd">
<svg version="1.0" xmlns="http://www.w3.org/2000/svg"
 width="512.000000pt" height="512.000000pt" viewBox="0 0 512.000000 512.000000"
 preserveAspectRatio="xMidYMid meet">

<g transform="translate(0.000000,512.000000) scale(0.100000,-0.100000)"
fill="#000000" stroke="none">
<path d="M2000 4888 c-42 -26 -61 -45 -82 -87 l-28 -53 0 -684 c0 -748 -2
-724 58 -787 15 -16 45 -39 67 -50 39 -21 51 -22 489 -25 l450 -3 305 -218
c169 -120 316 -223 328 -229 34 -18 52 -14 84 17 l29 29 0 201 0 201 159 0
c179 0 224 10 279 63 19 18 43 50 55 72 22 40 22 45 25 694 2 451 -1 671 -8
708 -14 67 -60 129 -119 160 l-44 23 -997 0 -996 0 -54 -32z m2036 -149 c18
-20 19 -48 22 -658 1 -350 0 -646 -3 -659 -3 -12 -14 -31 -25 -42 -19 -19 -34
-20 -229 -20 -275 0 -254 17 -261 -208 l-5 -170 -265 189 -265 188 -451 1
c-441 0 -452 0 -478 21 l-26 20 0 661 c0 601 2 663 17 680 15 17 59 18 983 18
l967 0 19 -21z"/>
<path d="M2302 4264 c-32 -22 -44 -58 -31 -91 21 -55 -13 -52 780 -53 687 0
738 1 758 18 11 9 24 31 27 49 5 27 1 37 -24 63 l-30 30 -729 0 c-652 0 -731
-2 -751 -16z"/>
<path d="M2299 3900 c-29 -17 -43 -65 -27 -96 25 -53 29 -54 488 -54 456 0
463 1 487 52 16 31 1 83 -27 98 -24 13 -899 13 -921 0z"/>
<path d="M3321 3884 c-40 -50 -18 -114 44 -130 14 -3 51 -4 82 -2 46 4 61 10
81 33 18 22 22 35 18 59 -10 52 -37 66 -126 66 -73 0 -80 -2 -99 -26z"/>
<path d="M1184 4516 c-60 -19 -101 -54 -129 -110 l-25 -50 0 -623 c0 -615 0
-624 21 -669 24 -50 69 -89 126 -110 25 -8 88 -13 181 -14 l142 0 0 -178 c0
-147 3 -182 16 -200 21 -30 58 -44 87 -33 12 5 149 99 304 210 l281 201 392 0
392 0 29 29 c16 16 29 37 29 46 0 24 -27 72 -45 79 -9 3 -204 6 -433 6 l-417
0 -235 -169 -235 -169 -5 150 c-7 200 8 188 -239 188 -153 0 -191 3 -209 16
l-22 15 0 603 c0 549 1 605 17 617 12 11 73 15 272 17 245 3 257 4 278 24 42
39 27 108 -28 127 -46 16 -492 14 -545 -3z"/>
<path d="M591 2974 c-259 -69 -420 -329 -371 -595 24 -129 131 -279 244 -342
153 -86 350 -89 500 -9 67 35 177 145 209 207 109 217 65 469 -112 627 -123
111 -309 155 -470 112z m280 -177 c30 -14 74 -45 98 -69 172 -170 122 -464
-98 -567 -48 -22 -69 -26 -151 -26 -84 0 -102 3 -151 28 -148 72 -230 254
-185 409 31 109 104 188 212 234 81 34 195 30 275 -9z"/>
<path d="M4267 2975 c-128 -35 -265 -143 -320 -250 -100 -199 -72 -434 71
-588 102 -109 232 -167 376 -167 143 0 267 51 366 150 277 278 146 755 -235
855 -71 18 -192 18 -258 0z m286 -183 c76 -38 129 -92 166 -171 22 -47 26 -70
26 -141 0 -71 -4 -94 -27 -142 -35 -76 -98 -142 -167 -175 -49 -25 -67 -28
-151 -28 -82 0 -103 4 -151 26 -141 67 -222 219 -198 373 38 236 287 364 502
258z"/>
<path d="M540 1885 c-213 -40 -392 -197 -467 -410 l-28 -80 -3 -572 -3 -573
25 -25 c35 -35 87 -34 115 1 21 26 21 36 21 560 0 350 4 551 11 586 49 234
282 396 512 358 118 -20 193 -66 299 -183 51 -56 113 -123 138 -150 l46 -49
247 -59 c137 -32 261 -66 277 -74 16 -8 38 -28 50 -45 23 -33 38 -104 24 -113
-5 -3 -128 0 -274 7 l-265 12 -174 94 c-185 100 -217 109 -254 71 l-22 -22 0
-490 0 -491 24 -19 c32 -26 82 -25 109 4 22 23 22 26 22 426 0 221 4 401 8
399 4 -1 61 -32 126 -67 l119 -64 296 -13 c334 -16 353 -14 410 51 35 40 46
86 38 159 -10 100 -80 202 -169 247 -21 11 -143 44 -270 74 l-233 56 -80 87
c-138 151 -199 206 -271 244 -125 66 -270 89 -404 63z"/>
<path d="M4395 1893 c-187 -26 -284 -89 -491 -315 l-79 -88 -232 -54 c-128
-31 -250 -64 -271 -75 -90 -46 -162 -151 -170 -247 -6 -75 5 -119 39 -159 57
-65 76 -67 411 -51 l296 14 118 63 c66 35 122 66 126 67 5 2 8 -178 8 -400 l0
-405 23 -21 c29 -27 77 -28 108 -3 l24 19 0 491 0 490 -22 22 c-37 37 -69 28
-254 -71 l-174 -94 -265 -12 c-146 -7 -269 -10 -274 -7 -14 9 1 80 24 113 12
17 34 37 50 45 16 8 140 42 277 74 l248 60 45 48 c25 27 87 95 138 150 106
117 182 163 299 183 230 38 464 -125 512 -358 7 -35 11 -237 11 -586 0 -524 0
-534 21 -560 28 -35 80 -36 115 -1 l25 25 -3 573 -3 572 -28 78 c-36 102 -94
193 -168 261 -125 116 -324 181 -484 159z"/>
<path d="M1269 811 c-16 -16 -29 -39 -29 -51 0 -12 13 -35 29 -51 l29 -29 827
0 826 0 24 25 c16 15 25 36 25 55 0 19 -9 40 -25 55 l-24 25 -826 0 -827 0
-29 -29z"/>
<path d="M3095 815 c-16 -15 -25 -36 -25 -55 0 -19 9 -40 25 -55 21 -22 33
-25 94 -25 65 0 71 2 95 31 34 40 33 64 -3 100 -27 26 -36 29 -96 29 -57 0
-69 -3 -90 -25z"/>
<path d="M3434 817 c-20 -17 -27 -33 -27 -57 0 -24 7 -40 27 -57 26 -22 33
-23 207 -23 l181 0 29 29 c16 16 29 39 29 51 0 12 -13 35 -29 51 l-29 29 -181
0 c-174 0 -181 -1 -207 -23z"/>
</g>
</svg>
