<svg width="60" height="60" viewBox="0 0 60 60" fill="none" xmlns="http://www.w3.org/2000/svg">
<path d="M60 30C60 46.5474 46.5474 60 30 60C13.4526 60 0 46.5474 0 30C0 13.4526 13.4526 0 30 0C46.6105 0 60 13.4526 60 30Z" fill="#B6D2E7"/>
<path d="M38.0156 16.613C38.7172 15.6775 40.1673 13.1049 40.7753 12.1694" stroke="#851256" stroke-miterlimit="10" stroke-linecap="round" stroke-linejoin="round"/>
<path d="M36.0047 16.4727C36.0047 15.3501 35.9579 13.1984 35.9111 11" stroke="#851256" stroke-miterlimit="10" stroke-linecap="round" stroke-linejoin="round"/>
<path d="M34.1334 16.9873C32.6834 14.3679 32.2624 13.8066 31.2334 11.7485" stroke="#851256" stroke-miterlimit="10" stroke-linecap="round" stroke-linejoin="round"/>
<path d="M30.2036 38.3633C30.2972 38.3633 30.344 38.3633 30.4375 38.3633C30.5778 38.3633 30.7182 38.3633 30.8585 38.3633C35.8166 38.6908 35.1618 48.3264 35.1618 48.3264C35.3957 50.7587 37.4537 49.8232 37.4537 49.8232C42.4119 46.2683 41.149 34.2472 41.149 34.2472C44.8442 28.8213 42.6458 22.647 42.6458 22.647C41.6635 20.0744 39.7457 18.1566 36.8924 17.9227C34.4602 17.7356 32.4488 19.6534 30.1569 19.7937C27.8649 19.6534 25.8536 17.7356 23.4213 17.9227C20.6148 18.1566 18.6503 20.0744 17.668 22.647C17.668 22.647 15.4228 28.8213 19.1648 34.2472C19.1648 34.2472 17.9019 46.2683 22.86 49.8232C22.86 49.8232 24.9181 50.7587 25.152 48.3264C25.152 48.3264 24.4971 38.6908 29.4553 38.3633C29.6891 38.3633 29.9698 38.3633 30.2036 38.3633Z" fill="#EEE6D9"/>
<path d="M31.8881 21.1502C33.2913 21.6647 34.8817 21.8986 36.3785 21.7115C37.7817 21.5712 39.372 21.0567 40.1204 19.7937C40.214 19.6534 40.3075 19.4663 40.3543 19.326C39.4188 18.5308 38.2494 18.0163 36.8462 17.9227C34.4139 17.7356 32.4026 19.6534 30.1106 19.7937C30.0171 19.7937 29.8768 19.7937 29.7832 19.747C30.2977 20.4018 31.1397 20.8696 31.8881 21.1502Z" fill="#D3C693"/>
<path d="M32.2158 19.2792C32.7303 20.6825 34.9755 20.6357 36.1449 20.1212C37.1272 19.7002 37.9224 18.8583 37.2675 17.9695C37.1272 17.9695 36.9869 17.9228 36.8465 17.9228C35.2094 17.7824 33.7126 18.6711 32.2158 19.2792Z" fill="#75443E"/>
<path d="M28.9407 19.5598C27.1165 19.0453 25.4326 17.7356 23.4213 17.9227C20.6148 18.1566 18.6503 20.0743 17.668 22.6469C17.668 22.6469 15.4228 28.8212 19.1648 34.2471C19.1648 34.2471 17.9019 46.2682 22.86 49.8231C22.86 49.8231 24.9181 50.7586 25.152 48.3263C25.152 48.3263 24.731 42.0117 27.2101 39.4391C27.1165 39.4859 27.023 39.5327 26.9294 39.5794C25.5262 40.4214 25.3391 41.8714 24.9649 43.3682C24.7778 44.2101 24.0294 47.157 22.6729 45.8005C21.8777 45.0053 21.6439 43.7424 21.5035 42.6666C21.3164 41.4972 21.1761 40.3278 21.1293 39.1585C21.0358 36.7262 21.41 34.1536 23.281 32.4229C22.8132 32.0955 22.2987 31.9084 21.8777 31.5809C21.41 31.2067 21.0826 30.6922 20.8487 30.0841C20.3342 28.7277 19.96 27.3244 20.0067 25.8744C20.1003 23.7228 20.8019 21.4308 23.0471 20.7292C25.2455 20.0276 27.3036 20.9163 29.3617 21.6179C30.5778 22.0389 31.9343 22.4131 33.2908 22.2727C31.3262 22.1324 29.4552 21.1969 28.9407 19.5598Z" fill="#EBCBCA"/>
<path d="M43.1142 29.1018C43.0674 29.2421 42.9739 29.3825 42.9271 29.5228C42.3658 30.5518 41.5239 31.3938 40.5416 32.0019C39.84 32.4228 39.0916 32.797 38.3432 33.1712C38.1561 33.2648 38.0157 33.3583 37.8286 33.4051C37.6415 33.4986 37.8287 33.5454 37.969 33.7325C38.2028 34.0599 38.3899 34.4341 38.577 34.7616C39.2319 36.1648 39.4658 37.6616 39.5125 39.2052C39.6061 40.8423 39.7464 42.573 39.419 44.1633C39.2787 44.9117 39.0448 45.6601 38.6706 46.3617C38.4367 46.7827 38.2028 47.2504 37.7819 47.5311C37.4544 47.765 36.8932 47.9053 36.5657 47.5779C36.1915 47.2504 36.1915 46.7827 36.098 46.3149C35.9577 45.2859 35.7706 44.2101 35.5367 43.181C35.3028 42.152 34.9754 41.0294 34.2738 40.2342C33.9463 39.8132 33.5254 39.5794 33.0576 39.3923C35.5367 41.9649 35.1157 48.2795 35.1157 48.2795C35.3496 50.7118 37.4077 49.7763 37.4077 49.7763C42.3658 46.2214 41.1029 34.2003 41.1029 34.2003C42.319 32.5164 42.8803 30.7389 43.1142 29.1018Z" fill="#EBCBCA"/>
<path d="M30.2036 38.3631C30.2972 38.3631 30.344 38.3631 30.4375 38.3631C30.5778 38.3631 30.7182 38.3631 30.8585 38.3631C35.8166 38.6905 35.1618 48.3261 35.1618 48.3261C35.3957 50.7584 37.4537 49.8229 37.4537 49.8229C42.4119 46.2681 41.149 34.2469 41.149 34.2469C44.8442 28.821 42.6458 22.6468 42.6458 22.6468C41.6635 20.0741 39.7457 18.1564 36.8924 17.9225C34.4602 17.7354 32.4488 19.6532 30.1569 19.7935C27.8649 19.6532 25.8536 17.7354 23.4213 17.9225C20.6148 18.1564 18.6503 20.0741 17.668 22.6468C17.668 22.6468 15.4228 28.821 19.1648 34.2469C19.1648 34.2469 17.9019 46.2681 22.86 49.8229C22.86 49.8229 24.9181 50.7584 25.152 48.3261C25.152 48.3261 24.4971 38.6905 29.4553 38.3631C29.6891 38.3631 29.9698 38.3631 30.2036 38.3631Z" stroke="#851256" stroke-miterlimit="10" stroke-linecap="round" stroke-linejoin="round"/>
<path d="M28.7539 19.5129C28.7539 19.5129 31.3733 22.7872 36.425 21.571" stroke="#851256" stroke-miterlimit="10" stroke-linecap="round" stroke-linejoin="round"/>
</svg>
