<svg width="60" height="60" viewBox="0 0 60 60" fill="none" xmlns="http://www.w3.org/2000/svg">
<path d="M60 30C60 46.5474 46.5474 60 30 60C13.4526 60 0 46.5474 0 30C0 13.4526 13.4526 0 30 0C46.6105 0 60 13.4526 60 30Z" fill="#B6D2E7"/>
<path d="M38.0238 27.1338H22.6709V32.2049H38.0238V27.1338Z" fill="#C0D9E6"/>
<path d="M34.1623 37.5086L32.3013 36.7642C32.1618 36.7177 32.0222 36.4385 31.9757 36.299C31.9291 36.1594 31.9291 35.9268 32.0222 35.7872C32.1152 35.6011 32.3944 35.508 32.5805 35.415C32.9527 35.3219 33.3714 35.2754 33.6505 35.0428C33.8366 34.9032 33.9762 34.7171 34.0693 34.5776C34.1623 34.3915 34.1158 34.2054 34.1158 34.0193V32.2048H30.4404H30.2543H26.5789V34.0193C26.5789 34.2054 26.4858 34.3915 26.5789 34.5776C26.6719 34.7637 26.8115 34.9498 26.9976 35.0428C27.2767 35.2754 27.6955 35.3219 28.0676 35.415C28.3003 35.4615 28.5329 35.6011 28.6259 35.7872C28.719 35.9268 28.719 36.1129 28.6725 36.299C28.6259 36.4385 28.5329 36.6711 28.3468 36.7642L26.4858 37.5086C26.1136 37.6482 26.0206 38.1134 26.1136 38.4391C26.1602 38.5786 26.2997 38.7647 26.4393 38.8578C26.6254 38.9973 26.9045 39.0439 27.1372 39.0904C27.3698 39.1834 27.6024 39.23 27.835 39.323C28.0211 39.3695 28.1607 39.4626 28.3468 39.5091C28.6259 39.6022 28.7655 39.6487 28.9051 39.8813C29.0447 40.1139 29.0912 40.3931 29.0447 40.6257C28.9981 40.9979 28.719 41.3235 28.3468 41.5096C27.8816 41.7423 27.3233 41.9749 26.9511 42.3006C26.6254 42.5797 26.5789 43.0449 26.8115 43.3706C27.1372 43.7893 27.9746 43.8358 28.4398 44.0685C28.719 44.208 28.9051 44.4872 28.9516 44.7198C28.9981 44.9059 28.9516 45.092 28.8586 45.2781C28.6725 45.6038 28.2537 45.6968 27.9281 45.8364C27.4163 46.0225 26.858 46.069 26.765 46.6273C26.7185 47.046 27.0906 47.3252 27.4628 47.5578C27.7885 47.7904 28.1142 47.9765 28.4864 48.1626C28.812 48.3487 29.1842 48.5348 29.5099 48.7209C29.696 48.8139 29.9751 48.9535 30.2078 49C30.2543 49 30.2543 49 30.3008 49C30.3473 49 30.3473 49 30.3938 49C30.673 48.9535 30.9056 48.8139 31.0917 48.7209C31.4174 48.5348 31.7896 48.3487 32.1152 48.1626C32.4874 47.9765 32.8131 47.7904 33.1388 47.5578C33.511 47.3252 33.8366 46.9995 33.8366 46.6273C33.7901 46.069 33.1853 46.0225 32.6735 45.8364C32.3013 45.6968 31.8826 45.6038 31.743 45.2781C31.65 45.092 31.6035 44.9059 31.65 44.7198C31.6965 44.4407 31.8826 44.208 32.1618 44.0685C32.627 43.7893 33.4644 43.7893 33.7901 43.3706C34.0227 43.0449 33.9762 42.5797 33.6505 42.3006C33.2783 41.9749 32.6735 41.7423 32.2548 41.5096C31.8826 41.3235 31.557 40.9979 31.557 40.6257C31.5104 40.3465 31.557 40.1139 31.6965 39.8813C31.8361 39.6487 31.9757 39.6022 32.2548 39.5091C32.4409 39.4626 32.5805 39.3695 32.7666 39.323C32.9992 39.23 33.2318 39.1834 33.4644 39.0904C33.6971 39.0439 33.9762 38.9508 34.1623 38.8578C34.3019 38.7647 34.4414 38.5786 34.488 38.4391C34.6741 38.1134 34.581 37.6482 34.1623 37.5086Z" fill="#92B6C7"/>
<path d="M30.4873 32.2048H26.6258V34.0193C26.6258 34.2054 26.5327 34.3915 26.6258 34.5776C26.7188 34.7637 26.8584 34.9498 27.0445 35.0428C27.3236 35.2754 27.7423 35.3219 28.1145 35.415C28.3471 35.4615 28.5798 35.6011 28.6728 35.7872C28.7659 35.9268 28.7659 36.1129 28.7193 36.299C28.6728 36.4385 28.5798 36.6711 28.3937 36.7642L26.5327 37.5086C26.1605 37.6482 26.0675 38.1134 26.1605 38.4391C26.207 38.5786 26.3466 38.7647 26.4862 38.8578C26.6723 38.9973 26.9514 39.0439 27.184 39.0904C27.4167 39.1834 27.6493 39.23 27.8819 39.323C28.068 39.3695 28.2076 39.4626 28.3937 39.5091C28.6728 39.6022 28.8124 39.6487 28.952 39.8813C29.0915 40.1139 29.1381 40.3931 29.0915 40.6257C29.045 40.9979 28.7659 41.3235 28.3937 41.5096C27.9284 41.7423 27.3701 41.9749 26.9979 42.3006C26.6723 42.5797 26.6258 43.0449 26.8584 43.3706C27.184 43.7893 28.0215 43.8358 28.4867 44.0685C28.7659 44.208 28.952 44.4872 28.9985 44.7198C29.045 44.9059 28.9985 45.092 28.9054 45.2781C28.7193 45.6038 28.3006 45.6968 27.975 45.8364C27.4632 46.0225 26.9049 46.069 26.8119 46.6273C26.7653 47.046 27.1375 47.3252 27.5097 47.5578C27.8354 47.7904 28.161 47.9765 28.5332 48.1626C28.8589 48.3487 29.2311 48.5348 29.5568 48.7209C29.7429 48.8139 30.022 48.9535 30.2546 49C30.3012 49 30.3012 49 30.3477 49C30.3942 49 30.3942 49 30.4407 49V32.2048H30.4873Z" fill="#BCBEC0"/>
<path d="M34.1623 37.5086L32.3013 36.7642C32.1618 36.7177 32.0222 36.4385 31.9757 36.299C31.9291 36.1594 31.9291 35.9268 32.0222 35.7872C32.1152 35.6011 32.3944 35.508 32.5805 35.415C32.9527 35.3219 33.3714 35.2754 33.6505 35.0428C33.8366 34.9032 33.9762 34.7171 34.0693 34.5776C34.1623 34.3915 34.1158 34.2054 34.1158 34.0193V32.2048H30.4404H30.2543H26.5789V34.0193C26.5789 34.2054 26.4858 34.3915 26.5789 34.5776C26.6719 34.7637 26.8115 34.9498 26.9976 35.0428C27.2767 35.2754 27.6955 35.3219 28.0676 35.415C28.3003 35.4615 28.5329 35.6011 28.6259 35.7872C28.719 35.9268 28.719 36.1129 28.6725 36.299C28.6259 36.4385 28.5329 36.6711 28.3468 36.7642L26.4858 37.5086C26.1136 37.6482 26.0206 38.1134 26.1136 38.4391C26.1602 38.5786 26.2997 38.7647 26.4393 38.8578C26.6254 38.9973 26.9045 39.0439 27.1372 39.0904C27.3698 39.1834 27.6024 39.23 27.835 39.323C28.0211 39.3695 28.1607 39.4626 28.3468 39.5091C28.6259 39.6022 28.7655 39.6487 28.9051 39.8813C29.0447 40.1139 29.0912 40.3931 29.0447 40.6257C28.9981 40.9979 28.719 41.3235 28.3468 41.5096C27.8816 41.7423 27.3233 41.9749 26.9511 42.3006C26.6254 42.5797 26.5789 43.0449 26.8115 43.3706C27.1372 43.7893 27.9746 43.8358 28.4398 44.0685C28.719 44.208 28.9051 44.4872 28.9516 44.7198C28.9981 44.9059 28.9516 45.092 28.8586 45.2781C28.6725 45.6038 28.2537 45.6968 27.9281 45.8364C27.4163 46.0225 26.858 46.069 26.765 46.6273C26.7185 47.046 27.0906 47.3252 27.4628 47.5578C27.7885 47.7904 28.1142 47.9765 28.4864 48.1626C28.812 48.3487 29.1842 48.5348 29.5099 48.7209C29.696 48.8139 29.9751 48.9535 30.2078 49C30.2543 49 30.2543 49 30.3008 49C30.3473 49 30.3473 49 30.3938 49C30.673 48.9535 30.9056 48.8139 31.0917 48.7209C31.4174 48.5348 31.7896 48.3487 32.1152 48.1626C32.4874 47.9765 32.8131 47.7904 33.1388 47.5578C33.511 47.3252 33.8366 46.9995 33.8366 46.6273C33.7901 46.069 33.1853 46.0225 32.6735 45.8364C32.3013 45.6968 31.8826 45.6038 31.743 45.2781C31.65 45.092 31.6035 44.9059 31.65 44.7198C31.6965 44.4407 31.8826 44.208 32.1618 44.0685C32.627 43.7893 33.4644 43.7893 33.7901 43.3706C34.0227 43.0449 33.9762 42.5797 33.6505 42.3006C33.2783 41.9749 32.6735 41.7423 32.2548 41.5096C31.8826 41.3235 31.557 40.9979 31.557 40.6257C31.5104 40.3465 31.557 40.1139 31.6965 39.8813C31.8361 39.6487 31.9757 39.6022 32.2548 39.5091C32.4409 39.4626 32.5805 39.3695 32.7666 39.323C32.9992 39.23 33.2318 39.1834 33.4644 39.0904C33.6971 39.0439 33.9762 38.9508 34.1623 38.8578C34.3019 38.7647 34.4414 38.5786 34.488 38.4391C34.6741 38.1134 34.581 37.6482 34.1623 37.5086Z" stroke="#851256" stroke-miterlimit="10" stroke-linecap="round" stroke-linejoin="round"/>
<path d="M28.3468 27.1338H22.6709V32.2049H28.3468V27.1338Z" fill="#92B6C7"/>
<path d="M38.0238 27.1338H22.6709V32.2049H38.0238V27.1338Z" stroke="#851256" stroke-miterlimit="10" stroke-linecap="round" stroke-linejoin="round"/>
<path d="M20.0186 27.4595C16.5293 22.3418 18.6229 16.5263 18.6229 16.5263C19.5534 14.1071 21.3678 12.2926 24.0197 12.06C26.2994 11.8739 28.2068 13.6884 30.3469 13.8279C32.5336 13.6884 34.3945 11.8739 36.6742 12.06C39.3261 12.2926 41.1405 14.0605 42.071 16.5263C42.071 16.5263 44.1646 22.3418 40.6753 27.4595C40.7218 27.4595 31.6031 31.5071 20.0186 27.4595Z" fill="#EEE6D9"/>
<path d="M19.9721 27.8316C20.6699 28.1572 21.4143 28.4364 22.1587 28.669C22.4379 27.5524 22.9961 26.5289 23.8801 25.6914C23.4614 25.4123 22.9496 25.2262 22.5774 24.9005C22.1122 24.5283 21.833 24.0631 21.6004 23.5048C21.0887 22.2487 20.763 20.8995 20.8095 19.5037C20.9026 17.5032 21.5539 15.3166 23.6475 14.6187C25.6945 13.9674 27.6485 14.8048 29.6026 15.4562C30.8587 15.8749 32.2544 16.2471 33.6036 16.0144C34.5341 15.8749 35.5576 15.4096 35.6042 14.4326C34.7202 14.8979 33.5571 14.8513 32.6266 14.6652C31.8822 14.5257 30.9983 14.2931 30.3469 13.7813C28.1603 13.6417 26.2994 11.8273 24.0197 12.0134C21.3678 12.246 19.5534 14.0139 18.6229 16.4797C18.6229 16.4797 16.5293 22.2952 20.0186 27.4128C20.0186 27.4594 19.9721 27.5989 19.9721 27.8316Z" fill="#EBCBCA"/>
<path d="M38.3034 27.9246C38.3965 28.1107 38.4895 28.3433 38.5361 28.576C39.2804 28.3899 40.0248 28.1107 40.7227 27.8316C40.7227 27.5524 40.6762 27.4129 40.6762 27.4129C41.7927 25.7845 42.351 24.1096 42.5371 22.5278C42.4906 22.6674 42.3975 22.807 42.351 22.9466C41.8393 23.9236 41.0018 24.7145 40.0713 25.2728C39.42 25.6915 38.7221 26.0637 38.0243 26.3893C37.8847 26.4824 37.6986 26.5289 37.559 26.6219C37.4195 26.715 37.559 26.7615 37.6521 26.9011C37.9312 27.2733 38.1639 27.599 38.3034 27.9246Z" fill="#EBCBCA"/>
<path d="M20.0186 27.4592C16.5293 22.3416 18.6229 16.5261 18.6229 16.5261C19.5534 14.1068 21.3678 12.2924 24.0197 12.0598C26.2994 11.8737 28.2068 13.6881 30.3469 13.8277C32.5336 13.6881 34.3945 11.8737 36.6742 12.0598C39.3261 12.2924 41.1405 14.0603 42.071 16.5261C42.071 16.5261 44.1646 22.3416 40.6753 27.4592C40.7218 27.4592 30.6726 31.8325 20.0186 27.4592Z" stroke="#851256" stroke-miterlimit="10" stroke-linecap="round" stroke-linejoin="round"/>
<path d="M29.0449 13.5486C29.0449 13.5486 34.6278 15.5026 35.6048 14.1534" stroke="#851256" stroke-miterlimit="10" stroke-linecap="round" stroke-linejoin="round"/>
</svg>
