<svg width="60" height="60" viewBox="0 0 60 60" fill="none" xmlns="http://www.w3.org/2000/svg">
<path d="M60 30C60 46.5474 46.5474 60 30 60C13.4526 60 0 46.5474 0 30C0 13.4526 13.4526 0 30 0C46.6105 0 60 13.4526 60 30Z" fill="#B6D2E7"/>
<path d="M30.4928 34.8375C30.5871 34.8375 30.6343 34.8375 30.7285 34.8375C30.87 34.8375 31.0114 34.8375 31.1529 34.8375C36.7163 35.2147 35.962 45.9644 35.962 45.9644C36.1977 48.6518 38.508 47.6146 38.508 47.6146C44.1185 43.7013 42.7041 30.2641 42.7041 30.2641C46.8531 24.1821 44.3543 17.2985 44.3543 17.2985C43.2227 14.4224 41.1011 12.2536 37.9422 12.0179C35.2076 11.7822 32.9916 13.951 30.4457 14.0924C27.8525 13.951 25.6366 11.7822 22.9491 12.0179C19.7902 12.2536 17.6214 14.4224 16.537 17.2985C16.537 17.2985 14.0382 24.1821 18.1872 30.2641C18.1872 30.2641 16.7728 43.7013 22.3362 47.6617C22.3362 47.6617 24.6465 48.699 24.8822 46.0115C24.8822 46.0115 24.175 35.2618 29.6913 34.8846C29.927 34.8375 30.2099 34.8375 30.4928 34.8375Z" fill="#EEE6D9"/>
<path d="M27.1446 36.0632C27.0503 36.1104 26.956 36.1575 26.8617 36.2047C25.2587 37.1476 25.0701 38.7978 24.6458 40.448C24.41 41.3909 23.6085 44.6913 22.0998 43.1826C21.204 42.2868 20.9682 40.8723 20.7796 39.6936C20.591 38.3735 20.4025 37.0533 20.3553 35.7803C20.261 33.0458 20.6853 30.1697 22.7599 28.2838C22.2412 27.9538 21.6754 27.7181 21.204 27.3409C20.6853 26.9165 20.3082 26.3508 20.0253 25.6907C19.4123 24.182 19.0352 22.5789 19.0823 20.9759C19.1766 18.5714 19.9781 15.9782 22.477 15.2239C24.9287 14.4695 27.1918 15.4125 29.502 16.214C31.0107 16.7326 32.6609 17.1569 34.2168 16.874C35.3012 16.6854 36.527 16.1668 36.6213 14.9881C35.5841 15.5539 34.2168 15.4596 33.0852 15.271C32.1894 15.1296 31.1522 14.8467 30.3978 14.2338C27.8518 14.0923 25.5887 11.9235 22.9013 12.1593C19.7424 12.395 17.5736 14.5638 16.4892 17.4398C16.4892 17.4398 13.9903 24.3234 18.1394 30.4055C18.1394 30.4055 16.7249 43.8426 22.2884 47.8031C22.2884 47.8031 24.5986 48.8403 24.8344 46.1529C24.8344 46.0114 24.3629 38.9393 27.1446 36.0632Z" fill="#EBCBCA"/>
<path d="M44.9669 24.512C44.9197 24.6534 44.8254 24.842 44.7311 24.9834C44.1182 26.1621 43.1753 27.0579 42.0437 27.7652C41.2422 28.2366 40.4407 28.661 39.592 29.0853C39.4034 29.1796 39.2148 29.2739 39.0262 29.3682C38.8376 29.4625 39.0262 29.5096 39.1677 29.6982C39.4034 30.0754 39.6392 30.4526 39.8277 30.8769C40.535 32.4328 40.8179 34.1301 40.9122 35.8275C41.0065 37.6662 41.1479 39.5993 40.7707 41.3909C40.5821 42.2396 40.3464 43.0411 39.922 43.8426C39.6863 44.3141 39.4034 44.8799 38.9319 45.1627C38.5548 45.3985 37.9418 45.5871 37.5647 45.2099C37.1403 44.8799 37.1403 44.3141 37.046 43.8426C36.9046 42.6639 36.6688 41.4852 36.386 40.3065C36.1031 39.175 35.773 37.902 34.9715 37.0062C34.5943 36.5347 34.1228 36.2518 33.6514 36.0632C36.4331 38.9392 35.9616 46.0114 35.9616 46.0114C36.1974 48.6988 38.5076 47.6616 38.5076 47.6616C44.1182 43.7012 42.7038 30.264 42.7038 30.264C44.0239 28.3309 44.684 26.3507 44.9669 24.512Z" fill="#EBCBCA"/>
<path d="M30.4918 34.8375C30.5861 34.8375 30.6333 34.8375 30.7276 34.8375C30.869 34.8375 31.0105 34.8375 31.1519 34.8375C36.7154 35.2147 35.961 45.9644 35.961 45.9644C36.1967 48.6518 38.507 47.6146 38.507 47.6146C44.1176 43.7013 42.7031 30.2641 42.7031 30.2641C46.8521 24.1821 44.3533 17.2985 44.3533 17.2985C43.2218 14.4224 41.1001 12.2536 37.9412 12.0179C35.2066 11.7822 32.9907 13.951 30.4447 14.0924C27.8515 13.951 25.6356 11.7822 22.9482 12.0179C19.7893 12.2536 17.6205 14.4224 16.5361 17.2985C16.5361 17.2985 14.0372 24.1821 18.1862 30.2641C18.1862 30.2641 16.7718 43.7013 22.3352 47.6617C22.3352 47.6617 24.6455 48.699 24.8812 46.0115C24.8812 46.0115 24.174 35.2618 29.6903 34.8846C29.9261 34.8375 30.2089 34.8375 30.4918 34.8375Z" stroke="#851256" stroke-miterlimit="10" stroke-linecap="round" stroke-linejoin="round"/>
<path d="M28.8418 13.8096C28.8418 13.8096 35.4425 16.167 36.574 14.5639" stroke="#851256" stroke-miterlimit="10" stroke-linecap="round" stroke-linejoin="round"/>
<path d="M33.8391 29.2742C33.8391 29.8871 33.3676 30.3586 32.7547 30.3586H28.1342C27.5213 30.3586 27.0498 29.84 27.0498 29.2742V25.8796C27.0498 25.2666 27.5213 24.7952 28.1342 24.7952H32.7547C33.3676 24.7952 33.8391 25.2666 33.8391 25.8796V29.2742Z" stroke="#851256" stroke-miterlimit="10" stroke-linecap="round" stroke-linejoin="round"/>
<path d="M31.576 24.4651V26.021H29.2658V24.4651H27.3799V26.021V26.681V27.3411H33.5091V26.681V26.021V24.4651H31.576Z" fill="#92B6C7"/>
<path opacity="0.5" d="M32.5662 24.4651V25.5495V26.021V26.4924H28.3228V26.021V25.5495V24.4651H27.3799V26.021V26.681V27.3411H33.5091V26.681V26.021V24.4651H32.5662Z" fill="#92B6C7"/>
<path d="M29.2658 30.6888V29.18H31.576V30.6888H33.5091V29.18V28.52V27.8127H27.3799V28.52V29.18V30.6888H29.2658Z" fill="#92B6C7"/>
<path opacity="0.5" d="M28.3228 30.6888V29.6515V29.18V28.7086H32.5662V29.18V29.6515V30.6888H33.5091V29.18V28.52V27.8127H27.3799V28.52V29.18V30.6888H28.3228Z" fill="#92B6C7"/>
<path d="M13 27.5769H47.8423" stroke="#A0B4BF" stroke-miterlimit="10" stroke-linecap="round" stroke-linejoin="round"/>
</svg>
