<svg width="34" height="50" viewBox="0 0 34 50" fill="none" xmlns="http://www.w3.org/2000/svg">
<path d="M32.2599 2.87081C31.2931 0.956931 29.6011 0 27.4257 0C25.9754 0 24.7668 0.478469 23.3166 1.19617C21.6246 2.15311 18.4823 2.63158 16.5486 2.63158C14.6149 2.63158 11.4727 2.15311 9.78067 1.19617C8.3304 0.478469 6.88012 0 5.67156 0C3.49615 0 1.80417 0.956931 0.837316 2.87081C-0.612958 5.98086 0.112179 14.3541 0.837316 21.5311C1.07903 24.6412 1.32074 27.512 1.32074 29.4258C1.32074 36.1244 3.01273 42.5837 5.67156 47.6077C6.3967 49.0431 7.60526 49.7608 8.57211 49.7608C10.0224 49.7608 11.2309 48.3254 11.7144 46.1723C12.1978 44.0192 12.4395 41.6268 12.6812 39.2344C13.4064 33.4928 14.3732 26.3158 16.3069 26.3158C18.2406 26.3158 19.2075 33.4928 19.9326 39.2344C20.1743 41.6268 20.6577 44.2584 20.8994 46.4115C21.3829 48.5646 22.5914 50 24.0417 50C25.2503 50 26.2171 49.2823 26.9422 47.8469C29.8428 42.823 31.2931 36.3636 31.2931 29.6651C31.2931 27.7512 31.5348 24.8804 31.7765 21.7703C32.985 14.1148 33.7102 5.98086 32.2599 2.87081ZM31.0513 21.2919C30.8096 24.6411 30.5679 27.2727 30.5679 29.4258C30.5679 35.8852 29.1177 42.1053 26.2171 46.8899C25.7337 47.8469 25.0085 48.5646 24.2834 48.5646C23.3166 48.5646 22.5914 47.6077 22.3497 45.933C21.8663 43.7799 21.6246 41.1483 21.3829 38.756C20.416 31.3397 19.4492 24.8804 16.5486 24.8804C13.4064 24.8804 12.6812 31.3397 11.7144 38.756C11.4727 41.1483 10.9892 43.5407 10.7475 45.6938C10.5058 47.3684 9.78067 48.3254 8.81382 48.3254C8.08868 48.3254 7.36355 47.8469 6.88012 46.6507C4.22129 41.866 2.5293 35.6459 2.5293 29.1866C2.5293 27.2727 2.28759 24.4019 2.04588 21.2919C1.32074 14.5933 0.595604 6.22008 2.04588 3.34927C3.01273 1.43539 4.463 0.956923 5.67156 0.956923C6.88012 0.956923 8.08869 1.19616 9.29725 1.91387C11.2309 2.8708 14.6149 3.58852 16.7903 3.58852C18.9657 3.58852 22.3497 3.11004 24.2834 1.91387C25.492 1.19616 26.7005 0.956923 27.9091 0.956923C29.1177 0.956923 30.8096 1.43539 31.5348 3.34927C32.5016 6.22008 31.7765 14.5933 31.0513 21.2919Z" fill="#00A3C8"/>
<path d="M25.9751 22.2489C20.174 23.2058 13.8895 23.2058 8.08842 22.4881C7.8467 22.4881 7.8467 22.4881 7.60499 22.4881C7.36328 22.4881 7.36328 22.7274 7.36328 22.9666C7.36328 23.2058 7.36328 23.2058 7.36328 23.4451C7.36328 23.6843 7.605 23.6843 7.84671 23.6843C10.7473 24.1628 13.6478 24.402 16.5483 24.402C19.9323 24.402 23.0746 24.1628 26.2168 23.6843C26.4585 23.6843 26.7003 23.4451 26.7003 22.9666C26.7003 22.7274 26.7003 22.7274 26.4586 22.4881C26.2168 22.2489 25.9751 22.2489 25.9751 22.2489Z" fill="#00A3C8"/>
<path d="M27.4259 3.11011C26.7008 3.11011 25.7339 3.34935 25.0088 3.82782C22.5917 5.26323 18.7243 5.74168 16.5489 5.74168C16.3071 5.74168 16.0654 5.98093 16.0654 6.22016C16.0654 6.4594 16.3071 6.69862 16.5489 6.69862C18.7243 6.69862 22.8334 6.22017 25.4922 4.78476C26.2173 4.30629 26.9425 4.30628 27.4259 4.30628C27.9093 4.30628 28.151 4.54553 28.151 4.78476C28.3928 5.02399 28.6345 5.26323 28.8762 5.02399C29.1179 5.02399 29.1179 4.78476 29.1179 4.78476C29.1179 4.54553 29.1179 4.54551 29.1179 4.30628C28.8762 3.58858 28.6345 3.11011 27.4259 3.11011Z" fill="#00A3C8"/>
<path d="M8.33092 4.54551C8.33092 4.30628 8.33092 4.30628 8.33092 4.06705C8.33092 3.82781 8.08921 3.82782 8.08921 3.82782C7.12236 3.34935 6.39722 3.11011 5.67208 3.11011C4.46352 3.11011 4.22181 3.58858 3.73839 4.30628C2.77154 6.45939 3.25496 13.3972 3.73839 19.8565C3.73839 20.0958 3.9801 20.335 4.22181 20.335C4.46353 20.335 4.46353 20.335 4.70524 20.0958C4.70524 20.0958 4.94695 19.8565 4.94695 19.6173C4.70524 15.7895 3.73839 6.69862 4.70524 4.54551C4.94695 4.30628 4.94695 4.06705 5.43037 4.06705C5.9138 4.06705 6.63893 4.30628 7.36407 4.54551C7.8475 5.02398 8.08921 4.78475 8.33092 4.54551Z" fill="#00A3C8"/>
</svg>
