<svg width="34" height="50" viewBox="0 0 34 50" fill="none" xmlns="http://www.w3.org/2000/svg">
<path d="M32.9638 20.13C32.7798 22.8221 32.0142 25.3783 30.6698 27.7206C29.3621 29.9995 27.7098 32.0426 26.2477 34.2199C25.4184 35.4551 24.6282 36.7236 23.9815 38.0648C23.2996 39.4796 23.1969 40.4463 23.6349 41.9538C24.4522 44.7614 24.2474 47.1813 21.5402 48.8753C16.7176 51.8927 9.92939 48.3408 7.08758 44.1027C6.32216 42.9614 8.16261 41.9002 8.92078 43.0308C10.2586 45.0247 12.5204 46.6072 14.7958 47.3413C17.0112 48.0553 20.3593 48.2696 21.7192 45.8434C22.7753 43.9572 20.9479 41.5365 21.2245 39.4708C21.5081 37.357 23.0633 35.1595 24.2298 33.4214C26.6655 29.7935 29.814 26.3602 30.6218 21.9213C31.3976 17.6596 30.3951 12.808 28.1591 9.09744C24.3401 2.76109 16.5489 0.517296 9.76925 3.27595C6.89119 4.44779 4.27839 6.55991 2.96069 9.42198C1.46269 12.6757 2.04089 16.2975 3.61287 19.4065C4.2286 20.6257 2.39731 21.7005 1.77903 20.4786C1.26012 19.451 0.795048 18.3793 0.487773 17.2681C-1.46164 10.2274 2.63209 3.81224 9.20471 1.22908C15.8888 -1.39886 24.0672 0.186032 28.5839 5.99654C31.6146 9.89836 33.301 15.1848 32.9638 20.13ZM14.0693 10.5081C14.4178 10.2624 14.8075 10.079 15.2049 9.92991C16.5466 9.42603 18.0023 9.20448 19.4185 9.03943C20.7621 8.88313 20.7771 6.75747 19.4185 6.9157C16.9745 7.20026 12.9472 7.53835 11.6661 10.0998C10.6575 12.1165 12.1315 14.2206 13.3465 15.7571C14.9807 17.8228 16.9371 19.6116 18.6496 21.6103C19.4083 22.4958 20.113 23.4332 20.6435 24.4756C21.038 25.2523 21.2075 26.0653 21.021 26.7541C20.5049 28.67 17.2663 29.5774 15.4192 30.0676C14.097 30.4187 14.6586 32.4669 15.9838 32.1152C18.6445 31.4093 22.1605 30.2643 23.0692 27.3181C23.7655 25.0601 22.2525 22.7583 20.9335 21.0662C19.2974 18.9689 17.3489 17.1454 15.5976 15.1487C14.898 14.3512 14.2307 13.5168 13.7473 12.5667C13.4196 11.9233 13.3839 11.3702 13.5841 11.0101C13.6634 10.8683 13.89 10.6338 14.0693 10.5081Z" fill="#00A3C8"/>
</svg>
