<svg width="50" height="34" viewBox="0 0 50 34" fill="none" xmlns="http://www.w3.org/2000/svg">
<path fill-rule="evenodd" clip-rule="evenodd" d="M40.9509 13.6486C35.6298 9.44935 30.1141 7.22998 24.9993 7.22998C19.8854 7.22998 14.3697 9.44935 9.04934 13.6486C5.06223 16.7958 2.61051 19.8994 2.50793 20.0306C2.28512 20.3144 2.28512 20.7142 2.50793 20.998C2.61051 21.1292 5.06223 24.2329 9.04934 27.38C14.3697 31.5792 19.8854 33.7986 24.9993 33.7986C30.1141 33.7986 35.6298 31.5792 40.9509 27.38C44.938 24.2329 47.3897 21.1292 47.4923 20.998C47.7151 20.7142 47.7151 20.3144 47.4923 20.0306C47.3897 19.8994 44.938 16.7958 40.9509 13.6486ZM24.9993 32.23C14.7908 32.23 6.08645 22.7818 4.1448 20.5143C6.08457 18.2453 14.7786 8.79857 24.9993 8.79857C35.2094 8.79857 43.9138 18.2469 45.8554 20.5143C43.9157 22.7833 35.2212 32.23 24.9993 32.23Z" fill="#00A3C8"/>
<path fill-rule="evenodd" clip-rule="evenodd" d="M49.8291 12.9964C49.4773 12.5554 41.0552 2.16262 27.4539 0.393399C15.5357 -1.1516 1.00438 7.11942 0.39133 7.4727C0.0178921 7.68785 -0.110311 8.16543 0.104845 8.53926C0.320392 8.9116 0.79797 9.03973 1.17063 8.82613C1.31641 8.74223 15.8614 0.46504 27.2525 1.94215C40.2118 3.62746 48.5259 13.8668 48.6084 13.9699C48.7628 14.1629 48.9898 14.2636 49.2191 14.2636C49.3899 14.2636 49.5616 14.2079 49.7055 14.0935C50.0423 13.8242 50.0976 13.3336 49.8291 12.9964Z" fill="#00A3C8"/>
<path fill-rule="evenodd" clip-rule="evenodd" d="M25.78 11.1157C20.5978 11.1157 16.3818 15.3317 16.3818 20.5143C16.3818 25.697 20.5978 29.913 25.78 29.913C30.9631 29.913 35.1795 25.697 35.1795 20.5143C35.1795 15.3317 30.9631 11.1157 25.78 11.1157ZM25.78 28.3032C21.4851 28.3032 17.9908 24.8089 17.9908 20.5143C17.9908 16.2198 21.4851 12.7255 25.78 12.7255C30.0758 12.7255 33.5704 16.2198 33.5704 20.5143C33.5704 24.8089 30.0758 28.3032 25.78 28.3032Z" fill="#00A3C8"/>
<path d="M27.7349 20.1237C28.8135 20.1237 29.688 19.2492 29.688 18.1705C29.688 17.0919 28.8135 16.2174 27.7349 16.2174C26.6562 16.2174 25.7817 17.0919 25.7817 18.1705C25.7817 19.2492 26.6562 20.1237 27.7349 20.1237Z" fill="#00A3C8"/>
</svg>
