<svg width="15" height="24" viewBox="0 0 15 24" fill="none" xmlns="http://www.w3.org/2000/svg">
<path d="M14.25 1.37458C14.25 1.20882 14.1842 1.04985 14.0669 0.932637C13.9497 0.815427 13.7908 0.749579 13.625 0.749579H10.5C8.9264 0.671192 7.38575 1.21882 6.21465 2.2728C5.04356 3.32679 4.33723 4.80145 4.25 6.37458V9.74958H1.125C0.95924 9.74958 0.800269 9.81543 0.683058 9.93264C0.565848 10.0498 0.5 10.2088 0.5 10.3746V13.6246C0.5 13.7903 0.565848 13.9493 0.683058 14.0665C0.800269 14.1837 0.95924 14.2496 1.125 14.2496H4.25V22.6246C4.25 22.7903 4.31585 22.9493 4.43306 23.0665C4.55027 23.1837 4.70924 23.2496 4.875 23.2496H8.625C8.79076 23.2496 8.94973 23.1837 9.06694 23.0665C9.18415 22.9493 9.25 22.7903 9.25 22.6246V14.2496H12.525C12.664 14.2516 12.7997 14.2072 12.9106 14.1234C13.0215 14.0397 13.1014 13.9213 13.1375 13.7871L14.0375 10.5371C14.0624 10.4447 14.0657 10.3479 14.0473 10.2541C14.0288 10.1602 13.9891 10.0719 13.9311 9.99579C13.8732 9.91972 13.7985 9.85796 13.713 9.81528C13.6274 9.77259 13.5331 9.75011 13.4375 9.74958H9.25V6.37458C9.28109 6.06517 9.42639 5.77847 9.65753 5.57044C9.88867 5.36242 10.189 5.24802 10.5 5.24958H13.625C13.7908 5.24958 13.9497 5.18373 14.0669 5.06652C14.1842 4.94931 14.25 4.79034 14.25 4.62458V1.37458Z" fill="white"/>
</svg>
