<svg width="52" height="52" viewBox="0 0 52 52" fill="none" xmlns="http://www.w3.org/2000/svg">
<g clip-path="url(#clip0_105_842)">
<path d="M20.0476 2.94434H6.56104V19.3423C12.1098 16.5764 16.7251 14.1703 20.0391 12.3036V2.94434H20.0476Z" fill="white"/>
<path d="M20.0479 15.583C16.5628 17.5096 12.0502 19.8387 6.56989 22.5447C6.56989 22.5447 6.43293 27.0488 6.18457 28.984C11.091 26.6207 16.2288 23.2555 20.0564 20.541V15.5831H20.0479V15.583Z" fill="#FFC10D"/>
<path d="M20.1078 28.4534C20.065 28.3078 20.0393 24.0605 20.0393 24.0605C15.835 26.9463 10.5087 30.2858 5.55948 32.4436C5.19985 34.0706 4.77175 35.6546 4.24934 37.1704C3.26466 40.0047 2.87073 42.428 3.05047 44.3118C9.60962 39.277 16.186 32.6407 20.1078 28.4534Z" fill="#56ACE0"/>
<path d="M26.427 33.4795L22.2655 30.3711C18.1124 34.7896 11.0652 41.9224 4.06934 47.1543C4.85706 48.1562 6.6296 49.355 11.031 49.0211C11.7161 48.8584 15.2353 48.0621 19.5426 47.6766C22.7107 42.9842 24.9799 37.5639 26.427 33.4795Z" fill="#FFC10D"/>
<path d="M28.8421 35.2783C27.5233 38.8919 25.6138 43.3446 23.0879 47.489C24.809 47.4547 26.4103 47.5318 27.866 47.7117C28.7137 47.8145 29.6299 47.9 30.6403 47.9428C31.8991 44.7403 32.7297 41.024 33.2435 38.104C31.5993 37.2135 30.1265 36.263 28.8421 35.2783Z" fill="#56ACE0"/>
<path d="M46.2674 48.0281C47.3463 48.0281 48.3054 47.5571 48.8363 46.778C49.8467 45.3737 48.0999 43.8067 45.4797 42.9504C43.476 42.3938 39.7854 41.255 35.9236 39.4482C35.4355 42.0685 34.7163 45.1597 33.6802 48.0111C33.817 48.0197 46.2674 48.0281 46.2674 48.0281Z" fill="white"/>
<path d="M46.2502 40.184C37.7815 37.8806 29.4069 32.5545 22.942 27.2969L22.9249 1.4969C22.9249 0.700566 22.2827 0.0498047 21.4778 0.0498047H5.12266C4.32633 0.0498047 3.67557 0.691957 3.67557 1.4969C3.67557 14.0758 4.54899 29.2663 1.51771 36.2193C-0.451795 40.732 -0.314701 44.611 0.849861 47.3253C2.17708 50.408 5.0971 51.9493 9.54977 51.9493C10.1234 51.9493 15.6637 50.8447 20.4417 50.485C23.0791 50.288 27.4976 50.5705 27.4976 50.5705C28.9704 50.8703 46.1561 51.2127 46.2503 50.9215C48.2797 50.9215 50.1293 49.9796 51.2082 48.4127C53.5544 44.9108 50.3262 41.3486 46.2502 40.184ZM27.8743 47.7023C26.4186 47.5139 24.8173 47.4539 23.0962 47.4796C25.6222 43.3438 27.5317 38.8825 28.8504 35.2689C30.1434 36.2536 31.6076 37.1955 33.2516 38.0947C32.7378 41.0145 31.9072 44.7395 30.6485 47.9334C29.6297 47.8907 28.722 47.8136 27.8743 47.7023ZM4.0695 47.1542C11.0653 41.9223 18.1297 34.7979 22.2657 30.371L26.4272 33.4707C24.9801 37.5552 22.7195 42.9756 19.5598 47.6594C15.2441 48.0361 11.7333 48.8326 11.0483 49.0038C6.62976 49.3548 4.84874 48.1561 4.0695 47.1542ZM4.24924 37.1614C4.77152 35.6458 5.20823 34.0616 5.55937 32.4346C10.5002 30.2768 15.8349 26.9459 20.0392 24.0516C20.0392 24.0516 20.0563 28.2988 20.1077 28.4444C16.1773 32.6402 9.60951 39.2849 3.04189 44.3114C2.86215 42.419 3.26455 39.9957 4.24924 37.1614ZM6.56128 2.94412H20.0393V12.2862C16.7255 14.1615 12.11 16.5676 6.56128 19.3248V2.94412ZM6.56128 22.5531C12.0329 19.8386 16.5541 17.5095 20.0393 15.5914V20.5493C16.2117 23.2551 11.074 26.6203 6.16748 28.9922C6.4414 27.0571 6.56128 22.5531 6.56128 22.5531ZM45.4882 42.9499C48.0998 43.8062 49.8467 45.3732 48.8448 46.7775C48.3139 47.5652 47.3463 48.0276 46.2759 48.0276C46.2759 48.0276 33.8341 48.019 33.697 48.019C34.7246 45.1676 35.4438 42.0763 35.9404 39.4562C39.7938 41.2629 43.4759 42.4018 45.4882 42.9499Z" fill="#194F82"/>
</g>
<defs>
<clipPath id="clip0_105_842">
<rect width="52" height="52" fill="white"/>
</clipPath>
</defs>
</svg>
