<svg width="52" height="52" viewBox="0 0 52 52" fill="none" xmlns="http://www.w3.org/2000/svg">
<g clip-path="url(#clip0_108_921)">
<path d="M23.8595 19.8187L7.47354 3.43287C6.75445 2.71378 5.59013 2.71378 4.87091 3.43287C4.15169 4.15196 4.15182 5.31628 4.87091 6.0355L18.6543 19.8189H23.8595V19.8187Z" fill="#56ACE0"/>
<path d="M26 44.0126C37.0524 44.0126 46.2042 34.5784 46.9747 22.7041H5.02539C6.2497 32.712 12.5764 43.6531 26 44.0126Z" fill="white"/>
<path d="M30.6057 46.418C29.1075 46.7347 27.5666 46.8974 25.9998 46.8974C24.4246 46.8974 22.8921 46.7347 21.3939 46.418C20.3581 47.1371 19.6133 48.0788 19.2451 49.1061H32.7545C32.3778 48.0703 31.6415 47.1286 30.6057 46.418Z" fill="#56ACE0"/>
<path d="M50.5531 19.8192H27.9519L9.52854 1.38731C7.6793 -0.453322 4.68296 -0.453322 2.84233 1.38731C1.00169 3.22794 1.00169 6.22428 2.84233 8.07352L14.5795 19.8107H1.44679C0.650624 19.8107 0 20.4527 0 21.2575C0 22.0537 0.642016 22.7043 1.44679 22.7043H2.1231C2.74804 33.2515 9.28871 42.1208 18.158 45.4596C16.8568 46.8893 16.1119 48.6615 16.0948 50.5278C16.0434 51.2298 16.7454 52.0346 17.5416 51.9918H34.4582C35.3057 51.9918 35.905 51.3069 35.905 50.5278C35.8879 48.6615 35.1516 46.8979 33.8588 45.4511C42.7195 42.0952 49.2516 33.2344 49.8766 22.6958H50.5529C51.3491 22.6958 51.9997 22.0538 51.9997 21.249C51.9914 20.4613 51.3492 19.8192 50.5531 19.8192ZM4.87975 6.03597C4.16066 5.31688 4.16066 4.15256 4.87975 3.43334C5.59884 2.71412 6.76315 2.71425 7.48238 3.43334L23.8597 19.8192H18.6632L4.87975 6.03597ZM19.2453 49.1067C19.6134 48.0708 20.3582 47.1291 21.394 46.4185C22.8922 46.7353 24.4247 46.8979 25.9999 46.8979C27.5752 46.8979 29.1076 46.7353 30.6058 46.4185C31.6417 47.1376 32.378 48.0793 32.7461 49.1067H19.2453ZM25.9999 44.0128C12.5763 43.6532 6.24959 32.7122 5.02529 22.7043H46.9746C46.2041 34.5785 37.0523 44.0128 25.9999 44.0128Z" fill="#194F82"/>
<path d="M15.153 25.5889C15.7865 25.743 16.2573 26.308 16.2573 26.9929C16.2573 27.789 15.6153 28.4397 14.8105 28.4397H9.14307C9.50261 29.4414 9.93923 30.4088 10.4443 31.3248H13.1582C13.9543 31.3248 14.605 31.9668 14.605 32.7716C14.605 33.5677 13.963 34.2183 13.1582 34.2183H12.3363C15.6751 38.4475 20.5635 41.1272 25.9998 41.1272C34.5608 41.1272 41.8035 34.4753 43.6698 25.5973H15.153V25.5889Z" fill="#FFC10D"/>
<path d="M22.1816 34.8014H24.964V37.5837C24.964 38.3799 25.606 39.0305 26.4108 39.0305C27.2069 39.0305 27.8576 38.3885 27.8576 37.5837V34.8014H30.6399C31.4361 34.8014 32.0867 34.1594 32.0867 33.3546C32.0867 32.5585 31.4447 31.9078 30.6399 31.9078H27.8576V29.1255C27.8576 28.3293 27.2155 27.6787 26.4108 27.6787C25.606 27.6787 24.964 28.3207 24.964 29.1255V31.9078H22.1816C21.3855 31.9078 20.7349 32.5499 20.7349 33.3546C20.7433 34.1593 21.3855 34.8014 22.1816 34.8014Z" fill="#194F82"/>
</g>
<defs>
<clipPath id="clip0_108_921">
<rect width="52" height="52" fill="white"/>
</clipPath>
</defs>
</svg>
