<svg width="207" height="182" viewBox="0 0 207 182" fill="none" xmlns="http://www.w3.org/2000/svg">
<path d="M40.3 61C40.9 59.8 42.2 59.1 43.5 59.1C44.8 59.1 46 59.9 46.6 61.2L58.4 87.2H89.6C90.8 87.2 91.9 87.8 92.5 88.8L95.5 93.3L98.4 88.8C99 87.8 100.2 87.2 101.3 87.2H107.3L121 48.5C121.5 47 123 46.1 124.5 46.2C126.1 46.3 127.4 47.5 127.7 49L138.9 105.2L151.3 58.7C151.7 57.2 153 56.1 154.6 56.1C156.1 56.1 157.5 57.1 158 58.5L169.9 95L177 83.7C177.6 82.7 178.8 82.1 180 82.1H206C209.1 63.3 204.6 45.2 197.6 32.2C187 12.5 169.4 0.200002 151.6 1.54076e-06C151.5 1.54076e-06 151.3 1.54076e-06 151.2 1.54076e-06C138.5 1.54076e-06 120.3 5.9 103.5 32.7C86.5 5.6 68.1 -0.0999985 55.4 1.54076e-06C37.6 0.200002 20 12.5 9.40002 32.1C1.80002 46.4 -2.89998 66.5 2.00002 87.1H26.9L40.3 61Z" fill="url(#paint0_linear_92_217)"/>
<path d="M171.8 105.1C171.1 106.3 169.8 106.9 168.4 106.7C167 106.5 165.9 105.6 165.5 104.3L155.3 72L142.1 121.4C141.7 122.9 140.3 124 138.7 124H138.6C137 123.9 135.6 122.8 135.3 121.2L123.6 62.7L113.3 91.8C112.8 93.2 111.5 94.1 110 94.1H103.4L98.7 101.5C98.1 102.5 97 103.1 95.8 103.1C94.6 103.1 93.5 102.5 92.9 101.5L87.9 94.1H56.2C54.8 94.1 53.6 93.3 53 92L43.2 70.5L32.2 92.2C31.6 93.4 30.4 94.1 29.1 94.1H4C5.9 99.7 8.6 105.3 12.1 110.8C28.9 136.6 58.2 159.6 101.9 180.9L103.4 181.7L104.9 180.9C148.6 159.5 177.9 136.6 194.7 110.8C199.3 103.7 202.5 96.3 204.4 89.1H181.8L171.8 105.1Z" fill="url(#paint1_linear_92_217)"/>
<path opacity="0.3" d="M101.9 180.9L103.4 181.7L104 181.4C102.6 180.7 101.3 179.9 100 179.1C87.2 171 76.8 159.7 67.1 148.1C56.4 135.4 46.2 122.1 38.8 107.3C37.7 105 36.6 102.7 35.6 100.3C34.4 97.5 33.3 94.7 32.4 91.8L32.2 92.2C31.6 93.4 30.4 94.1 29.1 94.1H4C5.9 99.7 8.6 105.3 12.1 110.8C28.9 136.6 58.3 159.6 101.9 180.9Z" fill="white"/>
<path opacity="0.3" d="M1.99981 87.1H26.8998L29.5998 81.9C27.7998 73.9 27.0998 65.7 27.9998 57.6C30.3998 35.3 44.6998 14.2 62.5998 1.00002C62.7998 0.900024 62.9998 0.700024 63.1998 0.600024C60.5998 0.100024 58.1998 -0.0999756 55.8998 -0.0999756C37.8998 0.100024 20.0998 12.5 9.49981 32.3C4.49981 41.6 0.799807 53.3 0.199807 66.1V66.2C0.199807 67 0.0998069 67.7 0.0998069 68.5C-0.100193 74.6 0.499807 80.9 1.99981 87.1Z" fill="white"/>
<defs>
<linearGradient id="paint0_linear_92_217" x1="-0.00537109" y1="52.5994" x2="206.997" y2="52.5994" gradientUnits="userSpaceOnUse">
<stop stop-color="white" stop-opacity="0"/>
<stop offset="0.479167" stop-color="#00A3C8" stop-opacity="0.65"/>
<stop offset="1" stop-color="#00A3C8"/>
</linearGradient>
<linearGradient id="paint1_linear_92_217" x1="4" y1="122.2" x2="204.4" y2="122.2" gradientUnits="userSpaceOnUse">
<stop stop-color="white" stop-opacity="0"/>
<stop offset="0.479167" stop-color="#00A3C8" stop-opacity="0.65"/>
<stop offset="1" stop-color="#00A3C8"/>
</linearGradient>
</defs>
</svg>
