<svg width="58" height="50" viewBox="0 0 58 50" fill="none" xmlns="http://www.w3.org/2000/svg">
<path d="M39.604 0C35.8427 0 32.0815 1.10619 28.9839 3.53982C25.8864 1.32743 22.1252 0 18.3639 0C8.18629 0 0 8.18584 0 18.3628C0 32.7434 27.4351 49.3363 28.5414 50C28.5414 50 28.7627 50 28.9839 50C29.2052 50 29.2052 50 29.4265 50C30.5327 49.3363 57.9679 32.5221 57.9679 18.3628C57.9679 8.18584 49.7816 0 39.604 0ZM39.604 1.32743C48.8966 1.32743 56.6404 8.84956 56.6404 18.3628C56.6404 31.1947 32.3027 46.6814 28.9839 48.6726C25.6652 46.6814 1.32746 30.9734 1.32746 18.3628C1.32746 9.0708 8.85004 1.32743 18.3639 1.32743C22.1252 1.32743 25.6652 2.43363 28.7627 4.86726C28.984 5.08849 29.4264 5.08849 29.6477 4.86726C32.3027 2.43363 35.8427 1.32743 39.604 1.32743Z" fill="#00A3C8"/>
<path d="M8.18639 13.7168H8.40772C8.62897 13.7168 8.8502 13.4955 9.07145 13.2743C10.8415 9.73448 14.3815 7.74333 18.3641 7.74333C18.8066 7.74333 19.0278 7.52209 19.0278 7.07961C19.0278 6.63713 18.8066 6.41589 18.3641 6.41589C13.939 6.41589 9.95646 8.84952 7.96519 12.8318C7.96519 13.0531 7.96519 13.0531 7.96519 13.2743C7.74394 13.4955 7.96514 13.4955 8.18639 13.7168Z" fill="#00A3C8"/>
<path d="M7.08034 19.0264C7.52285 19.0264 7.74421 18.8052 7.74421 18.3627C7.74421 17.4777 7.96535 16.3715 8.1866 15.4866C8.1866 15.2654 8.1866 15.0441 8.1866 15.0441C8.1866 14.8229 7.96546 14.8229 7.74421 14.8229C7.52295 14.8229 7.30168 14.8229 7.30168 14.8229C7.08042 14.8229 7.08034 15.0441 7.08034 15.2654C6.85909 16.3715 6.63795 17.2565 6.63795 18.3627C6.4167 18.5839 6.85909 19.0264 7.08034 19.0264Z" fill="#00A3C8"/>
<path d="M28.3204 10.6196L22.3466 30.3099L17.0365 17.0355C17.0365 16.8143 16.8153 16.5931 16.3728 16.5931C16.1515 16.5931 15.9303 16.8143 15.7091 17.0355L11.7266 25.2214H5.53154C5.08904 25.2214 4.86768 25.4426 4.86768 25.8851C4.86768 26.3276 5.08904 26.5488 5.53154 26.5488H12.1691C12.3903 26.5488 12.6116 26.3276 12.8328 26.1063L16.3728 18.8054L21.9041 32.5223C21.9041 32.7435 22.3466 32.9647 22.5678 32.9647C22.7891 32.9647 23.0104 32.7435 23.2317 32.5223L29.2054 13.0532L35.1792 32.5223C35.1792 32.7435 35.4004 32.9647 35.8429 32.9647C36.0642 32.9647 36.2855 32.7435 36.5068 32.5223L42.0381 18.8054L45.5781 26.1063C45.5781 26.3276 46.0205 26.5488 46.2418 26.5488H52.8793C53.3218 26.5488 53.5431 26.3276 53.5431 25.8851C53.5431 25.4426 53.3218 25.2214 52.8793 25.2214H46.6843L42.7018 17.0355C42.7018 16.8143 42.2593 16.5931 42.0381 16.5931C41.8168 16.5931 41.5955 16.8143 41.3742 17.0355L36.0643 30.3099L30.0904 10.6196C30.0904 10.3984 29.8692 10.1771 29.4267 10.1771C28.7629 10.1771 28.5417 10.1771 28.3204 10.6196Z" fill="#00A3C8"/>
</svg>
