<svg width="36" height="31" viewBox="0 0 36 31" fill="none" xmlns="http://www.w3.org/2000/svg">
<path d="M2.91309 22.9929H6.3466V19.7676H2.91309V22.9929ZM5.61833 20.3919V22.3686H3.5374V20.3919H5.61833Z" fill="white"/>
<path d="M25.8035 0L15.5029 9.36362L15.3988 9.46767V12.6929H0V30.2757H21.3295V22.9929C21.3295 20.6 23.3064 18.6232 25.6995 18.6232C28.0925 18.6232 30.0694 20.6 30.0694 22.9929V30.2757H36V9.46767L25.8035 0ZM20.7052 22.9929V29.5474H0.624252V13.2131H16.0232V9.67573L25.6995 0.728295L35.3757 9.67573V29.5474H30.6937V22.9929C30.6937 20.1838 28.4047 17.999 25.6995 17.999C22.9942 17.999 20.7052 20.2879 20.7052 22.9929Z" fill="white"/>
<path d="M2.91309 27.1545H6.3466V23.9293H2.91309V27.1545ZM5.61833 24.5535V26.5303H3.5374V24.5535H5.61833Z" fill="white"/>
<path d="M11.4453 27.1545H14.8788V23.9293H11.4453V27.1545ZM14.1505 24.5535V26.5303H12.0696V24.5535H14.1505Z" fill="white"/>
<path d="M2.91309 19.0394H6.3466V15.8141H2.91309V19.0394ZM5.61833 16.4383V18.4151H3.5374V16.4383H5.61833Z" fill="white"/>
<path d="M11.4453 22.9929H14.8788V19.7676H11.4453V22.9929ZM14.1505 20.3919V22.3686H12.0696V20.3919H14.1505Z" fill="white"/>
<path d="M7.1792 22.9929H10.6127V19.7676H7.1792V22.9929ZM9.88438 20.3919V22.3686H7.80345V20.3919H9.88438Z" fill="white"/>
<path d="M11.4453 19.0394H14.8788V15.8141H11.4453V19.0394ZM14.1505 16.4383V18.4151H12.0696V16.4383H14.1505Z" fill="white"/>
<path d="M7.1792 27.1545H10.6127V23.9293H7.1792V27.1545ZM9.88438 24.5535V26.5303H7.80345V24.5535H9.88438Z" fill="white"/>
<path d="M7.1792 19.0394H10.6127V15.8141H7.1792V19.0394ZM9.88438 16.4383V18.4151H7.80345V16.4383H9.88438Z" fill="white"/>
<path d="M24.1389 14.7737H27.4684V11.9646H30.2776V8.63532H27.4684V5.82625H24.1389V8.63532H21.2256V11.9646H24.1389V14.7737ZM24.7631 9.25957V6.4505H26.74V9.25957H29.5493V11.2363H26.74V14.0454H24.7631V11.2363H21.8498V9.25957H24.7631Z" fill="white"/>
</svg>
