<svg width="24" height="24" viewBox="0 0 24 24" fill="none" xmlns="http://www.w3.org/2000/svg">
<path fill-rule="evenodd" clip-rule="evenodd" d="M7.087 0.154508C8.35775 0.0960078 8.76292 0.0830078 11.9999 0.0830078C15.2369 0.0830078 15.6421 0.0970911 16.9118 0.154508C18.1814 0.211924 19.0481 0.414508 19.8064 0.708091C20.6005 1.00817 21.3209 1.47726 21.9168 2.08392C22.5234 2.67867 22.9914 3.39801 23.2904 4.19317C23.5851 4.95151 23.7866 5.81817 23.8451 7.08567C23.9036 8.35859 23.9166 8.76376 23.9166 11.9997C23.9166 15.2367 23.9025 15.6418 23.8451 16.9126C23.7877 18.1801 23.5851 19.0468 23.2904 19.8051C22.9914 20.6004 22.5226 21.3209 21.9168 21.9165C21.3209 22.5232 20.6005 22.9912 19.8064 23.2902C19.0481 23.5848 18.1814 23.7863 16.9139 23.8448C15.6421 23.9033 15.2369 23.9163 11.9999 23.9163C8.76292 23.9163 8.35775 23.9023 7.087 23.8448C5.8195 23.7874 4.95284 23.5848 4.1945 23.2902C3.39925 22.9911 2.67872 22.5224 2.08309 21.9165C1.47683 21.3214 1.00768 20.6012 0.708335 19.8062C0.414752 19.0478 0.213252 18.1812 0.154752 16.9137C0.0962519 15.6408 0.083252 15.2356 0.083252 11.9997C0.083252 8.76268 0.0973353 8.35751 0.154752 7.08784C0.212169 5.81817 0.414752 4.95151 0.708335 4.19317C1.00812 3.3981 1.47763 2.67793 2.08417 2.08284C2.67896 1.47672 3.39876 1.00757 4.19342 0.708091C4.95175 0.414508 5.81842 0.213008 7.08592 0.154508H7.087ZM16.8153 2.29951C15.5587 2.24209 15.1817 2.23017 11.9999 2.23017C8.81817 2.23017 8.44117 2.24209 7.1845 2.29951C6.02209 2.35259 5.39159 2.54651 4.97125 2.71009C4.4155 2.92676 4.01792 3.18351 3.60084 3.60059C3.20547 3.98523 2.9012 4.45348 2.71034 4.97101C2.54675 5.39134 2.35284 6.02184 2.29975 7.18426C2.24234 8.44092 2.23042 8.81792 2.23042 11.9997C2.23042 15.1814 2.24234 15.5584 2.29975 16.8151C2.35284 17.9775 2.54675 18.608 2.71034 19.0283C2.901 19.5451 3.20542 20.0142 3.60084 20.3988C3.98542 20.7942 4.4545 21.0986 4.97125 21.2893C5.39159 21.4528 6.02209 21.6468 7.1845 21.6998C8.44117 21.7573 8.81709 21.7692 11.9999 21.7692C15.1828 21.7692 15.5587 21.7573 16.8153 21.6998C17.9778 21.6468 18.6083 21.4528 19.0286 21.2893C19.5843 21.0726 19.9819 20.8158 20.399 20.3988C20.7944 20.0142 21.0988 19.5451 21.2895 19.0283C21.4531 18.608 21.647 17.9775 21.7001 16.8151C21.7575 15.5584 21.7694 15.1814 21.7694 11.9997C21.7694 8.81792 21.7575 8.44092 21.7001 7.18426C21.647 6.02184 21.4531 5.39134 21.2895 4.97101C21.0728 4.41526 20.8161 4.01767 20.399 3.60059C20.0143 3.20525 19.5461 2.90099 19.0286 2.71009C18.6083 2.54651 17.9778 2.35259 16.8153 2.29951ZM10.4778 15.6733C11.3279 16.0271 12.2744 16.0749 13.1558 15.8084C14.0371 15.5419 14.7986 14.9777 15.3102 14.2121C15.8217 13.4465 16.0516 12.5271 15.9606 11.6109C15.8696 10.6946 15.4633 9.8384 14.8112 9.18842C14.3954 8.77294 13.8927 8.4548 13.3393 8.25692C12.7858 8.05903 12.1954 7.98632 11.6105 8.04401C11.0255 8.1017 10.4607 8.28837 9.95654 8.59057C9.45241 8.89277 9.02156 9.30298 8.695 9.79168C8.36844 10.2804 8.15429 10.8354 8.06798 11.4168C7.98167 11.9982 8.02533 12.5915 8.19584 13.154C8.36634 13.7165 8.65944 14.2342 9.05403 14.6698C9.44863 15.1054 9.9349 15.4481 10.4778 15.6733ZM7.66875 7.66851C8.23753 7.09973 8.91277 6.64855 9.65591 6.34073C10.3991 6.03291 11.1955 5.87448 11.9999 5.87448C12.8043 5.87448 13.6008 6.03291 14.3439 6.34073C15.0871 6.64855 15.7623 7.09973 16.3311 7.66851C16.8999 8.23728 17.351 8.91252 17.6589 9.65566C17.9667 10.3988 18.1251 11.1953 18.1251 11.9997C18.1251 12.804 17.9667 13.6005 17.6589 14.3437C17.351 15.0868 16.8999 15.7621 16.3311 16.3308C15.1824 17.4795 13.6244 18.1249 11.9999 18.1249C10.3754 18.1249 8.81745 17.4795 7.66875 16.3308C6.52006 15.1821 5.87472 13.6242 5.87472 11.9997C5.87472 10.3752 6.52006 8.8172 7.66875 7.66851ZM19.4836 6.78667C19.6245 6.65372 19.7374 6.49383 19.8154 6.31648C19.8935 6.13913 19.9351 5.94792 19.938 5.75418C19.9408 5.56044 19.9047 5.3681 19.8319 5.18855C19.759 5.009 19.6509 4.84589 19.5139 4.70888C19.3769 4.57187 19.2138 4.46375 19.0342 4.3909C18.8547 4.31806 18.6623 4.28198 18.4686 4.28481C18.2748 4.28763 18.0836 4.3293 17.9063 4.40735C17.7289 4.48539 17.569 4.59823 17.4361 4.73917C17.1775 5.01329 17.0359 5.37739 17.0414 5.75418C17.0469 6.13097 17.199 6.49079 17.4655 6.75725C17.732 7.02372 18.0918 7.17584 18.4686 7.18133C18.8454 7.18683 19.2095 7.04526 19.4836 6.78667Z" fill="white"/>
</svg>
