<svg width="178" height="25" viewBox="0 0 178 25" fill="none" xmlns="http://www.w3.org/2000/svg">
<path d="M26.5755 0.702488C26.46 0.712212 26.2964 0.770554 26.2194 0.828897C26.0846 0.94072 26.0076 1.48039 24.9682 10.222C24.179 16.8585 24.2367 16.4793 24.1116 16.4161C24.0828 16.4064 23.9095 15.2687 23.7267 13.8928C23.3417 11.0923 23.3128 10.9513 23.1588 10.8833C22.9278 10.7909 22.2349 10.7277 22.0424 10.7812C21.9365 10.8055 21.436 11.1701 20.926 11.5834C20.1849 12.1814 19.9539 12.337 19.7903 12.337C19.6555 12.337 19.0492 12.1036 18.1926 11.7292C16.8067 11.1215 16.6527 11.0777 16.0752 11.1215C15.9983 11.1264 15.363 11.2965 14.6797 11.5007L13.4189 11.8751L6.9898 11.8994L0.551064 11.9237L0.358576 12.0453C0.21421 12.1376 0.175712 12.2154 0.21421 12.371C0.30083 12.7599 -0.28626 12.7308 7.20153 12.7162L13.9001 12.7016L14.7182 12.4537C15.7191 12.1474 16.1137 12.0453 16.287 12.0453C16.364 12.0453 17.0666 12.3321 17.8558 12.6822C19.694 13.4941 19.6267 13.4746 20.156 13.4309C20.5795 13.4017 20.618 13.3871 21.1281 12.9836C21.5804 12.6287 21.6767 12.5752 21.7921 12.6335C21.8884 12.6822 22.0135 13.3823 22.2637 15.2298C22.4562 16.6203 22.7835 18.9929 22.9952 20.5049C23.2069 22.017 23.3802 23.4561 23.3802 23.6992C23.3802 24.127 23.3898 24.1513 23.6208 24.2291C23.8036 24.2875 23.9961 24.302 24.3619 24.2875C25.026 24.2534 25.1318 24.1708 25.0837 23.7624C25.0548 23.4464 25.2954 21.2148 26.1231 14.2817C26.3637 12.264 26.691 9.56569 26.845 8.28702C26.9893 7.00348 27.1433 5.94846 27.1722 5.92901C27.2011 5.91442 27.2492 5.91442 27.2684 5.92415C27.2877 5.93387 27.7497 7.73763 28.2886 9.93034C28.8276 12.123 29.3184 13.9706 29.3858 14.0386C29.4821 14.1456 29.5687 14.1602 30.0403 14.1748C30.7044 14.1942 30.5889 14.2623 32.071 12.9447C32.8987 12.2154 33.2163 11.9723 33.3511 11.9723C33.4666 11.9723 33.6783 12.0841 33.9382 12.2883C34.1691 12.4634 34.4868 12.6627 34.66 12.7356L34.968 12.8718H42.7349H50.4922L50.8675 12.7454C51.0696 12.6724 51.4642 12.5217 51.7337 12.405C52.0032 12.2883 52.3208 12.1911 52.4363 12.1911C52.6769 12.1911 52.7828 12.264 54.2072 13.4017L55.2466 14.2331H55.7663C56.4015 14.2331 56.4593 14.2039 57.2292 13.426C57.5372 13.1197 57.8452 12.8718 57.903 12.8718C58.0666 12.8718 58.0954 12.969 58.2206 13.7469C58.3553 14.6123 58.9905 18.706 59.4621 21.6864C59.876 24.3166 59.8471 24.2486 60.5208 24.2486C61.0405 24.2486 61.3389 24.1513 61.4255 23.9569C61.464 23.8645 61.6469 22.4205 61.8297 20.748C62.1569 17.7725 62.513 14.6366 63.1675 8.91906C63.3407 7.34868 63.514 6.04569 63.5525 6.03111C63.5814 6.01166 63.6295 6.01166 63.6487 6.02138C63.668 6.03111 64.1011 7.66956 64.6112 9.66293C65.6602 13.7566 65.6987 13.8928 65.8335 13.9706C65.949 14.0435 66.7189 14.1018 66.9788 14.0629C67.0943 14.0435 67.5177 13.674 68.2299 12.969C69.0288 12.1619 69.3368 11.8994 69.4715 11.8994C69.5774 11.8994 69.8661 12.0404 70.1837 12.2495C70.4724 12.4439 70.8189 12.6481 70.944 12.7016C71.1654 12.7988 71.2713 12.7988 86.6318 12.7745C101.29 12.7502 102.108 12.7454 102.272 12.6627C102.512 12.546 102.512 12.1279 102.272 12.0112C102.108 11.9286 101.396 11.9237 87.1034 11.9432C78.8649 11.9529 72.022 11.9432 71.9065 11.9286C71.791 11.9091 71.3098 11.6466 70.8382 11.3403C70.3569 11.034 69.8661 10.7569 69.7506 10.718C69.6062 10.6742 69.3753 10.6548 69.1154 10.6693C68.6245 10.6985 68.5572 10.7471 67.7102 11.598C67.2001 12.1182 67.0654 12.2008 66.9307 12.0939C66.9018 12.0696 66.3147 9.86713 65.6314 7.19796C63.9663 0.70735 64.0337 0.969891 63.899 0.887239C63.7353 0.790003 62.8114 0.790003 62.6093 0.887239C62.4264 0.979614 62.3976 1.12547 62.1666 3.22094C62.0607 4.18359 61.8393 6.09917 61.6853 7.47509C61.5314 8.851 61.2234 11.5882 61.0116 13.5524C60.7903 15.5166 60.5785 17.1697 60.54 17.2232C60.4727 17.3058 60.4534 17.2961 60.4053 17.1502C60.3668 17.0578 60.1454 15.6674 59.8952 14.0629C59.6546 12.4585 59.4044 11.0923 59.337 11.0243C59.26 10.9367 59.1156 10.893 58.8269 10.859C58.0569 10.7763 58.0569 10.7812 56.9213 11.8994C56.0454 12.7697 55.8626 12.9253 55.6893 12.9107C55.5546 12.9009 55.1889 12.6481 54.4959 12.0939C53.9377 11.6514 53.4276 11.2576 53.3506 11.2139C53.2736 11.1701 53.0234 11.1166 52.8116 11.102C52.3593 11.0632 52.3304 11.0729 51.0504 11.6077C50.6269 11.7876 50.1842 11.9577 50.0687 11.9918C49.7511 12.0744 35.7957 12.0696 35.5839 11.982C35.4973 11.9529 35.0835 11.6563 34.6504 11.3306C34.2269 11.0048 33.7938 10.7131 33.6975 10.6888C33.5147 10.6402 32.8217 10.7131 32.6485 10.7957C32.61 10.8152 32.1865 11.175 31.7053 11.5931C31.2337 12.0112 30.791 12.3613 30.7236 12.371C30.6659 12.3807 30.5889 12.3516 30.56 12.3029C30.5311 12.2543 29.8767 9.67752 29.1067 6.57564C28.3368 3.47862 27.6823 0.901825 27.6534 0.848345C27.5668 0.702488 27.1529 0.649008 26.5755 0.702488Z" fill="white"/>
<path d="M101.962 0.702488C101.846 0.712212 101.683 0.770554 101.606 0.828897C101.471 0.94072 101.394 1.48039 100.354 10.222C99.5652 16.8585 99.623 16.4793 99.4979 16.4161C99.469 16.4064 99.2957 15.2687 99.1129 13.8928C98.7279 11.0923 98.699 10.9513 98.545 10.8833C98.3141 10.7909 97.6211 10.7277 97.4286 10.7812C97.3227 10.8055 96.8223 11.1701 96.3122 11.5834C95.5711 12.1814 95.3401 12.337 95.1765 12.337C95.0418 12.337 94.4354 12.1036 93.5788 11.7292C92.1929 11.1215 92.0389 11.0777 91.4615 11.1215C91.3845 11.1264 90.7493 11.2965 90.0659 11.5007L88.8051 11.8751L82.376 11.8994L75.9373 11.9237L75.7448 12.0453C75.6004 12.1376 75.5619 12.2154 75.6004 12.371C75.6871 12.7599 75.1 12.7308 82.5878 12.7162L89.2864 12.7016L90.1044 12.4537C91.1054 12.1474 91.5 12.0453 91.6732 12.0453C91.7502 12.0453 92.4528 12.3321 93.242 12.6822C95.0803 13.4941 95.0129 13.4746 95.5422 13.4309C95.9657 13.4017 96.0042 13.3871 96.5143 12.9836C96.9666 12.6287 97.0629 12.5752 97.1784 12.6335C97.2746 12.6822 97.3997 13.3823 97.65 15.2298C97.8425 16.6203 98.1697 18.9929 98.3814 20.5049C98.5932 22.017 98.7664 23.4561 98.7664 23.6992C98.7664 24.127 98.776 24.1513 99.007 24.2291C99.1899 24.2875 99.3824 24.302 99.7481 24.2875C100.412 24.2534 100.518 24.1708 100.47 23.7624C100.441 23.4464 100.682 21.2148 101.509 14.2817C101.75 12.264 102.077 9.56569 102.231 8.28702C102.376 7.00348 102.53 5.94846 102.558 5.92901C102.587 5.91442 102.635 5.91442 102.655 5.92415C102.674 5.93387 103.136 7.73763 103.675 9.93034C104.214 12.123 104.705 13.9706 104.772 14.0386C104.868 14.1456 104.955 14.1602 105.427 14.1748C106.091 14.1942 105.975 14.2623 107.457 12.9447C108.285 12.2154 108.603 11.9723 108.737 11.9723C108.853 11.9723 109.065 12.0841 109.324 12.2883C109.555 12.4634 109.873 12.6627 110.046 12.7356L110.354 12.8718H118.121H125.878L126.254 12.7454C126.456 12.6724 126.85 12.5217 127.12 12.405C127.389 12.2883 127.707 12.1911 127.823 12.1911C128.063 12.1911 128.169 12.264 129.593 13.4017L130.633 14.2331H131.153C131.788 14.2331 131.846 14.2039 132.615 13.426C132.923 13.1197 133.231 12.8718 133.289 12.8718C133.453 12.8718 133.482 12.969 133.607 13.7469C133.742 14.6123 134.377 18.706 134.848 21.6864C135.262 24.3166 135.233 24.2486 135.907 24.2486C136.427 24.2486 136.725 24.1513 136.812 23.9569C136.85 23.8645 137.033 22.4205 137.216 20.748C137.543 17.7725 137.899 14.6366 138.554 8.91906C138.727 7.34868 138.9 6.04569 138.939 6.03111C138.968 6.01166 139.016 6.01166 139.035 6.02138C139.054 6.03111 139.487 7.66956 139.997 9.66293C141.046 13.7566 141.085 13.8928 141.22 13.9706C141.335 14.0435 142.105 14.1018 142.365 14.0629C142.48 14.0435 142.904 13.674 143.616 12.969C144.415 12.1619 144.723 11.8994 144.858 11.8994C144.964 11.8994 145.252 12.0404 145.57 12.2495C145.859 12.4439 146.205 12.6481 146.33 12.7016C146.552 12.7988 146.657 12.7988 162.018 12.7745C176.676 12.7502 177.494 12.7454 177.658 12.6627C177.898 12.546 177.898 12.1279 177.658 12.0112C177.494 11.9286 176.782 11.9237 162.49 11.9432C154.251 11.9529 147.408 11.9432 147.293 11.9286C147.177 11.9091 146.696 11.6466 146.224 11.3403C145.743 11.034 145.252 10.7569 145.137 10.718C144.992 10.6742 144.761 10.6548 144.502 10.6693C144.011 10.6985 143.943 10.7471 143.096 11.598C142.586 12.1182 142.452 12.2008 142.317 12.0939C142.288 12.0696 141.701 9.86713 141.018 7.19796C139.353 0.70735 139.42 0.969891 139.285 0.887239C139.122 0.790003 138.198 0.790003 137.996 0.887239C137.813 0.979614 137.784 1.12547 137.553 3.22094C137.447 4.18359 137.226 6.09917 137.072 7.47509C136.918 8.851 136.61 11.5882 136.398 13.5524C136.177 15.5166 135.965 17.1697 135.926 17.2232C135.859 17.3058 135.84 17.2961 135.792 17.1502C135.753 17.0578 135.532 15.6674 135.281 14.0629C135.041 12.4585 134.791 11.0923 134.723 11.0243C134.646 10.9367 134.502 10.893 134.213 10.859C133.443 10.7763 133.443 10.7812 132.307 11.8994C131.432 12.7697 131.249 12.9253 131.076 12.9107C130.941 12.9009 130.575 12.6481 129.882 12.0939C129.324 11.6514 128.814 11.2576 128.737 11.2139C128.66 11.1701 128.41 11.1166 128.198 11.102C127.746 11.0632 127.717 11.0729 126.437 11.6077C126.013 11.7876 125.57 11.9577 125.455 11.9918C125.137 12.0744 111.182 12.0696 110.97 11.982C110.884 11.9529 110.47 11.6563 110.037 11.3306C109.613 11.0048 109.18 10.7131 109.084 10.6888C108.901 10.6402 108.208 10.7131 108.035 10.7957C107.996 10.8152 107.573 11.175 107.092 11.5931C106.62 12.0112 106.177 12.3613 106.11 12.371C106.052 12.3807 105.975 12.3516 105.946 12.3029C105.917 12.2543 105.263 9.67752 104.493 6.57564C103.723 3.47862 103.069 0.901825 103.04 0.848345C102.953 0.702488 102.539 0.649008 101.962 0.702488Z" fill="white"/>
</svg>
