<svg width="36" height="31" viewBox="0 0 36 31" fill="none" xmlns="http://www.w3.org/2000/svg">
<path d="M28.676 30.26H6.73951C3.03939 30.26 0 27.2208 0 23.5209V11.2319C0 7.53198 3.03939 4.4928 6.73951 4.4928H28.676C32.3761 4.4928 35.2833 7.53198 35.2833 11.2319V23.5209C35.4155 27.3529 32.3761 30.26 28.676 30.26ZM6.73951 5.1535C3.43583 5.1535 0.660736 7.9284 0.660736 11.2319V23.5209C0.660736 26.8244 3.43583 29.5993 6.73951 29.5993H28.676C31.9796 29.5993 34.7547 26.8244 34.7547 23.5209V11.2319C34.7547 7.9284 31.9796 5.1535 28.676 5.1535H6.73951Z" fill="white"/>
<path d="M3.83217 15.1961C3.70002 15.1961 3.56787 15.0639 3.56787 14.9318V12.8176C3.56787 10.0426 5.81438 7.66412 8.72162 7.66412C8.85376 7.66412 8.98591 7.79624 8.98591 7.92838C8.98591 8.06052 8.85376 8.19267 8.72162 8.19267C6.21082 8.19267 4.22861 10.1748 4.22861 12.6854V14.7997C4.09646 15.0639 3.96431 15.1961 3.83217 15.1961Z" fill="white"/>
<path d="M22.4649 5.02132C22.3328 5.02132 22.2006 4.88916 22.2006 4.75702V3.17137C22.2006 2.37853 21.5399 1.58568 20.6149 1.58568C20.4827 1.58568 20.3506 1.45352 20.3506 1.32138C20.3506 1.18924 20.4827 1.05713 20.6149 1.05713C21.8042 1.05713 22.7292 1.98211 22.7292 3.17137V4.75702C22.7292 4.88916 22.5971 5.02132 22.4649 5.02132Z" fill="white"/>
<path d="M12.6862 5.02132C12.554 5.02132 12.4219 4.88916 12.4219 4.75702V3.17137C12.4219 1.98211 13.3469 1.05713 14.5362 1.05713C14.6684 1.05713 14.8005 1.18924 14.8005 1.32138C14.8005 1.45352 14.6684 1.58568 14.5362 1.58568C13.7433 1.58568 12.9505 2.24639 12.9505 3.17137V4.75702C12.9505 4.88916 12.8183 5.02132 12.6862 5.02132Z" fill="white"/>
<path d="M17.7077 26.4279C12.6861 26.4279 8.72168 22.3316 8.72168 17.4424C8.72168 17.3103 8.85382 17.1782 8.98597 17.1782C9.11812 17.1782 9.25027 17.3103 9.25027 17.4424C9.25027 22.0673 13.0825 25.8994 17.7077 25.8994C22.3328 25.8994 26.1651 22.0673 26.1651 17.4424C26.1651 12.8176 22.3328 8.98552 17.7077 8.98552C17.5755 8.98552 17.4434 8.85336 17.4434 8.72123C17.4434 8.58909 17.5755 8.45697 17.7077 8.45697C22.7293 8.45697 26.6937 12.5533 26.6937 17.4424C26.6937 22.4638 22.7293 26.4279 17.7077 26.4279Z" fill="white"/>
<path d="M11.1004 12.0247C11.1004 12.0247 10.9683 12.0247 10.9683 11.8926C10.8361 11.7604 10.8361 11.6283 10.9683 11.4962C12.0254 10.1748 13.4791 9.24981 15.0648 8.85339C15.197 8.85339 15.3291 8.8534 15.4613 8.98554C15.4613 9.11768 15.4613 9.2498 15.3291 9.38194C13.8755 9.9105 12.554 10.7033 11.4968 11.8926C11.2325 12.0247 11.2325 12.0247 11.1004 12.0247Z" fill="white"/>
<path d="M9.25014 15.5925C8.98584 15.5925 8.98584 15.3282 8.98584 15.196C9.11799 14.5354 9.38228 13.8747 9.77873 13.214C9.91087 13.0818 10.043 13.0818 10.1752 13.0818C10.3073 13.214 10.3073 13.3461 10.3073 13.4783C10.043 14.1389 9.77873 14.6675 9.51443 15.3282C9.51443 15.4603 9.38228 15.5925 9.25014 15.5925Z" fill="white"/>
<path d="M19.8223 23.1244H15.7257C15.5935 23.1244 15.4614 22.9923 15.4614 22.8602V19.821H12.422C12.2899 19.821 12.1577 19.6888 12.1577 19.5567V15.4604C12.1577 15.3282 12.2899 15.1961 12.422 15.1961H15.4614V12.1569C15.4614 12.0247 15.5935 11.8926 15.7257 11.8926H19.8223C19.9544 11.8926 20.0866 12.0247 20.0866 12.1569V15.1961H23.1259C23.2581 15.1961 23.3902 15.3282 23.3902 15.4604V19.5567C23.3902 19.6888 23.2581 19.821 23.1259 19.821H20.0866V22.8602C20.0866 22.9923 19.9544 23.1244 19.8223 23.1244ZM15.99 22.5959H19.558V19.5567C19.558 19.4246 19.6901 19.2924 19.8223 19.2924H22.8616V15.7247H19.8223C19.6901 15.7247 19.558 15.5925 19.558 15.4604V12.4212H15.99V15.4604C15.99 15.5925 15.8578 15.7247 15.7257 15.7247H12.6863V19.2924H15.7257C15.8578 19.2924 15.99 19.4246 15.99 19.5567V22.5959Z" fill="white"/>
<path d="M20.7472 0.528591H14.5363C14.4041 0.528591 14.272 0.396435 14.272 0.264295C14.272 0.132156 14.4041 0 14.5363 0H20.7472C20.8793 0 21.0115 0.132156 21.0115 0.264295C21.0115 0.396435 20.8793 0.528591 20.7472 0.528591Z" fill="white"/>
<path d="M20.7472 2.64278H14.5363C14.4041 2.64278 14.272 2.51066 14.272 2.37852C14.272 2.24638 14.4041 2.11423 14.5363 2.11423H20.7472C20.8793 2.11423 21.0115 2.24638 21.0115 2.37852C21.0115 2.51066 20.8793 2.64278 20.7472 2.64278Z" fill="white"/>
</svg>
