<svg width="24" height="31" viewBox="0 0 24 31" fill="none" xmlns="http://www.w3.org/2000/svg">
<path d="M6.56071 28.7986C5.89352 28.7986 5.44873 28.2426 5.44873 27.6867C5.44873 27.0195 6.00472 26.5748 6.56071 26.5748C7.2279 26.5748 7.67269 27.1307 7.67269 27.6867C7.67269 28.2426 7.2279 28.7986 6.56071 28.7986ZM6.56071 26.7972C6.11592 26.7972 5.78232 27.1307 5.78232 27.5755C5.78232 28.0202 6.11592 28.3538 6.56071 28.3538C7.0055 28.3538 7.33909 28.0202 7.33909 27.5755C7.33909 27.1307 7.0055 26.7972 6.56071 26.7972ZM6.56071 28.3538C6.11592 28.3538 5.78232 28.0202 5.78232 27.5755C5.78232 27.1307 6.11592 26.7972 6.56071 26.7972C7.0055 26.7972 7.33909 27.1307 7.33909 27.5755C7.33909 28.0202 7.0055 28.3538 6.56071 28.3538ZM6.56071 27.2419C6.33831 27.2419 6.22712 27.4643 6.22712 27.5755C6.22712 27.7979 6.44951 27.9091 6.56071 27.9091C6.7831 27.9091 6.8943 27.6867 6.8943 27.5755C7.0055 27.3531 6.7831 27.2419 6.56071 27.2419Z" fill="white"/>
<path d="M22.9068 30.8H0.222394C0.111197 30.8 0 30.6888 0 30.5776V26.2412C0 23.0166 2.55755 20.4592 5.89349 20.348C6.00468 20.348 6.00468 20.348 6.00468 20.4592V20.5704C5.3375 23.239 5.67109 25.4628 5.89349 26.13C5.89349 26.2412 5.89349 26.2412 5.78229 26.3523C5.3375 26.5747 5.0039 27.1307 5.0039 27.5755C5.0039 28.3538 5.67109 29.021 6.44948 29.021C7.22786 29.021 7.89505 28.3538 7.89505 27.5755C7.89505 26.7971 7.22786 26.13 6.44948 26.13C6.44948 26.13 6.44947 26.13 6.33828 26.13H6.22708C6.11588 26.13 6.00468 26.13 6.00468 26.0188C5.78229 25.1292 5.55989 23.0166 6.22708 20.4592C6.22708 20.348 6.33828 20.348 6.44948 20.348H7.78385V19.2361H4.22552C4.11432 19.2361 4.11432 19.2361 4.11432 19.1249C4.11432 19.0137 4.11432 19.0137 4.11432 18.9025C5.1151 18.013 5.1151 15.9004 4.89271 14.8996C4.11432 10.1184 5.1151 7.89457 5.89349 6.89385L4.22552 2.89098C4.22552 2.77979 4.22552 2.77978 4.22552 2.66859L4.55911 2.33503C4.67031 2.22383 6.67187 0 11.3422 0C16.0125 0 18.0141 2.22383 18.1253 2.33503L18.4588 2.66859C18.4588 2.66859 18.57 2.77979 18.4588 2.89098L16.6797 7.00504C17.3469 8.00577 18.3476 10.2296 17.5693 14.7884C17.3469 15.7892 17.3469 17.9018 18.3476 18.7913C18.4588 18.7913 18.4588 18.9025 18.3476 19.0137C18.3476 19.1249 18.2365 19.1249 18.2365 19.1249H14.6781V20.2368H16.4573H16.5685H16.6797C16.7909 20.2368 16.9021 20.348 16.9021 20.4592V22.2383C16.9021 22.3495 16.7909 22.4606 16.6797 22.4606H16.5685C15.2341 22.4606 14.1221 23.5726 14.1221 24.9069H14.5669C14.5669 24.7957 14.5669 24.6845 14.5669 24.5733C14.5669 24.4621 14.6781 24.3509 14.6781 24.2397C14.7893 24.0173 14.9005 23.7949 15.1229 23.5726C15.2341 23.4614 15.3453 23.3502 15.4565 23.3502C15.5677 23.239 15.6789 23.239 15.7901 23.1278C16.0125 23.0166 16.3461 23.0166 16.5685 23.0166H17.4581C17.7917 23.0166 18.0141 23.0166 18.2365 23.1278C18.3476 23.1278 18.4588 23.239 18.57 23.3502C18.6812 23.4614 18.7924 23.4614 18.9036 23.5726C19.126 23.7949 19.2372 24.0173 19.3484 24.2397C19.3484 24.3509 19.4596 24.4621 19.4596 24.5733C19.4596 24.6845 19.4596 24.7957 19.4596 24.9069H19.9044C19.9044 23.5726 18.7924 22.4606 17.4581 22.4606H17.6805C17.5693 22.4606 17.4581 22.3495 17.4581 22.2383V20.4592C17.4581 20.4592 17.4581 20.348 17.5693 20.348H17.6805C20.794 20.7928 23.018 23.1278 23.018 26.2412V30.5776C23.018 30.6888 23.018 30.8 22.9068 30.8ZM0.444791 30.3552H22.6844V26.2412C22.6844 23.4614 20.6828 21.2375 17.9029 20.7928V22.1271C19.4596 22.1271 20.5716 23.4614 20.5716 24.9069V25.0181C20.5716 25.1293 20.4604 25.2404 20.3492 25.2404H19.5708C19.4596 25.2404 19.3484 25.1293 19.3484 25.0181V24.9069C19.3484 24.7957 19.3484 24.6845 19.3484 24.5733C19.3484 24.4621 19.2372 24.3509 19.2372 24.2397C19.126 24.0173 19.0148 23.9061 18.9036 23.6838C18.7924 23.5726 18.7924 23.5726 18.6812 23.4614C18.57 23.3502 18.4588 23.3502 18.3476 23.3502C18.1252 23.239 17.9029 23.239 17.6805 23.239H16.7909C16.5685 23.239 16.3461 23.239 16.1237 23.3502C16.0125 23.3502 15.9013 23.4614 15.7901 23.4614C15.6789 23.5726 15.5677 23.5726 15.5677 23.6838C15.4565 23.7949 15.2341 24.0173 15.2341 24.2397C15.2341 24.3509 15.1229 24.4621 15.1229 24.5733C15.1229 24.6845 15.1229 24.7957 15.1229 24.9069V25.0181C15.1229 25.1293 15.0117 25.2404 14.9005 25.2404H14.3445C14.2333 25.2404 14.1221 25.1293 14.1221 25.0181V24.9069C14.1221 23.3502 15.3453 22.1271 16.7909 22.1271V20.6816H14.9005H14.7893V20.5704V19.0137C14.7893 18.9025 14.9005 18.7913 15.0117 18.7913H18.2365C17.1245 17.457 17.5693 14.8996 17.5693 14.7884C18.3476 10.2296 17.3469 8.00577 16.6797 7.11624C16.6797 7.11624 16.6797 7.00504 16.6797 6.89385L18.3476 2.77979L18.1253 2.55739C18.0141 2.4462 16.1237 0.444759 11.6758 0.444759C7.22786 0.444759 5.3375 2.55739 5.2263 2.55739L5.0039 2.77979L6.67187 6.78268C6.67187 6.89387 6.67187 6.89385 6.67187 7.00504C6.00468 7.89458 4.89271 10.0072 5.67109 14.7884C5.67109 14.8996 6.11588 17.457 5.0039 18.7913H8.22864C8.33984 18.7913 8.45104 18.9025 8.45104 19.0137V20.5704C8.45104 20.6816 8.33984 20.7928 8.22864 20.7928H6.78307C6.22708 23.0166 6.44948 25.0181 6.56067 25.9076C7.56145 25.9076 8.33984 26.6859 8.33984 27.6867C8.33984 28.6874 7.56145 29.4657 6.56067 29.4657C5.55989 29.4657 4.78151 28.6874 4.78151 27.6867C4.78151 27.1307 5.1151 26.5748 5.55989 26.2412C5.4487 25.4628 5.1151 23.3502 5.67109 20.904C2.55755 21.1264 0.333593 23.4614 0.333593 26.4635V30.3552H0.444791ZM18.2365 30.0217C18.0141 30.0217 17.9029 30.0217 17.7917 29.9105C17.6805 29.7993 17.5693 29.6881 17.5693 29.5769C17.5693 29.4657 17.5693 29.2433 17.6805 29.1321C17.7917 28.9097 18.0141 28.7986 18.2365 28.7986C18.3476 28.7986 18.57 28.7986 18.6812 28.7986C19.3484 28.465 19.682 27.909 19.682 27.1307V25.4628C19.682 25.3516 19.7932 25.2404 19.9044 25.2404H20.4604C20.5716 25.2404 20.6828 25.3516 20.6828 25.4628V27.1307C20.6828 28.1314 20.1268 29.1322 19.126 29.5769C19.0148 29.7993 18.7924 30.0217 18.4588 30.0217C18.3476 30.0217 18.2365 30.0217 18.2365 30.0217ZM18.3476 29.021C18.3476 29.021 18.2364 29.1322 18.3476 29.021C18.1252 29.021 18.0141 29.1321 17.9029 29.2433C17.9029 29.2433 17.7917 29.3545 17.9029 29.4657C17.9029 29.5769 18.0141 29.5769 18.0141 29.5769C18.1252 29.6881 18.2364 29.6881 18.3476 29.6881C18.57 29.6881 18.6812 29.5769 18.6812 29.4657C18.6812 29.4657 18.6812 29.3545 18.7924 29.3545C19.682 29.021 20.1268 28.1314 20.1268 27.2419V25.7964H19.9044V27.2419C19.9044 28.1314 19.3484 28.9098 18.57 29.2433H18.4588C18.4588 29.1321 18.4588 29.021 18.3476 29.021ZM16.5685 30.0217H16.4573C16.1237 30.0217 15.9013 29.7993 15.7901 29.5769C14.9005 29.1322 14.2333 28.1314 14.2333 27.1307V25.4628C14.2333 25.3516 14.3445 25.2404 14.4557 25.2404H15.0117C15.1229 25.2404 15.2341 25.3516 15.2341 25.4628V27.1307C15.2341 27.7978 15.6789 28.465 16.2349 28.7986C16.3461 28.7986 16.5685 28.6874 16.6797 28.7986C16.9021 28.7986 17.1245 28.9097 17.2357 29.1321C17.3469 29.2433 17.3469 29.4657 17.3469 29.5769C17.3469 29.6881 17.2357 29.9105 17.1245 29.9105C16.9021 30.0217 16.6797 30.0217 16.5685 30.0217ZM14.5669 25.6852V27.1307C14.5669 28.0202 15.1229 28.9098 15.9013 29.2433L16.0125 29.3545C16.0125 29.4657 16.2349 29.5769 16.3461 29.5769C16.4573 29.5769 16.5685 29.5769 16.6797 29.4657L16.7909 29.3545C16.7909 29.2433 16.7909 29.2433 16.7909 29.1321C16.6797 29.0209 16.5685 29.021 16.4573 28.9098C16.3461 28.9098 16.2349 28.9098 16.1237 28.9098H16.0125C15.2341 28.5762 14.6781 27.7978 14.6781 26.9083V25.4628H14.5669V25.6852ZM11.5646 23.4614C10.0078 23.4614 8.67343 22.1271 8.67343 20.4592V19.0137C8.67343 18.9025 8.67343 18.9025 8.78463 18.9025C8.78463 18.9025 8.89583 18.9025 9.00703 18.9025C9.78541 19.3473 10.675 19.5697 11.5646 19.5697C12.4542 19.5697 13.3437 19.3473 14.1221 18.9025C14.1221 18.9025 14.2333 18.9025 14.3445 18.9025L14.4557 19.0137V20.4592C14.3445 22.2383 13.1213 23.4614 11.5646 23.4614ZM9.00703 19.3473V20.4592C9.00703 21.9047 10.119 23.0166 11.4534 23.0166C12.899 23.0166 13.8997 21.9047 13.8997 20.4592V19.3473C13.1213 19.6809 12.2318 19.9033 11.4534 19.9033C10.675 19.9033 9.89661 19.7921 9.00703 19.3473ZM11.5646 19.2361C11.3422 19.2361 11.1198 19.2361 10.7862 19.1249C9.34062 18.9025 8.22864 18.1242 7.78385 17.5682C7.56145 17.2347 7.45026 16.5675 7.33906 15.3444V15.2332H7.22786C7.22786 15.2332 7.22786 15.2332 7.11666 15.2332C6.56067 15.2332 6.11588 14.5661 6.00468 13.4542C5.89349 12.8982 6.00468 12.3422 6.22708 12.1199C6.33828 12.0087 6.56067 11.8975 6.78307 11.8975C6.89427 11.8975 6.89427 11.8975 7.00546 12.0087C7.11666 12.231 7.11666 12.4534 7.22786 12.6758C7.33906 12.1199 7.56145 11.1191 7.56145 10.7855C7.67265 10.452 7.67265 10.0072 7.78385 9.45127C7.78385 9.22889 7.89505 8.8953 7.89505 8.67292C7.89505 8.56172 7.89505 8.56172 8.00624 8.56172C8.00624 8.56172 8.11744 8.56172 8.22864 8.56172C8.56223 8.7841 9.56302 9.34006 11.5646 9.67363C12.4542 9.78482 13.6773 9.89604 15.0117 10.0072H15.1229C15.2341 10.0072 15.2341 10.0072 15.3453 10.0072C15.4565 10.0072 15.4565 10.1184 15.5677 10.1184C15.5677 10.3408 15.6789 10.6744 15.6789 10.7855C15.7901 11.2303 15.9013 12.1199 16.0125 12.6758C16.1237 12.4534 16.1237 12.231 16.2349 12.0087C16.2349 11.8975 16.3461 11.8975 16.4573 11.8975C16.6797 11.8975 16.7909 12.0087 17.0133 12.1199C17.2357 12.4534 17.3469 12.8982 17.2357 13.4542C17.1245 14.5661 16.6797 15.2332 16.1237 15.2332H15.9013V15.3444C15.7901 16.4563 15.6789 17.2347 15.4565 17.5682C15.1229 18.2354 13.8997 18.9025 12.4542 19.1249C12.0094 19.2361 11.787 19.2361 11.5646 19.2361ZM7.56145 14.8996C7.67265 14.8996 7.67265 15.0108 7.78385 15.0108V15.3444C7.89505 16.9011 8.11744 17.2347 8.11744 17.3459C8.33984 17.7906 9.45182 18.569 10.7862 18.7913C11.3422 18.9025 11.6758 18.9025 12.2318 18.7913C13.6773 18.569 14.6781 17.7906 14.9005 17.3459C15.0117 17.2347 15.1229 16.7899 15.2341 15.3444V15.0108C15.2341 14.8996 15.3453 14.8996 15.4565 14.8996H15.9013C16.1237 14.8996 16.4573 14.3437 16.6797 13.4542C16.7909 13.0094 16.6797 12.5646 16.4573 12.3423L16.3461 12.2311C16.1237 12.8982 15.9013 13.2318 15.9013 13.343C15.9013 13.4542 15.7901 13.4542 15.6789 13.4542C15.5677 13.4542 15.5677 13.343 15.5677 13.343C15.5677 13.343 15.2341 11.5639 15.1229 10.8967C15.1229 10.7856 15.0117 10.5632 15.0117 10.3408H14.9005C13.5661 10.3408 12.343 10.2296 11.4534 10.0072C9.67422 9.67365 8.67343 9.22889 8.22864 9.00651C8.22864 9.22889 8.11744 9.34009 8.11744 9.56247C8.00625 10.1184 7.89505 10.5632 7.89505 10.8967C7.78385 11.5639 7.45026 13.343 7.45026 13.343C7.45026 13.4542 7.33906 13.4542 7.33906 13.4542C7.22786 13.4542 7.22786 13.4542 7.11666 13.343C7.11666 13.343 6.89427 13.0094 6.67187 12.2311C6.67187 12.2311 6.56067 12.2311 6.56067 12.3423C6.33828 12.5646 6.33828 13.0094 6.44948 13.4542C6.56067 14.3437 6.89427 14.8996 7.22786 14.8996C7.22786 14.8996 7.22786 14.8996 7.33906 14.8996H7.56145ZM16.0125 7.11624C14.4557 6.56029 12.0094 6.44909 11.5646 6.44909C11.1198 6.44909 8.67343 6.56029 7.22786 7.11624C7.11666 7.11624 7.00546 7.11624 7.00546 7.00504L5.3375 3.00215C5.3375 2.89096 5.3375 2.89098 5.3375 2.77979C5.44869 2.66859 7.22786 0.778319 11.5646 0.778319C15.9013 0.778319 17.6805 2.77979 17.7917 2.77979C17.7917 2.77979 17.9029 2.89096 17.7917 3.00215L16.1237 7.00504C16.2349 7.11624 16.1237 7.11624 16.0125 7.11624ZM5.78229 3.11335L7.33906 6.78268C8.89583 6.22673 11.231 6.22673 11.6758 6.22673C12.1206 6.22673 14.4557 6.33792 16.0125 6.78268L17.5693 3.11335C17.2357 2.77977 15.3453 1.22311 11.6758 1.22311C7.89505 1.22311 6.11588 2.66858 5.78229 3.11335Z" fill="white"/>
<path d="M12.2317 5.33719H11.1198C11.0086 5.33719 10.8974 5.22602 10.8974 5.11482V4.11407H9.78538C9.67418 4.11407 9.56299 4.0029 9.56299 3.89171V2.7798C9.56299 2.66861 9.67418 2.5574 9.78538 2.5574H10.8974V1.55669C10.8974 1.44549 11.0086 1.33429 11.1198 1.33429H12.2317C12.3429 1.33429 12.4541 1.44549 12.4541 1.55669V2.5574H13.3437C13.4549 2.5574 13.5661 2.66861 13.5661 2.7798V3.89171C13.5661 4.0029 13.4549 4.11407 13.3437 4.11407H12.4541V5.11482C12.4541 5.33721 12.3429 5.33719 12.2317 5.33719ZM11.3422 5.00363H12.1205V4.00291C12.1205 3.89172 12.2317 3.78051 12.3429 3.78051H13.2325V3.00216H12.3429C12.2317 3.00216 12.1205 2.89099 12.1205 2.7798V1.77908H11.3422V2.7798C11.3422 2.89099 11.231 3.00216 11.1198 3.00216H10.0078V3.78051H11.1198C11.231 3.78051 11.3422 3.89172 11.3422 4.00291V5.00363Z" fill="white"/>
</svg>
