<svg width="73" height="57" viewBox="0 0 73 57" fill="none" xmlns="http://www.w3.org/2000/svg">
<path d="M62.7794 51.1425H60.5843C60.3648 51.1425 59.9258 50.923 59.9258 50.7035V48.0696H12.512V50.7035C12.512 50.923 12.2925 51.1425 11.8534 51.1425H9.65837C4.39017 51.1425 0 46.9721 0 42.1432V8.99933C0 3.95093 4.39017 0 9.65837 0H62.5599C67.8281 0 72.2182 4.17043 72.2182 8.99933V41.9237C72.4377 46.9721 68.0476 51.1425 62.7794 51.1425ZM61.0233 50.045H62.5599C67.389 50.045 71.1207 46.5331 71.1207 41.9237V8.77982C71.1207 4.38991 67.1695 0.658493 62.5599 0.658493H9.65837C4.82918 0.658493 1.09754 4.17042 1.09754 8.77982V41.9237C1.09754 46.3136 5.04869 50.045 9.65837 50.045H11.1949V47.4111C11.1949 47.1916 11.4144 46.9721 11.8534 46.9721H60.3648C60.5843 46.9721 61.0233 47.1916 61.0233 47.4111V50.045ZM62.7794 43.8991H9.65837C8.56082 43.8991 7.68279 43.0211 7.68279 41.9237V29.8514V28.315V8.77982C7.68279 7.68235 8.56082 6.80438 9.65837 6.80438H62.5599C63.6574 6.80438 64.5354 7.68235 64.5354 8.77982V26.559V41.9237C64.7549 43.0211 63.8769 43.8991 62.7794 43.8991ZM8.78033 29.6319V41.9237C8.78033 42.3627 9.21935 42.8016 9.65837 42.8016H62.5599C62.9989 42.8016 63.4379 42.3627 63.4379 41.9237V26.7785V8.99933C63.4379 8.56034 62.9989 8.12136 62.5599 8.12136H9.65837C9.21935 8.12136 8.78033 8.56034 8.78033 8.99933V29.6319ZM68.0476 26.998C66.7305 26.998 65.4135 25.9005 65.4135 24.5835C65.4135 23.2666 66.511 22.1691 68.0476 22.1691C69.3646 22.1691 70.6817 23.2666 70.6817 24.5835C70.6817 25.9005 69.3646 26.998 68.0476 26.998ZM68.0476 23.2665C67.1695 23.2665 66.511 23.925 66.511 24.5835C66.511 25.242 67.1695 25.9005 68.0476 25.9005C68.9256 25.9005 69.5841 25.242 69.5841 24.5835C69.5841 23.925 68.9256 23.2665 68.0476 23.2665ZM4.39017 26.998C3.07312 26.998 1.75607 25.9005 1.75607 24.5835C1.75607 23.2666 2.85361 22.1691 4.39017 22.1691C5.92672 22.1691 7.02427 23.2666 7.02427 24.5835C7.02427 25.9005 5.70722 26.998 4.39017 26.998ZM4.39017 23.2665C3.51213 23.2665 2.85361 23.925 2.85361 24.5835C2.85361 25.242 3.51213 25.9005 4.39017 25.9005C5.2682 25.9005 5.92672 25.242 5.92672 24.5835C5.92672 23.925 5.2682 23.2665 4.39017 23.2665ZM68.0476 18.4376C66.7305 18.4376 65.4135 17.3402 65.4135 16.0232C65.4135 14.7062 66.511 13.6088 68.0476 13.6088C69.3646 13.6088 70.6817 14.7062 70.6817 16.0232C70.6817 17.5597 69.3646 18.4376 68.0476 18.4376ZM68.0476 14.7062C67.1695 14.7062 66.511 15.3647 66.511 16.0232C66.511 16.6817 67.1695 17.3402 68.0476 17.3402C68.9256 17.3402 69.5841 16.6817 69.5841 16.0232C69.5841 15.3647 68.9256 14.7062 68.0476 14.7062ZM4.39017 18.4376C3.07312 18.4376 1.75607 17.3402 1.75607 16.0232C1.75607 14.7062 2.85361 13.6088 4.39017 13.6088C5.92672 13.6088 7.02427 14.7062 7.02427 16.0232C7.02427 17.5597 5.70722 18.4376 4.39017 18.4376ZM4.39017 14.7062C3.51213 14.7062 2.85361 15.3647 2.85361 16.0232C2.85361 16.6817 3.51213 17.3402 4.39017 17.3402C5.2682 17.3402 5.92672 16.6817 5.92672 16.0232C5.92672 15.3647 5.2682 14.7062 4.39017 14.7062Z" fill="#00A3C8"/>
<path d="M51.1455 36.8754C50.926 36.8754 50.7065 36.6559 50.7065 36.6559L47.8529 30.2905H43.4627C43.2432 30.2905 43.0237 30.071 43.0237 30.071L39.7311 23.2667L33.8044 36.6559C33.8044 36.8754 33.5849 36.8754 33.3654 36.8754C33.1458 36.8754 32.9263 36.8754 32.9263 36.6559L28.7557 30.51H24.585C24.3655 30.51 24.146 30.2905 24.146 30.2905L21.0729 24.5836L18.4388 30.071C18.4388 30.2905 18.2193 30.2905 17.9998 30.2905H8.1219C7.9024 30.2905 7.9024 30.2905 7.68289 30.071C7.68289 30.071 7.46338 29.8515 7.46338 29.632V26.7786C7.46338 26.5591 7.68289 26.3396 8.1219 26.3396H15.5852L20.4144 16.2428C20.4144 16.0233 20.6339 16.0233 20.8534 16.0233C21.0729 16.0233 21.2924 16.2428 21.2924 16.2428L26.7801 26.5591H30.7313C30.9508 26.5591 31.1703 26.5591 31.1703 26.7786L32.7068 28.9736L39.0726 14.2673C39.0726 14.0478 39.2921 14.0479 39.5116 14.0479C39.7311 14.0479 39.9506 14.2673 39.9506 14.2673L45.6578 26.1201H50.048C50.2675 26.1201 50.487 26.3396 50.487 26.3396V26.1201C50.487 25.9006 50.7065 25.6811 50.926 25.6811H63.6575C63.877 25.6811 63.877 25.6811 64.0965 25.9006C64.0965 25.9006 64.316 26.1201 64.316 26.3396V29.193C64.316 29.4125 64.0965 29.632 63.6575 29.632H53.5601L51.1455 36.2169C51.5845 36.8754 51.365 36.8754 51.1455 36.8754ZM25.024 29.4125H29.1947C29.4142 29.4125 29.6337 29.4125 29.6337 29.632L33.3654 35.1194L39.2921 21.5107C39.2921 21.2912 39.5116 21.2912 39.7311 21.2912C39.9506 21.2912 40.1701 21.5107 40.1701 21.5107L43.6822 28.9736H48.0724C48.2919 28.9736 48.5114 29.193 48.5114 29.193L50.926 34.6804L52.9016 29.193C52.9016 28.9735 53.1211 28.754 53.3406 28.754H63.438V26.9981H51.5845L51.1455 28.0956C51.1455 28.3151 50.926 28.5345 50.7065 28.5345C50.487 28.5345 50.2675 28.3151 50.2675 28.3151L49.8285 27.2176H45.4383C45.2188 27.2176 44.9993 26.9981 44.9993 26.9981L39.7311 15.8038L33.3654 30.2905C33.3654 30.51 33.1458 30.51 32.9263 30.51C32.7068 30.51 32.4873 30.51 32.4873 30.2905L30.5117 27.4371H26.5606C26.3411 27.4371 26.1216 27.2176 26.1216 27.2176L21.0729 17.5598L16.6827 26.9981C16.6827 27.2176 16.4632 27.2176 16.2437 27.2176H8.99994V28.9736H17.9998L20.8534 22.6082C20.8534 22.3887 21.0729 22.3887 21.2924 22.3887C21.5119 22.3887 21.7314 22.6082 21.7314 22.6082L25.024 29.4125Z" fill="#00A3C8"/>
<path d="M57.9503 56.8492H14.4877C12.7316 56.8492 11.4146 55.5323 11.4146 53.9958V47.6304C11.4146 47.4109 11.6341 47.1914 12.0731 47.1914H60.5844C60.8039 47.1914 61.2429 47.4109 61.2429 47.6304V53.9958C61.0234 55.5323 59.7064 56.8492 57.9503 56.8492ZM12.5121 47.8499V53.7763C12.5121 54.8738 13.3901 55.7518 14.4877 55.7518H57.9503C59.0479 55.7518 59.9259 54.8738 59.9259 53.7763V47.8499H12.5121Z" fill="#00A3C8"/>
</svg>
