<svg width="73" height="62" viewBox="0 0 73 62" fill="none" xmlns="http://www.w3.org/2000/svg">
<path d="M58.8153 62.0001H14.0613C6.51239 62.0001 0.311523 55.7996 0.311523 48.2512V23.1795C0.311523 15.6311 6.51239 9.43066 14.0613 9.43066H58.8153C66.3641 9.43066 72.2954 15.6311 72.2954 23.1795V48.2512C72.565 56.0692 66.3641 62.0001 58.8153 62.0001ZM14.0613 10.7786C7.3212 10.7786 1.65954 16.4399 1.65954 23.1795V48.2512C1.65954 54.9908 7.3212 60.6522 14.0613 60.6522H58.8153C65.5553 60.6522 71.217 54.9908 71.217 48.2512V23.1795C71.217 16.4399 65.5553 10.7786 58.8153 10.7786H14.0613Z" fill="#00A3C8"/>
<path d="M8.13003 31.2673C7.86042 31.2673 7.59082 30.9977 7.59082 30.7282V26.4148C7.59082 20.7534 12.1741 15.9009 18.1053 15.9009C18.3749 15.9009 18.6445 16.1704 18.6445 16.44C18.6445 16.7096 18.3749 16.9792 18.1053 16.9792C12.9829 16.9792 8.93883 21.023 8.93883 26.1451V30.4586C8.66923 30.9977 8.39963 31.2673 8.13003 31.2673Z" fill="#00A3C8"/>
<path d="M46.1437 10.509C45.8741 10.509 45.6045 10.2394 45.6045 9.96979V6.73479C45.6045 5.11727 44.2565 3.49972 42.3693 3.49972C42.0997 3.49972 41.8301 3.2301 41.8301 2.96051C41.8301 2.69092 42.0997 2.42139 42.3693 2.42139C44.7957 2.42139 46.6829 4.30851 46.6829 6.73479V9.96979C46.6829 10.2394 46.4133 10.509 46.1437 10.509Z" fill="#00A3C8"/>
<path d="M26.1935 10.509C25.9239 10.509 25.6543 10.2394 25.6543 9.96979V6.73479C25.6543 4.30851 27.5415 2.42139 29.9679 2.42139C30.2375 2.42139 30.5071 2.69092 30.5071 2.96051C30.5071 3.2301 30.2375 3.49972 29.9679 3.49972C28.3503 3.49972 26.7327 4.84769 26.7327 6.73479V9.96979C26.7327 10.2394 26.4631 10.509 26.1935 10.509Z" fill="#00A3C8"/>
<path d="M36.438 54.1821C26.1931 54.1821 18.105 45.8249 18.105 35.8502C18.105 35.5806 18.3746 35.311 18.6442 35.311C18.9138 35.311 19.1834 35.5806 19.1834 35.8502C19.1834 45.2857 27.0019 53.1037 36.438 53.1037C45.874 53.1037 53.6925 45.2857 53.6925 35.8502C53.6925 26.4146 45.874 18.5966 36.438 18.5966C36.1683 18.5966 35.8987 18.327 35.8987 18.0574C35.8987 17.7878 36.1683 17.5183 36.438 17.5183C46.6828 17.5183 54.7709 25.8755 54.7709 35.8502C54.7709 46.0945 46.6828 54.1821 36.438 54.1821Z" fill="#00A3C8"/>
<path d="M22.9581 24.797C22.9581 24.797 22.6885 24.797 22.6885 24.5274C22.4189 24.2578 22.4189 23.9882 22.6885 23.7186C24.8454 21.0228 27.811 19.1357 31.0462 18.3269C31.3158 18.3269 31.5854 18.3269 31.855 18.5965C31.855 18.8661 31.855 19.1356 31.5854 19.4052C28.6198 20.4836 25.9238 22.1011 23.7669 24.5274C23.2277 24.797 23.2277 24.797 22.9581 24.797Z" fill="#00A3C8"/>
<path d="M19.1837 32.076C18.6445 32.076 18.6445 31.5368 18.6445 31.2672C18.9141 29.9192 19.4533 28.5713 20.2622 27.2234C20.5318 26.9538 20.8014 26.9539 21.071 26.9539C21.3406 27.2234 21.3406 27.493 21.3406 27.7626C20.8014 29.1105 20.2622 30.1889 19.7229 31.5368C19.7229 31.8064 19.4533 32.076 19.1837 32.076Z" fill="#00A3C8"/>
<path d="M40.7522 47.4425H32.3945C32.1249 47.4425 31.8553 47.1729 31.8553 46.9033V40.7028H25.6544C25.3848 40.7028 25.1152 40.4333 25.1152 40.1637V31.8065C25.1152 31.5369 25.3848 31.2673 25.6544 31.2673H31.8553V25.0668C31.8553 24.7972 32.1249 24.5276 32.3945 24.5276H40.7522C41.0218 24.5276 41.2914 24.7972 41.2914 25.0668V31.2673H47.4922C47.7618 31.2673 48.0314 31.5369 48.0314 31.8065V40.1637C48.0314 40.4333 47.7618 40.7028 47.4922 40.7028H41.2914V46.9033C41.2914 47.1729 41.0218 47.4425 40.7522 47.4425ZM32.9337 46.3641H40.213V40.1637C40.213 39.8941 40.4826 39.6245 40.7522 39.6245H46.953V32.3457H40.7522C40.4826 32.3457 40.213 32.0761 40.213 31.8065V25.606H32.9337V31.8065C32.9337 32.0761 32.6641 32.3457 32.3945 32.3457H26.1936V39.6245H32.3945C32.6641 39.6245 32.9337 39.8941 32.9337 40.1637V46.3641Z" fill="#00A3C8"/>
<path d="M42.6392 1.34306H29.9679C29.6983 1.34306 29.4287 1.07344 29.4287 0.803855C29.4287 0.534268 29.6983 0.264648 29.9679 0.264648H42.6392C42.9088 0.264648 43.1784 0.534268 43.1784 0.803855C43.1784 1.07344 42.9088 1.34306 42.6392 1.34306Z" fill="#00A3C8"/>
<path d="M42.6392 5.65646H29.9679C29.6983 5.65646 29.4287 5.38692 29.4287 5.11733C29.4287 4.84774 29.6983 4.57812 29.9679 4.57812H42.6392C42.9088 4.57812 43.1784 4.84774 43.1784 5.11733C43.1784 5.38692 42.9088 5.65646 42.6392 5.65646Z" fill="#00A3C8"/>
</svg>
