<svg width="123" height="93" viewBox="0 0 123 93" fill="none" xmlns="http://www.w3.org/2000/svg">
<path d="M66.625 60.4656C66.625 34.118 86.5715 6.55575 117.875 0.375L122.918 11.2707C111.566 15.5501 101.583 30.4485 100.471 40.719C113.237 42.728 123 53.7724 123 67.1076C123 83.4154 109.757 92.625 96.3551 92.625C80.9033 92.625 66.625 80.8119 66.625 60.4656ZM0 60.4656C0 34.118 19.9465 6.55575 51.25 0.375L56.293 11.2707C44.9411 15.5501 34.9576 30.4485 33.8455 40.719C46.6119 42.728 56.375 53.7724 56.375 67.1076C56.375 83.4154 43.132 92.625 29.7301 92.625C14.2783 92.625 0 80.8119 0 60.4656Z" fill="#00A3C8"/>
</svg>
