<svg width="26" height="23" viewBox="0 0 26 23" fill="none" xmlns="http://www.w3.org/2000/svg">
<path d="M12.4104 1.49278C12.7347 0.835742 13.2653 0.835742 13.5897 1.49278L16.0094 6.39615C16.3337 7.05318 17.1923 7.67678 17.9174 7.78216L23.3283 8.56841C24.0534 8.67379 24.2174 9.17829 23.6927 9.68984L19.7773 13.5063C19.2526 14.0178 18.9247 15.0271 19.0486 15.7492L19.9728 21.1382C20.0967 21.8606 19.6675 22.1726 19.0188 21.8314L14.1792 19.2869C13.5306 18.946 12.4694 18.946 11.8208 19.2869L6.98109 21.8314C6.33258 22.1726 5.90335 21.8606 6.02711 21.1382L6.95138 15.7492C7.07528 15.0271 6.74729 14.0178 6.22268 13.5063L2.30725 9.68984C1.78264 9.17829 1.9465 8.67379 2.6716 8.56841L8.08254 7.78216C8.80765 7.67678 9.66624 7.05305 9.9905 6.39615L12.4104 1.49278Z" stroke="#00A3C8" stroke-width="2" stroke-miterlimit="10" stroke-linecap="round" stroke-linejoin="round"/>
</svg>
