<svg width="70" height="66" viewBox="0 0 70 66" fill="none" xmlns="http://www.w3.org/2000/svg">
<path d="M48.9083 21.331C48.0625 13.7193 47.2167 6.53049 53.5602 1.2446C53.7716 1.03317 53.7716 0.610246 53.5602 0.398811C53.3487 0.187376 52.9258 0.187376 52.7143 0.398811C45.948 6.319 46.7937 14.1421 47.6395 21.5424C48.4853 29.154 49.3312 36.3428 42.9878 41.6287C36.6443 47.126 29.6665 45.2232 22.2658 43.5317C14.8651 41.6288 7.25304 39.7259 0.486711 45.646C0.275263 45.8575 0.275263 46.2803 0.486711 46.4918C0.698158 46.7032 0.698184 46.7032 0.909632 46.7032C1.12108 46.7032 1.33255 46.7032 1.33255 46.4918C3.23558 44.8003 5.35003 43.7431 7.25306 43.3202C11.9049 42.2631 16.7683 43.3202 21.843 44.8003C29.2437 46.7032 36.8558 48.6061 43.6221 42.6859C50.5999 36.7657 49.7541 28.9426 48.9083 21.331Z" fill="#00A3C8"/>
<path d="M69.8414 19.0051C69.6299 18.7937 69.63 18.7937 69.4186 18.7937C69.2071 18.7937 69.2071 18.7937 68.9956 19.0051C62.6522 24.5025 55.6745 22.5995 48.2738 20.9081C43.199 19.6394 37.9128 18.3708 33.0495 19.6394C30.7236 20.2737 28.6091 21.3309 26.4946 23.0224C19.7283 28.9426 20.5741 36.7657 21.4199 44.166C22.2657 51.7776 23.1115 58.9664 16.768 64.2523C16.5566 64.4637 16.5566 64.4638 16.5566 64.6752C16.5566 64.8866 16.5566 65.098 16.768 65.098C16.9795 65.3095 16.9795 65.3095 17.191 65.3095C17.4024 65.3095 17.6139 65.3095 17.6139 65.098C24.3802 59.1779 23.5343 51.3547 22.6885 43.9545C21.8428 36.3428 20.997 29.154 27.3404 23.8681C33.6838 18.3708 40.6616 20.2737 48.0623 21.9652C55.4629 23.8682 63.075 25.7711 69.8414 19.8509C70.0528 19.6394 70.0528 19.2166 69.8414 19.0051Z" fill="#00A3C8"/>
<path d="M3.23535 46.7032C3.23535 46.9146 3.23543 46.9146 3.44688 47.126L16.5567 62.138C16.7681 62.3494 16.768 62.3494 16.9795 62.3494C17.1909 62.3494 17.4024 62.3494 17.4024 62.138C17.6138 61.9265 17.6139 61.9265 17.6139 61.7151C17.6139 61.5036 17.6138 61.5037 17.4024 61.2922L4.29259 46.2803C4.08114 46.0689 3.86972 46.0688 3.65827 46.0688C3.65827 46.0688 3.44688 46.0689 3.44688 46.2803C3.44688 46.4917 3.23535 46.4918 3.23535 46.7032Z" fill="#00A3C8"/>
<path d="M19.3055 58.3322L7.67589 44.8003C7.46444 44.5888 7.46442 44.5889 7.25297 44.5889H7.04157C7.04157 44.5889 6.83005 44.5888 6.83005 44.8003C6.6186 45.0117 6.61865 45.0117 6.61865 45.2231C6.61865 45.4346 6.6186 45.646 6.83005 45.646L18.4597 59.1779C18.6711 59.3893 18.6711 59.3893 18.8826 59.3893C19.094 59.3893 19.0941 59.3893 19.3055 59.1779C19.517 59.1779 19.5169 58.9664 19.5169 58.755C19.5169 58.755 19.517 58.5436 19.3055 58.3322Z" fill="#00A3C8"/>
<path d="M10.6363 43.7432C10.4248 43.7432 10.2135 43.7432 10.2135 43.9546C10.002 43.9546 10.002 44.1661 10.002 44.3775C10.002 44.5889 10.002 44.8003 10.2135 44.8003L19.94 56.0065C20.1515 56.2179 20.1515 56.2179 20.3629 56.2179C20.5744 56.2179 20.7859 56.2179 20.7859 56.0065C20.9973 55.795 20.9973 55.795 20.9973 55.5836C20.9973 55.3721 20.9973 55.1607 20.7859 55.1607L11.0592 43.9546C11.0592 43.7432 10.8477 43.7432 10.6363 43.7432Z" fill="#00A3C8"/>
<path d="M15.2881 43.7432C15.2881 43.7432 15.0767 43.7432 15.2881 43.7432C15.0767 43.7432 14.8652 43.7432 14.8652 43.9546C14.6538 44.166 14.6538 44.1661 14.6538 44.3775C14.6538 44.5889 14.6538 44.8003 14.8652 44.8003L20.5743 51.3549C20.7858 51.5663 20.7858 51.5663 20.9972 51.5663C21.2087 51.5663 21.2087 51.5663 21.4202 51.3549C21.6316 51.1434 21.6316 51.1435 21.6316 50.932C21.6316 50.7206 21.6316 50.5091 21.4202 50.5091L15.711 43.9546C15.711 43.7432 15.4996 43.7432 15.2881 43.7432Z" fill="#00A3C8"/>
<path d="M31.5694 23.4453C31.5694 23.4453 31.358 23.4452 31.358 23.6566C31.1466 23.6566 31.1465 23.8681 31.1465 24.0795C31.1465 24.291 31.1466 24.5024 31.358 24.5024L42.9876 38.0343C43.1991 38.2457 43.199 38.2457 43.4104 38.2457C43.6219 38.2457 43.8333 38.2457 43.8333 38.0343C44.0448 37.8229 44.0449 37.8228 44.0449 37.6114C44.0449 37.4 44.0448 37.1886 43.8333 37.1886L32.2037 23.6566C32.2037 23.4452 31.7809 23.2338 31.5694 23.4453Z" fill="#00A3C8"/>
<path d="M34.7412 22.8109C34.7412 23.0223 34.7412 23.2338 34.9526 23.2338L44.6793 34.4398C44.8907 34.6513 44.8908 34.6513 45.1022 34.6513C45.3136 34.6513 45.525 34.6513 45.525 34.4398C45.7364 34.2284 45.7365 34.2285 45.7365 34.017C45.7365 33.8056 45.7364 33.5941 45.525 33.5941L35.7984 22.3881C35.587 22.1766 35.1641 22.1766 34.9526 22.3881C34.7412 22.3881 34.7412 22.5995 34.7412 22.8109Z" fill="#00A3C8"/>
<path d="M39.1816 22.811C39.1816 23.0225 39.1817 23.0225 39.3932 23.2339L45.1023 29.7884C45.3137 29.9999 45.3136 29.9998 45.5251 29.9998C45.7365 29.9998 45.948 29.9999 45.948 29.7884C46.1594 29.577 46.1595 29.577 46.1595 29.3655C46.1595 29.1541 46.1594 28.9427 45.948 28.9427L40.2389 22.3882C40.0274 22.1768 39.816 22.1768 39.6046 22.1768C39.6046 22.1768 39.3932 22.1768 39.3932 22.3882C39.3932 22.5996 39.3931 22.811 39.1816 22.811Z" fill="#00A3C8"/>
<path d="M53.1372 3.35882C53.1372 3.57025 53.1372 3.57021 53.3486 3.78165L66.4584 18.7936C66.6698 19.005 66.6699 19.005 66.8813 19.005C67.0928 19.005 67.3042 19.005 67.3042 18.7936C67.5157 18.5821 67.5156 18.5821 67.5156 18.3707C67.5156 18.1592 67.5157 17.9478 67.3042 17.9478L54.1944 2.93592C53.983 2.72448 53.5601 2.72448 53.3486 2.93592C53.1372 3.14736 53.1372 3.14738 53.1372 3.35882Z" fill="#00A3C8"/>
<path d="M51.8687 5.89624C51.6572 5.89624 51.6573 5.89625 51.4459 6.10769C51.2345 6.31912 51.2344 6.31915 51.2344 6.53059C51.2344 6.74202 51.2345 6.95342 51.4459 6.95342L63.0755 20.4853C63.287 20.6967 63.2869 20.6967 63.4983 20.6967C63.7098 20.6967 63.9212 20.6967 63.9212 20.4853C64.1327 20.2738 64.1328 20.2739 64.1328 20.0624C64.1328 19.851 64.1327 19.6395 63.9212 19.6395L52.2916 6.10769C52.2916 5.89625 52.0801 5.89624 51.8687 5.89624Z" fill="#00A3C8"/>
<path d="M49.9654 9.27918C49.754 9.49062 49.7539 9.49064 49.7539 9.70208C49.7539 9.91351 49.754 10.1249 49.9654 10.1249L59.692 21.331C59.692 21.5425 59.9034 21.5424 60.1149 21.5424C60.3263 21.5424 60.5378 21.5425 60.5378 21.331C60.7493 21.331 60.7492 21.1196 60.7492 20.9081C60.7492 20.6967 60.7493 20.4852 60.5378 20.4852L50.8111 9.27918C50.5997 9.06775 50.1769 9.06775 49.9654 9.27918Z" fill="#00A3C8"/>
<path d="M49.1196 14.3534C49.1196 14.5648 49.1197 14.7763 49.3312 14.7763L55.0401 21.3308C55.2516 21.5422 55.2516 21.5422 55.4631 21.5422C55.6745 21.5422 55.886 21.5422 55.886 21.3308C56.0974 21.1194 56.0974 21.1193 56.0974 20.9079C56.0974 20.6965 56.0974 20.485 55.886 20.485L50.1769 13.9305C49.9654 13.7191 49.5426 13.7191 49.3312 13.9305C49.1197 13.9305 49.1196 14.1419 49.1196 14.3534Z" fill="#00A3C8"/>
<path d="M42.1421 39.9372L29.0323 24.9253C28.8209 24.7139 28.8209 24.7139 28.6094 24.7139H28.398C28.398 24.7139 28.1866 24.7139 28.1866 24.9253C27.9752 25.1368 27.9751 25.1368 27.9751 25.3482C27.9751 25.5596 27.9752 25.771 28.1866 25.771L41.2963 40.783C41.5077 40.9944 41.5077 40.9944 41.7192 40.9944C41.9306 40.9944 41.9307 40.9944 42.1421 40.783C42.3536 40.5715 42.3535 40.5716 42.3535 40.3601C42.3535 40.3601 42.1421 40.1487 42.1421 39.9372Z" fill="#00A3C8"/>
<path d="M26.0718 28.3083C26.0718 28.5197 26.0717 28.7312 26.2832 28.7312L37.9128 42.263C37.9128 42.4745 38.1243 42.4745 38.3357 42.4745C38.5472 42.4745 38.7586 42.4745 38.7586 42.263C38.9701 42.0516 38.97 42.0516 38.97 41.8401C38.97 41.6287 38.9701 41.6287 38.7586 41.4173L27.129 27.8854C26.9176 27.6739 26.4946 27.6739 26.2832 27.8854C26.2832 28.0968 26.0718 28.0968 26.0718 28.3083Z" fill="#00A3C8"/>
<path d="M25.2261 31.0569C25.0147 31.0569 25.0147 31.0569 25.2261 31.0569C25.0147 31.0569 24.8032 31.0569 24.8032 31.2683C24.5917 31.4798 24.5918 31.4798 24.5918 31.6912C24.5918 31.9027 24.5917 32.1141 24.8032 32.1141L34.5299 43.3202C34.7413 43.5316 34.7412 43.5316 34.9527 43.5316C35.1641 43.5316 35.3756 43.5316 35.3756 43.3202C35.587 43.1087 35.5871 43.1087 35.5871 42.8973C35.5871 42.6858 35.587 42.4744 35.3756 42.4744L25.649 31.2683C25.4376 31.2683 25.2261 31.0569 25.2261 31.0569Z" fill="#00A3C8"/>
<path d="M23.9575 36.1313C23.9575 36.3427 23.9575 36.5541 24.1689 36.5541L29.878 43.1086C30.0895 43.3201 30.0895 43.3201 30.3009 43.3201C30.5124 43.3201 30.7237 43.3201 30.7237 43.1086C30.9352 42.8972 30.9353 42.8972 30.9353 42.6857C30.9353 42.4743 30.9352 42.4743 30.7237 42.2629L25.0148 35.7084C24.8033 35.4969 24.3804 35.4969 24.1689 35.7084C23.9575 35.9198 23.9575 36.1313 23.9575 36.1313Z" fill="#00A3C8"/>
</svg>
