<svg width="60" height="60" viewBox="0 0 60 60" fill="none" xmlns="http://www.w3.org/2000/svg">
<path d="M60 30C60 46.5474 46.5474 60 30 60C13.4526 60 0 46.5474 0 30C0 13.4526 13.4526 0 30 0C46.6105 0 60 13.4526 60 30Z" fill="#B6D2E7"/>
<path d="M30.3966 39.001C30.4492 39.001 30.5542 39.001 30.6068 39.001C30.7644 39.001 30.8695 39.001 31.0271 39.001C36.0707 39.3162 35.4403 49.1934 35.4403 49.1934C35.6504 51.6626 37.752 50.717 37.752 50.717C42.7956 47.0918 41.5347 34.8504 41.5347 34.8504C45.3174 29.2814 43.0583 22.9768 43.0583 22.9768C42.0601 20.3499 40.0636 18.406 37.174 18.1433C34.7047 17.9332 32.6558 19.9296 30.2915 20.0347C27.9273 19.8771 25.8783 17.9332 23.409 18.1433C20.5194 18.3535 18.5755 20.3499 17.5248 22.9768C17.5248 22.9768 15.2656 29.2814 19.0484 34.8504C19.0484 34.8504 17.7875 47.0918 22.8311 50.717C22.8311 50.717 24.9327 51.6626 25.1428 49.1934C25.1428 49.1934 24.5123 39.3687 29.556 39.001C29.8712 39.001 30.1339 39.001 30.3966 39.001Z" fill="white"/>
<path d="M27.3498 40.1042C27.2447 40.1567 27.1396 40.2092 27.0871 40.2618C25.616 41.1024 25.4584 42.626 25.0907 44.0971C24.8805 44.9377 24.145 47.9849 22.7264 46.6189C21.8858 45.8308 21.6757 44.5174 21.5181 43.4141C21.3605 42.2057 21.2028 40.9973 21.1503 39.8415C21.0452 37.3722 21.413 34.7453 23.3569 33.0115C22.8841 32.6963 22.3587 32.4861 21.9384 32.1184C21.4655 31.6981 21.0978 31.1727 20.8876 30.5948C20.3622 29.2288 19.9419 27.7577 20.047 26.2866C20.1521 24.1326 20.8351 21.7158 23.1467 21.0328C25.4059 20.3498 27.4549 21.243 29.5564 21.926C30.9224 22.3988 32.446 22.7666 33.8645 22.5564C34.8628 22.3988 35.9661 21.926 36.0711 20.8227C35.1254 21.2955 33.8645 21.243 32.8138 21.0854C31.9732 20.9277 31.0275 20.665 30.3445 20.1397C27.9803 19.982 25.9838 18.0381 23.5145 18.2483C20.6249 18.4584 18.681 20.4549 17.6302 23.0818C17.6302 23.0818 15.3711 29.3864 19.1539 34.9554C19.1539 34.9554 17.8929 47.1968 22.9366 50.8219C22.9366 50.8219 25.0381 51.7676 25.2483 49.2983C25.2483 49.1933 24.7754 42.7311 27.3498 40.1042Z" fill="#CDE5F2"/>
<path d="M43.5848 29.5439C43.5322 29.7016 43.4797 29.8592 43.3746 29.9642C42.7967 31.015 41.9561 31.8556 40.9053 32.4861C40.1698 32.9589 39.4343 33.3267 38.6987 33.6945C38.5411 33.7995 38.331 33.8521 38.1733 33.9571C38.0157 34.0622 38.1733 34.1148 38.2784 34.2724C38.4886 34.6401 38.6987 34.9554 38.9089 35.3231C39.5393 36.7417 39.802 38.3178 39.9071 39.8414C40.0122 41.5226 40.1173 43.2564 39.802 44.9376C39.6444 45.7257 39.3817 46.4612 39.014 47.1968C38.8038 47.6171 38.5411 48.1424 38.1208 48.4051C37.753 48.6153 37.2277 48.7729 36.8599 48.4577C36.4921 48.1424 36.4396 47.6696 36.387 47.1968C36.2294 46.146 36.0193 45.0427 35.8091 43.9919C35.5464 42.9412 35.2312 41.7853 34.5482 40.9447C34.1804 40.5244 33.7601 40.2617 33.3398 40.1041C35.8617 42.731 35.4414 49.1932 35.4414 49.1932C35.6515 51.6625 37.753 50.7168 37.753 50.7168C42.7967 47.0917 41.5358 34.8503 41.5358 34.8503C42.7442 33.064 43.3221 31.2252 43.5848 29.5439Z" fill="#CDE5F2"/>
<path d="M30.3966 39.001C30.4492 39.001 30.5542 39.001 30.6068 39.001C30.7644 39.001 30.8695 39.001 31.0271 39.001C36.0707 39.3162 35.4403 49.1934 35.4403 49.1934C35.6504 51.6626 37.752 50.717 37.752 50.717C42.7956 47.0918 41.5347 34.8504 41.5347 34.8504C45.3174 29.2814 43.0583 22.9768 43.0583 22.9768C42.0601 20.3499 40.0636 18.406 37.174 18.1433C34.7047 17.9332 32.6558 19.9296 30.2915 20.0347C27.9273 19.8771 25.8783 17.9332 23.409 18.1433C20.5194 18.3535 18.5755 20.3499 17.5248 22.9768C17.5248 22.9768 15.2656 29.2814 19.0484 34.8504C19.0484 34.8504 17.7875 47.0918 22.8311 50.717C22.8311 50.717 24.9327 51.6626 25.1428 49.1934C25.1428 49.1934 24.5123 39.3687 29.556 39.001C29.8712 39.001 30.1339 39.001 30.3966 39.001Z" stroke="#851256" stroke-miterlimit="10" stroke-linecap="round" stroke-linejoin="round"/>
<path d="M28.874 19.772C28.874 19.772 34.9159 21.926 35.9667 20.455" stroke="#851256" stroke-miterlimit="10" stroke-linecap="round" stroke-linejoin="round"/>
<path d="M44.5826 14.886C40.3271 15.2538 40.0118 15.5165 39.6966 19.7721C39.3288 15.5165 39.0661 15.2013 34.8105 14.886C39.0661 14.5183 39.3814 14.2556 39.6966 10C40.0118 14.2031 40.3271 14.5183 44.5826 14.886Z" fill="white"/>
<path d="M17.9987 34.7979C13.7431 35.1657 13.4278 35.4284 13.1126 39.684C12.7449 35.4284 12.4822 35.1131 8.22656 34.7979C12.4822 34.4301 12.7974 34.1675 13.1126 29.9119C13.4278 34.1675 13.7431 34.4301 17.9987 34.7979Z" fill="white"/>
</svg>
