<svg width="25" height="21" viewBox="0 0 25 21" fill="none" xmlns="http://www.w3.org/2000/svg">
<path d="M24.6133 3.34854C23.7087 3.74937 22.737 4.02021 21.7154 4.14262C22.7695 3.5119 23.5581 2.51921 23.9341 1.34979C22.9437 1.93803 21.8598 2.35209 20.7296 2.57396C19.9695 1.76239 18.9627 1.22448 17.8656 1.04372C16.7684 0.862964 15.6423 1.04948 14.6621 1.57431C13.6818 2.09915 12.9022 2.93293 12.4444 3.94622C11.9865 4.95951 11.8761 6.0956 12.1301 7.17812C10.1234 7.07737 8.16032 6.5558 6.36826 5.64727C4.57621 4.73874 2.99521 3.46355 1.72789 1.90446C1.29455 2.65196 1.04539 3.51862 1.04539 4.44162C1.0449 5.27254 1.24952 6.09072 1.64109 6.82358C2.03266 7.55645 2.59906 8.18133 3.29005 8.64279C2.48869 8.61729 1.705 8.40076 1.00422 8.01121V8.07621C1.00414 9.24159 1.40726 10.3711 2.14517 11.2731C2.88308 12.1751 3.91034 12.794 5.05264 13.0249C4.30924 13.2261 3.52984 13.2557 2.7733 13.1115C3.09559 14.1143 3.72338 14.9912 4.56878 15.6194C5.41419 16.2476 6.43488 16.5957 7.48797 16.615C5.70029 18.0184 3.49251 18.7796 1.2198 18.7763C0.817216 18.7764 0.414969 18.7529 0.0151367 18.7059C2.32207 20.1891 5.00751 20.9763 7.75014 20.9733C17.0343 20.9733 22.1097 13.2838 22.1097 6.61479C22.1097 6.39812 22.1043 6.17929 22.0946 5.96262C23.0818 5.24868 23.934 4.36459 24.6111 3.35179L24.6133 3.34854Z" fill="white"/>
</svg>
